<svg data-v-644c7455="" viewBox="-100 -100 200 200" xmlns="http://www.w3.org/2000/svg" width="500" height="500" id="face-svg"><defs data-v-644c7455=""><clipPath data-v-644c7455="" id="leftEyeClipPath"><polyline data-v-644c7455="" points="23.638539927480487,-3.405301180883185,23.434550388715454,-3.6786492967379427,23.19964862738046,-3.9412750715592706,22.934364724688997,-4.193456309964424,22.63927103816683,-4.4354639738798,22.314980381013086,-4.6675622971943795,21.962144201461395,-4.89000890041318,21.58145076214101,-5.103054905310709,21.1736233194379,-5.306945049584406,20.73941830285591,-5.501917801508098,20.27962349437785,-5.688205474585451,19.795056207826615,-5.866034342203415,19.28656146822632,-6.0356247522856785,18.75501019116341,-6.197191241946117,18.201297362147777,-6.350942652142241,17.626340215973883,-6.497082242328653,17.050162735368325,-6.662707874875569,16.437904851053876,-6.820451656980653,15.790886411860619,-6.970290886416836,15.11062666475815,-7.112213010072932,14.398821288714414,-7.2462158308060385,13.657320426034504,-7.372307671583646,12.888107692495943,-7.490507498158976,12.093280147596879,-7.600845001523093,11.275029206233594,-7.7033606413772855,10.435622473123878,-7.798105651869272,9.577386481292589,-7.88514201083675,8.70269031593598,-7.964542373801805,7.813930104981134,-8.036389973959707,6.913514357657031,-8.100778489405656,6.003850132393647,-8.157811878842923,5.08733001536556,-8.20760418701603,4.166319890996513,-8.250279321112368,3.2431474857413853,-8.285970799375882,2.320091666461987,-8.314821473176295,1.3993724747131853,-8.336983223777407,0.4831418782557586,-8.352616635048012,-0.42652477888754614,-8.361890643358945,-1.3276366465162948,-8.364982165909776,-2.2182945771605658,-8.362075708728707,-3.096697692496601,-8.35336295558918,-3.9611493259534347,-8.339042339086706,-4.810062360194111,-8.319318595119489,-5.64196397815498,-8.294402302016314,-6.455499846326667,-8.26450940555528,-7.249437748960219,-8.229860731116858,-8.022670691882041,-8.190681484214831,-8.774219494601098,-8.147200740648639,-9.503234889392024,-8.099650927520631,-10.208999146037572,-8.048267296361796,-10.890927240914086,-7.9932873896094465,-11.54856758910344,-7.9349505016804205,-12.181602358215045,-7.873497135883325,-12.789847382601454,-7.809168458413312,-13.373251696651167,-7.742205750672973,-13.931896705842078,-7.672849861162808,-14.465995014239251,-7.601340658184875,-14.975888927120444,-7.527916484603061,-15.462048647413035,-7.452813615903586,-15.925070184625863,-7.376265722799191,-16.365672994959485,-7.298503339620598,-16.78469737127849,-7.219753339738718,-17.183101601629357,-7.1402384192611805,-17.561958914987425,-7.060176590246666,-17.922454232916525,-6.979780684680607,-18.26588074582484,-6.899257870455757,-18.59238903847058,-6.818372917699931,-18.90150546780903,-6.736826831952783,-19.19368048223565,-6.654724239590904,-19.469381904336238,-6.572166483505057,-19.72909242862577,-6.489251456556424,-19.973307119287107,-6.4060734350328765,-20.202530907909825,-6.322722912105221,-20.417276091228985,-6.239286431283466,-20.61805982886388,-6.155846419873075,-20.805401641056868,-6.07248102243123,-20.979820906412076,-5.98926393422308,-21.141834359634256,-5.90626423467801,-21.29195358926752,-5.82354622084589,-21.430682535434105,-5.741169240853342,-17.43386828817404,-0.7796130302420066,-17.08659617707393,-0.5675911510791831,-16.730116527350322,-0.3512161428825227,-16.364383526368705,-0.13058367389585257,-15.989364813440126,0.09419217609784347,-15.60504127074752,0.3229788421482178,-15.211406814272124,0.5556252005093736,-14.80846818471975,0.7919614950116642,-14.39624473844724,1.0317992634334985,-13.97476823838873,1.2749312638731505,-13.54408264498208,1.5211314011205506,-13.104243907095203,1.7701546530291132,-12.655319752952408,2.021736996887512,-12.197389481060776,2.2755953357915137,-11.73054375113653,2.5314274250157665,-11.253699534207724,2.7898662199333124,-10.76569431300589,3.0514769465189246,-10.26653499045709,3.315799994389435,-9.75626433265539,3.582322378873396,-9.23496061832127,3.8504800540844215,-8.70273723458033,4.119660330550911,-8.159742220623322,4.389204397951826,-7.606157760808603,4.6584099535084,-7.042199628768088,4.9265339365814285,-6.468116584077787,5.19279537002393,-5.884189723054009,5.456378308839003,-5.29073178523633,5.716434896692499,-4.688086417118393,5.972088530830414,-4.076627394687611,6.222437135950637,-3.4567578063348954,6.466556547578925,-2.828909197695447,6.70350400549874,-2.1935406799817416,6.932321757784802,-1.5511380033697302,7.152040775990066,-0.9022125969994175,7.361684582035913,-0.24730057715081744,7.560273187355261,0.41303827484355304,7.746827144838413,1.078221563388635,7.920371714131372,1.747645356558081,8.07994114083636,2.4206852896057933,8.224583050164314,3.0966976924966008,8.35336295558918,3.7750207398950386,8.465368883053607,4.454975622051112,8.559716111275977,5.135867735021995,8.635552028708391,5.816987888668536,8.692061107695459,6.497613530865548,8.728469996383598,7.177009986364729,8.744052728930582,7.854431708749198,8.73813605456521,8.529123543918507,8.710104886046677,9.20032200354309,8.65940786807355,9.867256546927031,8.585563066192073,10.529150869718094,8.488163776753465,11.185224197903914,8.366884458470128,11.834692585533272,8.221486786120378,12.476770214601377,8.051825826951529,13.110670695538065,7.857856340331098,13.735608366737829,7.639639201195834,14.350799591570603,7.3973479478483615,14.955464051312212,7.131275454651201,15.548826032433428,6.84184073016792,16.130115706686475,6.529595841301138,16.698570402428025,6.195232963977208,17.25343586561747,5.839591560927261,17.79396750892948,5.463665687114437,18.31943164741972,5.068611423356986,18.829106719182647,4.655754438697082,19.28076105686555,4.37449496543487,19.72021401227252,4.08346211640905,20.146812788034257,3.7832824208944817,20.559885833144747,3.474635058113442,20.958742612345,3.1582532691123344,21.342673375506685,2.834925768638393,21.71094892701588,2.505498157016393,22.06282039515676,2.170874332025363,22.39751900149527,1.8320179007752815,22.714255830262843,1.4899535915838005,23.0122215977401,1.1457686658529393,23.290586421640537,0.8006143299458,23.548499590494234,0.4557071470632774,23.785089333031536,0.11233044912076284,23.999462587566764,-0.2281642513751425"/></clipPath><clipPath data-v-644c7455="" id="rightEyeClipPath"><polyline data-v-644c7455="" points="-25.448167272382193,-3.8733757541886105,-25.228289638365098,-4.0301954670524935,-24.98043977410188,-4.1840003703205335,-24.70482422228033,-4.33459860374424,-24.40170857251116,-4.481811008791684,-24.071415261820682,-4.62547084549753,-23.714321375143463,-4.765423509313062,-23.33085644581491,-4.901526247956219,-22.921500256064007,-5.0336478782616165,-22.48678063750588,-5.161668503030583,-22.02727127163452,-5.285479227881187,-21.54358949031534,-5.4049818780982655,-21.036394076277922,-5.520088715483458,-20.506383063608595,-5.630722155205229,-19.95429153824309,-5.736814482648903,-19.380889438459228,-5.838307570266693,-18.826281757442224,-5.9737345670853745,-18.233646170230024,-6.102652282620367,-17.604115637063444,-6.224791332975389,-16.939058220838433,-6.339922571086131,-16.240051619795274,-6.447855228437083,-15.508858786817791,-6.548435092126831,-14.747404615091506,-6.6415427170387265,-13.957753669869971,-6.7270916728738435,-13.142088946098392,-6.805026825803127,-12.302691631643759,-6.875322654495648,-11.441921855880471,-6.937981600279854,-10.562200403380778,-6.993032451194763,-9.665991372459064,-7.040528759687958,-8.75578575831915,-7.080547293717339,-7.8340859405537575,-7.113186521013497,-6.903391054745283,-7.138565126259671,-5.9661832279170115,-7.156820560946129,-5.024914657583944,-7.1681076256559475,-4.081995514152313,-7.172597084539056,-3.139782646417024,-7.170474311731471,-2.200569069906086,-7.161937969476619,-1.2665742178211894,-7.147198717705679,-0.33993493432364064,-7.12647795483381,0.5773028100853166,-7.100006589529224,1.4831915013405466,-7.068023843211979,2.375888982996355,-7.030776083039398,3.253664696067948,-6.9885156851350505,4.114905277781855,-6.941499927818177,4.958119539486217,-6.889989914590483,5.781942843971752,-6.834249526637196,6.585140902454272,-6.7745444045993075,7.36661301146963,-6.7111409593739015,8.12539474993192,-6.64430541169948,8.860660156605782,-6.574302860283188,9.57172340824376,-6.501396378226865,10.2580400186394,-6.425846137508795,10.919207578847134,-6.347908561278114,11.55496605881964,-6.267835503718737,12.165197690713702,-6.185873457239734,12.749926454115267,-6.1022627867490735,13.309317183434617,-6.017236990767614,13.843674317722614,-5.931021989140277,14.353440313158691,-5.843835437101301,14.839193738461569,-5.755886065450483,15.301647073473573,-5.6673730465973176,15.74164423116927,-5.578485386229937,16.160157823339496,-5.48940134036578,16.558286190201358,-5.400287857540871,16.937250214185347,-5.311300045894628,17.29838993815028,-5.222580664907131,17.64184127380709,-5.133924267864596,17.967083081759135,-5.045092719549912,18.27457359839991,-4.956166857564124,18.564790914458946,-4.867223099028572,18.838230262833463,-4.778333473141786,19.095401306419923,-4.689565653736395,19.336825425945754,-4.6009829918360285,19.563033007800904,-4.512644548212215,19.77456073186947,-4.4246051259412935,19.971948859361376,-4.336915302961311,20.155738520643922,-4.24962146462892,20.3264690030735,-4.162765836276296,20.48467503882712,-4.076386515768024,20.630884092734128,-3.990517506058015,17.518617376728898,0.5441740801566155,17.20905205248109,0.7304570138307858,16.89099089781621,0.9193244238466374,16.564364499101664,1.1106012327194623,16.229113453103054,1.3040945049286874,15.885188197481318,1.4995940690584737,15.53254884128996,1.6968731399382984,15.17116499547218,1.8956889407835638,14.801015603358115,2.0957833253361695,14.422088771161961,2.2968834000051297,14.034381598479213,2.498702146007144,13.637900008783808,2.700939041507204,13.232658579925337,2.903280683759176,12.818680374626195,3.105401411246402,12.395996770978803,3.306963925822295,11.963655594709442,3.5087596736618663,11.520604810991872,3.711404257939429,11.066753288833736,3.9142726950736417,10.602038133142196,4.116721198815529,10.126424701544057,4.318089659382906,9.639906582462238,4.517704164084752,9.142505535714083,4.714879554790167,8.634271396897137,4.9089220175965895,8.115281946828112,5.099131700051997,7.585642747300495,5.284805351285732,7.045486944426596,5.4652389804026935,6.494975040829548,5.639730528495482,5.934294637950883,5.807582549629293,5.363660149739356,5.968104896154172,4.783312488986613,6.12061740369931,4.193518727575311,6.26445257120413,3.5945717319053196,6.398958231340767,2.9867897747636345,6.5235002066826695,2.3705161249036344,6.637464946974005,1.746118615599241,6.74026214285456,1.1139891934397,6.831327311394755,0.47454344863050757,6.910124348795579,-0.17177987193381572,6.976148045607982,-0.8245193675595552,7.028926559826537,-1.4831915013405466,7.068023843211979,-2.1472911311762704,7.093042016197327,-2.8162920529556352,7.103623686732261,-3.489647554640865,7.099454208420477,-4.166790979985826,7.080263873304656,-4.847136300623208,7.045830034653742,-5.530078695254936,6.995979155107225,-6.214995134680158,6.9305887755311435,-6.901244971395233,6.849589399940378,-7.588170532500075,6.752966291842075,-8.27509771464521,6.64076117735476,-8.961336579753992,6.513073850457873,-9.64618195025427,6.3700636757264135,-10.32891400255396,6.21195098390538,-11.008798857494845,6.0390183556786425,-11.685089166519038,5.85161178898702,-12.357024692282419,5.650141745250142,-13.0238328824495,5.435084069846869,-13.684729435404021,5.2069807822088805,-14.338918856609721,4.9664407308821925,-14.985595004355625,4.714140108911195,-15.623941623620238,4.450822824899996,-16.25313286678903,4.1773007251056455,-16.872333799959563,3.894453661918039,-17.48070089356868,3.6032294040810777,-18.077382496076137,3.3046433840098466,-18.59756324373067,3.080310733392177,-19.108745316038913,2.8512221732287513,-19.61027677901192,2.6178395333091258,-20.10148335963916,2.380649099360899,-20.581668104490156,2.140162043924219,-21.050111038316167,1.8969148572263066,-21.50606882265182,1.651469778055973,-21.948774414416825,1.4044152246381376,-22.3774367245176,1.156366225508342,-22.791240276448917,0.9079648503872715,-23.189344864895617,0.6598806410552758,-23.57088521433424,0.4128110422268749,-23.934970637634663,0.16748183242529358,-24.280684694661808,-0.07535244514303319,-24.6070848508773,-0.3149080517139371"/></clipPath><filter data-v-644c7455="" id="fuzzy"><feTurbulence data-v-644c7455="" id="turbulence" baseFrequency="0.05" numOctaves="3" type="noise" result="noise"/><feDisplacementMap data-v-644c7455="" in="SourceGraphic" in2="noise" scale="2"/></filter><linearGradient data-v-644c7455="" id="rainbowGradient" x1="0%" y1="0%" x2="100%" y2="0%"><stop data-v-644c7455="" offset="0%" style="stop-color: rgb(185, 55, 55); stop-opacity: 1;"/><stop data-v-644c7455="" offset="50%" style="stop-color: rgb(250, 128, 114); stop-opacity: 1;"/><stop data-v-644c7455="" offset="100%" style="stop-color: rgb(240, 255, 240); stop-opacity: 1;"/></linearGradient></defs><title data-v-644c7455="">That's an ugly face</title><desc data-v-644c7455="">CREATED BY XUAN TANG, MORE INFO AT TXSTC55.GITHUB.IO</desc><rect data-v-644c7455="" x="-100" y="-100" width="100%" height="100%" fill="rgb(240, 128, 128)"/><polyline data-v-644c7455="" id="faceContour" points="54.78453949255673,0.6323323873395044,54.808692725721784,-0.44620240322085003,55.35137928675614,3.5126724406631693,55.23593915656927,3.2955508189173397,55.38854118645935,5.724416617727289,55.34928783598919,8.607708727671392,55.27542698238044,8.423400212256684,55.06986657998064,8.993311767851667,55.40581935845897,10.663663780366344,55.39068741926869,10.300712346977777,55.14753333185418,11.808595065262985,55.287800096833195,12.913146475658118,55.23824837189444,14.64238988699698,55.36423659831708,16.331700696170667,55.08276969407501,18.273239492407907,54.90365097907733,18.955840750281787,54.95479977744286,19.818327105772255,54.75435696263854,22.32099349937283,54.501460836715125,25.06268492026978,54.52521635256598,24.880757422270612,54.36389738228759,24.2708460612738,54.06186948658416,26.879822457665306,53.654773203034594,30.33337329562181,53.54777853449026,29.126627070998104,53.53070795759861,30.205722190060847,53.380711733316616,32.08014788032131,53.162309314660504,32.35755510032967,52.216686021541236,36.18220821842352,52.159171661871554,36.91597092548391,52.2239372267443,36.44987445249275,51.503629907260446,38.82559241232761,51.60964281221284,39.27531745798816,51.53482364006116,38.930522044190916,51.01110870875107,41.721068806665706,50.74973696692493,41.831568622843065,50.059771742364745,43.79717746972861,49.45103047933242,45.609807211470084,48.7255364870981,47.3951896593293,48.92329477880713,47.1175578645236,48.309182316653775,48.98993122405071,47.75236776526154,49.54446176038953,48.242248728871715,48.66832488536267,46.24623145952425,52.844826944242655,46.55035973191991,52.25212944360415,45.73908853674135,54.06994261745278,45.33733224467986,54.8225661227838,44.39817755577077,56.52986997060147,44.30602836097353,56.87443695363925,43.95459654451322,57.55092970246886,42.99569619711798,58.74860824047663,42.491797920360256,59.81235987667114,41.39297375965276,61.56282639623812,40.98202712124798,62.215922867582364,41.252084237095346,61.87603546412221,41.06661442538122,62.303703800574844,39.883715681481874,63.55014116790196,38.72485310123608,65.13580723021643,39.00676127561769,64.77299789912098,37.11304192764304,67.30445479706293,36.75351059930166,67.75746117085555,35.31618290779308,69.16973428692022,35.258336167666315,69.23654749793691,34.16536491682146,70.3553121329857,33.69457689958132,70.87657821511992,33.705731529385034,70.70007690106678,32.07173155249486,72.39458057750872,31.79905834716453,72.59240229596945,30.991202453378573,73.3143308673877,28.885115452218397,75.15937513353624,29.17211564538748,74.70535207273177,28.600636482260665,75.42529849101498,28.39150282423078,75.53158544016996,26.065471936064267,77.21895529826159,25.40510606573978,77.56430684698294,25.23567944592584,77.50075104937683,24.51770955605935,78.35946436677881,22.755531529836322,79.29155478921334,21.133626775041,80.3590973902961,22.276589709715296,79.52644869988326,21.096783367826422,80.32009298420193,18.142928490771002,81.47907740126806,18.377970536150208,81.45118814604554,17.26517534792101,81.9857489657992,17.663641797777842,82.01435195546219,15.270897244806465,82.81523850463,14.426202090612474,83.15807759598262,13.832123198564432,83.32947884514844,11.644333310397542,83.91037215059794,11.109725045732336,84.25086067223332,10.870321699394639,84.41993454730586,9.701497183246829,84.47007855836296,7.954883667477879,84.93799088666638,9.320173012813894,84.65066434405097,7.1160342062502675,85.09191277047798,5.682584987410354,85.38046667651003,5.765832194247849,85.55840160260284,4.874416952166983,85.38554858060955,3.4588137035546103,85.62019874256634,2.627193807209606,85.79153654677008,0.01863189130306342,85.97720393908575,-0.5525821626657308,85.98116520818076,-0.4747944542067013,86.05555081626689,-2.7246869067510913,86.1181409687243,-2.4636937895591373,86.1604040327889,-4.570262358162149,86.00306103844478,-4.61676929422096,85.99418807274402,-7.087294659585801,85.68779085281709,-6.075188719645954,85.79404396994441,-7.60850369066663,85.85009428271772,-8.523812849031383,85.69002077878538,-11.434065565438473,84.9556279253907,-11.070017057378314,85.12286979458047,-11.101579749302251,85.08815766609969,-13.259502236822247,84.60463046530874,-12.849803588555584,84.89252923038903,-14.605965017098235,84.29421605107859,-16.215784672948026,83.94161053837891,-15.500405327303916,83.96809762221804,-18.1135647666098,82.98875404858492,-17.396800760197827,83.42729677207883,-18.892291201072638,83.0164587215984,-19.393714194375036,82.71703828586544,-20.464082540957207,82.40892436185887,-21.682260887064853,81.88594652802861,-21.999498641798343,81.65807546510229,-24.746113081089142,79.9066754818236,-24.439879281991303,80.24024831530103,-26.741803450609197,78.82083452737047,-25.98455369119488,79.37025741818,-26.985554390847945,78.74590901337437,-27.81931860850707,77.99961802375535,-28.747122284578108,77.6630367306737,-29.61763389656304,77.03230991726971,-31.062533835883716,75.53801364798089,-31.27693430529985,75.67737893279663,-32.631641798988554,74.58231372605728,-32.00676277760307,75.0065767793774,-34.50210591491462,72.71393448800673,-34.32499876301908,72.94047834425267,-35.77827278203446,71.68720285555821,-36.70869345629188,70.37594922579883,-35.69665390754274,71.43615791925039,-36.83001547030594,70.37005782348409,-38.04330777167311,68.96935925981032,-38.978413003124274,67.69678046518284,-38.84723655527539,68.09683017526278,-40.27188134488641,66.06396964620828,-41.18310505425819,64.7098482046913,-41.13397458555701,64.88798572506137,-42.05984011160757,63.577673252955734,-43.60721468457848,60.65978258671133,-43.95901866802595,60.18014436195906,-43.91033105268899,60.59745047414155,-44.544772237177256,59.05962295999607,-44.41879076913331,59.8143693896046,-45.89938349133284,56.71307261731004,-46.513039795979196,55.32600962695008,-46.3595110229156,55.83886297193229,-47.1099816033976,54.620176700299524,-47.909511316511484,52.277403257367354,-47.69767357393273,53.325801573433296,-48.13304425984856,51.5570513203605,-49.23743163493866,48.47288434262282,-49.008587104049965,49.13585547558334,-49.832554908511995,47.75438903690373,-49.93435045451021,47.41252157203113,-50.45385002784087,45.03705584029182,-51.03872030997269,43.316856162485074,-51.26111859288008,41.884810994556965,-51.56978383073586,41.767184191888646,-51.87526749718691,39.82887702541899,-52.25300697556163,38.21258136789428,-52.46932063265443,37.9359047173973,-52.86112566864624,36.588280397040926,-52.51196198267236,37.223696794298,-53.34898931139904,33.52090958677735,-53.66454375769209,32.218234309634745,-53.376161516007045,32.911118923488566,-53.903068199996724,29.42025297812421,-54.13656929333382,29.077508371489735,-54.58959554628943,25.94200887112966,-54.72571310037529,26.045350869491443,-54.465360687917226,25.119604625677887,-54.81245962782029,24.458734122353768,-54.77921502347789,23.19247180604694,-54.75907146537634,22.21349895397666,-55.09784724441505,20.00556209042266,-55.4023461579914,16.909382148937127,-55.28737115966052,16.572720749347415,-55.45560207746826,13.687223404348948,-55.535856107236214,12.9587484238163,-55.28294603996355,12.446002927359638,-55.474506900435955,10.121032831394585,-55.296029257289334,10.845370454256603,-55.32483105450213,8.513842932565623,-55.45718831584067,7.538671347183485,-55.40511057219649,5.906227123363944,-55.18505486578307,4.241927882948162,-55.252352323299704,2.867875654508774,-55.19452279428988,-0.01723505491575139,-54.96678373822151,-1.4589940423886905,-55.10832982472036,-0.4458285470140897,-55.07985589945348,-1.7400114580350685,-54.628735678064075,-4.233586676741448,-54.64445571517142,-5.06487018273177,-54.261747409373854,-8.03720505392108,-54.36578511241139,-6.953906957863024,-53.901892401045444,-11.136551243672853,-54.048511783808294,-10.753222023135477,-53.30170186687555,-13.599255269105042,-53.83769390384168,-12.732758887024199,-53.100835522681976,-15.534387956039522,-53.44512851935956,-14.704296648488151,-53.068768552857534,-15.738250618171891,-52.37493931357257,-20.685598564060122,-51.679371691724995,-22.548121374415047,-52.250408029673196,-21.130721769857907,-51.98348139265427,-23.013936231921086,-51.06425518214199,-26.28799301371152,-51.097754095009364,-25.59193869035679,-50.80935357522689,-26.96717005442064,-49.95921494268485,-29.726751548309096,-49.92884016664824,-30.26663761757886,-49.1202425147105,-33.62252049518297,-48.622280263697974,-34.46589370417575,-48.75884932143816,-34.80462228764304,-48.60992314740831,-34.94926524275917,-47.597802142981436,-38.47460064206948,-47.33044681319565,-38.72628921575563,-47.708202393443315,-37.27201271646163,-46.771148170046914,-40.10583444806291,-46.86619363927797,-40.6457732215182,-45.263513131715484,-44.625062469504456,-45.109525280489734,-44.71802059915784,-45.31231836464427,-44.12833890616453,-44.8900782316577,-45.040469537352436,-44.77653710609917,-46.017489893847085,-43.694035664507524,-48.15905118327683,-42.47081076825671,-50.55720689061235,-42.605335897949445,-51.110392232091414,-41.71601027793142,-52.994647319862096,-41.82042645004664,-52.51720317283082,-41.26530406421021,-53.580992915482,-40.957128468112074,-53.83522713328537,-39.4656199175307,-56.911140908024265,-38.60160662333567,-58.44095400367878,-38.43949363735777,-58.810708908211964,-37.53460787413181,-60.544566977460406,-37.16381279633596,-60.64377516533739,-37.04232116251892,-61.09974725319539,-35.7648134578082,-63.53933544804043,-35.80580831166381,-63.19304105115029,-34.97131541859733,-64.79913692290586,-35.08286344451312,-64.6512577415466,-33.92877120308347,-65.70097114090497,-33.62295000182449,-66.30716163509157,-33.049330583217,-67.31877370695985,-30.97081928920564,-70.01931275478658,-30.957827129351788,-69.8665670251257,-30.57894048505528,-70.6033651741616,-30.707913267288408,-70.37068801348366,-28.31851848562408,-73.05453672764426,-28.023526641612026,-73.45030560369442,-27.614351731520635,-73.66024902633421,-26.45651615525627,-74.77307676091961,-26.102542962632686,-74.94550279574474,-26.754073876633118,-74.35669909895336,-24.68292789037309,-76.3166893545005,-24.651044631817445,-76.35631026734943,-23.539281079962027,-77.55570259318687,-22.168978336239636,-78.5032747878227,-22.182506680494367,-78.39123666885331,-21.124412871224234,-79.39695663674725,-21.237298119608585,-79.24461197980762,-19.83189867680969,-80.13137480749589,-19.496998065214274,-80.43925692539092,-19.588830420854915,-80.5765572775599,-17.74710670372853,-81.47626684140157,-16.32618238883624,-82.43393262591366,-15.896699199178169,-82.59276372743652,-15.282517601306036,-82.77339022053418,-15.346358707557478,-82.79833995852863,-15.015797473854175,-82.89912666147346,-13.183580840662298,-84.00052589302886,-13.5076403420961,-83.81780064885075,-12.320997607582486,-84.16767424664697,-10.9254610259315,-84.65602388495668,-9.635847080303597,-84.99129079027563,-9.391814975677452,-85.00645431297524,-8.71458504170448,-85.39530712652336,-8.5097423469725,-85.18848249177361,-6.828114576413105,-85.58391088147816,-5.815178662495201,-85.90046122865607,-6.518107735408481,-85.77090395429968,-5.08219702091538,-85.83094013594629,-4.008275198087492,-86.17524811266877,-3.2953573479786566,-85.99760162530033,-1.4568173003668825,-86.13658088074095,-1.7182579571361174,-86.13122164865653,-1.065531340001292,-86.07347469683093,0.33489231455685964,-85.96717693750311,0.286380222459206,-85.96992368299439,1.2691047931310206,-86.00274577385537,2.9777435559925394,-85.76953095166687,2.264508430331227,-85.91534195549677,3.3466165741126157,-85.66583686177135,4.187086118018648,-85.51867074720055,6.521397713274089,-85.11851041564194,6.523321907132977,-84.99487447255142,7.764768631345423,-84.64235313414515,7.447247203790154,-84.66848165256322,8.021565088124087,-84.46020487555647,10.155249331981564,-83.7148595934981,10.596496202963891,-83.61830205509716,10.622007713447054,-83.62555376536145,12.13829966597611,-82.79997855300542,12.391718693365819,-82.67701602980735,13.753935841722038,-82.21369824937712,14.831527464430122,-81.44551260293342,14.189311207867274,-81.8306202806516,15.210739892503504,-81.11957924159732,15.543061661975596,-80.9954989248968,17.135474762141047,-80.05836337723959,16.680321555158066,-80.44364112451863,18.63318797371305,-79.07144267028552,19.672233197996146,-78.08440479637885,20.460674695442638,-77.61590570313832,20.27787973643318,-77.82206433733516,22.28762451022728,-76.31256726942419,21.466783559979294,-76.9252522028397,23.351319845848156,-75.43117392511913,22.74298563193384,-75.75724436740789,24.220831327613787,-74.23370518240613,25.564677354737967,-73.31615967611035,25.70065404227027,-73.05008032865352,26.879798158727557,-71.87444549340847,27.887201490125996,-70.63617159406017,28.44388641218467,-70.15223866235506,29.379337547169104,-69.20752785676855,29.298362836097834,-69.15788409410862,30.77335913034253,-67.43334972792418,30.32743368495936,-67.81638256328118,31.166164413609874,-66.87522845883724,31.961077766715594,-65.69721822439288,33.214285338895024,-64.27061331016394,32.445353003797074,-65.04502556794661,34.03680941439666,-63.0020169630117,33.858325141720385,-63.01968715486892,34.53441488200555,-62.36204469236854,35.16498250652259,-61.26506863293831,36.673990581413804,-58.95141390812941,36.10470438749712,-59.86153795024171,37.1296845117177,-58.27360729854125,38.640609341835116,-55.64898941010607,38.72775537610377,-55.1802264909759,40.24313188838261,-52.953538025449795,39.908072415881776,-52.99104834379904,40.62512022249024,-52.044506226318774,40.595878574157766,-51.817083608272725,42.08285239642231,-49.05911714180956,41.85345598081206,-49.397416658459974,42.38832628239703,-48.249216802040465,43.78825647164432,-45.5133357079862,43.592945930604955,-45.89980297220352,43.35539395062217,-46.450774100736936,44.44561205670779,-44.19491413556903,45.04796257290916,-42.68859831903235,45.57465685604939,-41.06168293386788,45.254256989238996,-41.77544137143897,46.32737539470914,-38.979969425084356,47.07390532423045,-37.243149487242704,46.83228116918242,-37.890097683031044,48.40111221422262,-33.53152874791404,48.357369657388475,-33.91205230768244,48.289829682225445,-32.96763776304881,48.77910619453503,-32.03973293079365,49.337151282438285,-30.51671026176544,49.394846101279626,-29.87222587776607,50.250349866476796,-27.805969434558122,50.23415124449781,-26.3959200240347,50.555599783763896,-26.53580811732497,51.243386249582784,-23.45868759320399,51.659617363098945,-22.128623494191707,51.461705004360525,-22.211438896540955,52.40098191034919,-18.671273714907926,52.16697701237335,-19.000787226490665,52.52731859092789,-18.280426640913603,52.30146490717763,-18.311194297278263,52.62586092355437,-17.265905116232126,52.91122480195905,-15.439466196552386,53.45276516982436,-11.855327553643127,53.197863973628614,-13.816911669785936,53.51582596840164,-11.80482837131086,53.91718164960663,-9.309411786839545,53.80198252577935,-9.244884892349445,54.48118412514489,-5.591917315465709,54.49991653891952,-4.120571709922364,54.56925339195497,-4.007545770241526,54.721654525434474,-3.11627413081567,54.790461865611064,-1.6777070579491546,54.78453949255673,0.6323323873395044,54.808692725721784,-0.44620240322085003" fill="#ffc9a9" stroke="black" stroke-width="1.9566982986459316" stroke-linejoin="round" filter="url(#fuzzy)"/><g data-v-644c7455="" transform="translate(25.679169072767053 -25.74299888092438)"><polyline data-v-644c7455="" id="rightCountour" points="-25.448167272382193,-3.8733757541886105,-25.228289638365098,-4.0301954670524935,-24.98043977410188,-4.1840003703205335,-24.70482422228033,-4.33459860374424,-24.40170857251116,-4.481811008791684,-24.071415261820682,-4.62547084549753,-23.714321375143463,-4.765423509313062,-23.33085644581491,-4.901526247956219,-22.921500256064007,-5.0336478782616165,-22.48678063750588,-5.161668503030583,-22.02727127163452,-5.285479227881187,-21.54358949031534,-5.4049818780982655,-21.036394076277922,-5.520088715483458,-20.506383063608595,-5.630722155205229,-19.95429153824309,-5.736814482648903,-19.380889438459228,-5.838307570266693,-18.826281757442224,-5.9737345670853745,-18.233646170230024,-6.102652282620367,-17.604115637063444,-6.224791332975389,-16.939058220838433,-6.339922571086131,-16.240051619795274,-6.447855228437083,-15.508858786817791,-6.548435092126831,-14.747404615091506,-6.6415427170387265,-13.957753669869971,-6.7270916728738435,-13.142088946098392,-6.805026825803127,-12.302691631643759,-6.875322654495648,-11.441921855880471,-6.937981600279854,-10.562200403380778,-6.993032451194763,-9.665991372459064,-7.040528759687958,-8.75578575831915,-7.080547293717339,-7.8340859405537575,-7.113186521013497,-6.903391054745283,-7.138565126259671,-5.9661832279170115,-7.156820560946129,-5.024914657583944,-7.1681076256559475,-4.081995514152313,-7.172597084539056,-3.139782646417024,-7.170474311731471,-2.200569069906086,-7.161937969476619,-1.2665742178211894,-7.147198717705679,-0.33993493432364064,-7.12647795483381,0.5773028100853166,-7.100006589529224,1.4831915013405466,-7.068023843211979,2.375888982996355,-7.030776083039398,3.253664696067948,-6.9885156851350505,4.114905277781855,-6.941499927818177,4.958119539486217,-6.889989914590483,5.781942843971752,-6.834249526637196,6.585140902454272,-6.7745444045993075,7.36661301146963,-6.7111409593739015,8.12539474993192,-6.64430541169948,8.860660156605782,-6.574302860283188,9.57172340824376,-6.501396378226865,10.2580400186394,-6.425846137508795,10.919207578847134,-6.347908561278114,11.55496605881964,-6.267835503718737,12.165197690713702,-6.185873457239734,12.749926454115267,-6.1022627867490735,13.309317183434617,-6.017236990767614,13.843674317722614,-5.931021989140277,14.353440313158691,-5.843835437101301,14.839193738461569,-5.755886065450483,15.301647073473573,-5.6673730465973176,15.74164423116927,-5.578485386229937,16.160157823339496,-5.48940134036578,16.558286190201358,-5.400287857540871,16.937250214185347,-5.311300045894628,17.29838993815028,-5.222580664907131,17.64184127380709,-5.133924267864596,17.967083081759135,-5.045092719549912,18.27457359839991,-4.956166857564124,18.564790914458946,-4.867223099028572,18.838230262833463,-4.778333473141786,19.095401306419923,-4.689565653736395,19.336825425945754,-4.6009829918360285,19.563033007800904,-4.512644548212215,19.77456073186947,-4.4246051259412935,19.971948859361376,-4.336915302961311,20.155738520643922,-4.24962146462892,20.3264690030735,-4.162765836276296,20.48467503882712,-4.076386515768024,20.630884092734128,-3.990517506058015,17.518617376728898,0.5441740801566155,17.20905205248109,0.7304570138307858,16.89099089781621,0.9193244238466374,16.564364499101664,1.1106012327194623,16.229113453103054,1.3040945049286874,15.885188197481318,1.4995940690584737,15.53254884128996,1.6968731399382984,15.17116499547218,1.8956889407835638,14.801015603358115,2.0957833253361695,14.422088771161961,2.2968834000051297,14.034381598479213,2.498702146007144,13.637900008783808,2.700939041507204,13.232658579925337,2.903280683759176,12.818680374626195,3.105401411246402,12.395996770978803,3.306963925822295,11.963655594709442,3.5087596736618663,11.520604810991872,3.711404257939429,11.066753288833736,3.9142726950736417,10.602038133142196,4.116721198815529,10.126424701544057,4.318089659382906,9.639906582462238,4.517704164084752,9.142505535714083,4.714879554790167,8.634271396897137,4.9089220175965895,8.115281946828112,5.099131700051997,7.585642747300495,5.284805351285732,7.045486944426596,5.4652389804026935,6.494975040829548,5.639730528495482,5.934294637950883,5.807582549629293,5.363660149739356,5.968104896154172,4.783312488986613,6.12061740369931,4.193518727575311,6.26445257120413,3.5945717319053196,6.398958231340767,2.9867897747636345,6.5235002066826695,2.3705161249036344,6.637464946974005,1.746118615599241,6.74026214285456,1.1139891934397,6.831327311394755,0.47454344863050757,6.910124348795579,-0.17177987193381572,6.976148045607982,-0.8245193675595552,7.028926559826537,-1.4831915013405466,7.068023843211979,-2.1472911311762704,7.093042016197327,-2.8162920529556352,7.103623686732261,-3.489647554640865,7.099454208420477,-4.166790979985826,7.080263873304656,-4.847136300623208,7.045830034653742,-5.530078695254936,6.995979155107225,-6.214995134680158,6.9305887755311435,-6.901244971395233,6.849589399940378,-7.588170532500075,6.752966291842075,-8.27509771464521,6.64076117735476,-8.961336579753992,6.513073850457873,-9.64618195025427,6.3700636757264135,-10.32891400255396,6.21195098390538,-11.008798857494845,6.0390183556786425,-11.685089166519038,5.85161178898702,-12.357024692282419,5.650141745250142,-13.0238328824495,5.435084069846869,-13.684729435404021,5.2069807822088805,-14.338918856609721,4.9664407308821925,-14.985595004355625,4.714140108911195,-15.623941623620238,4.450822824899996,-16.25313286678903,4.1773007251056455,-16.872333799959563,3.894453661918039,-17.48070089356868,3.6032294040810777,-18.077382496076137,3.3046433840098466,-18.59756324373067,3.080310733392177,-19.108745316038913,2.8512221732287513,-19.61027677901192,2.6178395333091258,-20.10148335963916,2.380649099360899,-20.581668104490156,2.140162043924219,-21.050111038316167,1.8969148572263066,-21.50606882265182,1.651469778055973,-21.948774414416825,1.4044152246381376,-22.3774367245176,1.156366225508342,-22.791240276448917,0.9079648503872715,-23.189344864895617,0.6598806410552758,-23.57088521433424,0.4128110422268749,-23.934970637634663,0.16748183242529358,-24.280684694661808,-0.07535244514303319,-24.6070848508773,-0.3149080517139371" fill="white" stroke="white" stroke-width="0" stroke-linejoin="round" filter="url(#fuzzy)"/></g><g data-v-644c7455="" transform="translate(-22.212145346541856 -26.77293391229806)"><polyline data-v-644c7455="" id="leftCountour" points="23.638539927480487,-3.405301180883185,23.434550388715454,-3.6786492967379427,23.19964862738046,-3.9412750715592706,22.934364724688997,-4.193456309964424,22.63927103816683,-4.4354639738798,22.314980381013086,-4.6675622971943795,21.962144201461395,-4.89000890041318,21.58145076214101,-5.103054905310709,21.1736233194379,-5.306945049584406,20.73941830285591,-5.501917801508098,20.27962349437785,-5.688205474585451,19.795056207826615,-5.866034342203415,19.28656146822632,-6.0356247522856785,18.75501019116341,-6.197191241946117,18.201297362147777,-6.350942652142241,17.626340215973883,-6.497082242328653,17.050162735368325,-6.662707874875569,16.437904851053876,-6.820451656980653,15.790886411860619,-6.970290886416836,15.11062666475815,-7.112213010072932,14.398821288714414,-7.2462158308060385,13.657320426034504,-7.372307671583646,12.888107692495943,-7.490507498158976,12.093280147596879,-7.600845001523093,11.275029206233594,-7.7033606413772855,10.435622473123878,-7.798105651869272,9.577386481292589,-7.88514201083675,8.70269031593598,-7.964542373801805,7.813930104981134,-8.036389973959707,6.913514357657031,-8.100778489405656,6.003850132393647,-8.157811878842923,5.08733001536556,-8.20760418701603,4.166319890996513,-8.250279321112368,3.2431474857413853,-8.285970799375882,2.320091666461987,-8.314821473176295,1.3993724747131853,-8.336983223777407,0.4831418782557586,-8.352616635048012,-0.42652477888754614,-8.361890643358945,-1.3276366465162948,-8.364982165909776,-2.2182945771605658,-8.362075708728707,-3.096697692496601,-8.35336295558918,-3.9611493259534347,-8.339042339086706,-4.810062360194111,-8.319318595119489,-5.64196397815498,-8.294402302016314,-6.455499846326667,-8.26450940555528,-7.249437748960219,-8.229860731116858,-8.022670691882041,-8.190681484214831,-8.774219494601098,-8.147200740648639,-9.503234889392024,-8.099650927520631,-10.208999146037572,-8.048267296361796,-10.890927240914086,-7.9932873896094465,-11.54856758910344,-7.9349505016804205,-12.181602358215045,-7.873497135883325,-12.789847382601454,-7.809168458413312,-13.373251696651167,-7.742205750672973,-13.931896705842078,-7.672849861162808,-14.465995014239251,-7.601340658184875,-14.975888927120444,-7.527916484603061,-15.462048647413035,-7.452813615903586,-15.925070184625863,-7.376265722799191,-16.365672994959485,-7.298503339620598,-16.78469737127849,-7.219753339738718,-17.183101601629357,-7.1402384192611805,-17.561958914987425,-7.060176590246666,-17.922454232916525,-6.979780684680607,-18.26588074582484,-6.899257870455757,-18.59238903847058,-6.818372917699931,-18.90150546780903,-6.736826831952783,-19.19368048223565,-6.654724239590904,-19.469381904336238,-6.572166483505057,-19.72909242862577,-6.489251456556424,-19.973307119287107,-6.4060734350328765,-20.202530907909825,-6.322722912105221,-20.417276091228985,-6.239286431283466,-20.61805982886388,-6.155846419873075,-20.805401641056868,-6.07248102243123,-20.979820906412076,-5.98926393422308,-21.141834359634256,-5.90626423467801,-21.29195358926752,-5.82354622084589,-21.430682535434105,-5.741169240853342,-17.43386828817404,-0.7796130302420066,-17.08659617707393,-0.5675911510791831,-16.730116527350322,-0.3512161428825227,-16.364383526368705,-0.13058367389585257,-15.989364813440126,0.09419217609784347,-15.60504127074752,0.3229788421482178,-15.211406814272124,0.5556252005093736,-14.80846818471975,0.7919614950116642,-14.39624473844724,1.0317992634334985,-13.97476823838873,1.2749312638731505,-13.54408264498208,1.5211314011205506,-13.104243907095203,1.7701546530291132,-12.655319752952408,2.021736996887512,-12.197389481060776,2.2755953357915137,-11.73054375113653,2.5314274250157665,-11.253699534207724,2.7898662199333124,-10.76569431300589,3.0514769465189246,-10.26653499045709,3.315799994389435,-9.75626433265539,3.582322378873396,-9.23496061832127,3.8504800540844215,-8.70273723458033,4.119660330550911,-8.159742220623322,4.389204397951826,-7.606157760808603,4.6584099535084,-7.042199628768088,4.9265339365814285,-6.468116584077787,5.19279537002393,-5.884189723054009,5.456378308839003,-5.29073178523633,5.716434896692499,-4.688086417118393,5.972088530830414,-4.076627394687611,6.222437135950637,-3.4567578063348954,6.466556547578925,-2.828909197695447,6.70350400549874,-2.1935406799817416,6.932321757784802,-1.5511380033697302,7.152040775990066,-0.9022125969994175,7.361684582035913,-0.24730057715081744,7.560273187355261,0.41303827484355304,7.746827144838413,1.078221563388635,7.920371714131372,1.747645356558081,8.07994114083636,2.4206852896057933,8.224583050164314,3.0966976924966008,8.35336295558918,3.7750207398950386,8.465368883053607,4.454975622051112,8.559716111275977,5.135867735021995,8.635552028708391,5.816987888668536,8.692061107695459,6.497613530865548,8.728469996383598,7.177009986364729,8.744052728930582,7.854431708749198,8.73813605456521,8.529123543918507,8.710104886046677,9.20032200354309,8.65940786807355,9.867256546927031,8.585563066192073,10.529150869718094,8.488163776753465,11.185224197903914,8.366884458470128,11.834692585533272,8.221486786120378,12.476770214601377,8.051825826951529,13.110670695538065,7.857856340331098,13.735608366737829,7.639639201195834,14.350799591570603,7.3973479478483615,14.955464051312212,7.131275454651201,15.548826032433428,6.84184073016792,16.130115706686475,6.529595841301138,16.698570402428025,6.195232963977208,17.25343586561747,5.839591560927261,17.79396750892948,5.463665687114437,18.31943164741972,5.068611423356986,18.829106719182647,4.655754438697082,19.28076105686555,4.37449496543487,19.72021401227252,4.08346211640905,20.146812788034257,3.7832824208944817,20.559885833144747,3.474635058113442,20.958742612345,3.1582532691123344,21.342673375506685,2.834925768638393,21.71094892701588,2.505498157016393,22.06282039515676,2.170874332025363,22.39751900149527,1.8320179007752815,22.714255830262843,1.4899535915838005,23.0122215977401,1.1457686658529393,23.290586421640537,0.8006143299458,23.548499590494234,0.4557071470632774,23.785089333031536,0.11233044912076284,23.999462587566764,-0.2281642513751425" fill="white" stroke="white" stroke-width="0" stroke-linejoin="round" filter="url(#fuzzy)"/></g><g data-v-644c7455="" transform="translate(25.679169072767053 -25.74299888092438)"><polyline data-v-644c7455="" id="rightUpper" points="-26.109653521328788,-2.1912219460292928,-26.166295066796287,-2.3646406113120353,-26.196630427519302,-2.537723956888266,-26.200154704051783,-2.710137532095497,-26.176444038944155,-2.8815624194875076,-26.12515341723595,-3.0516949516843725,-26.046014466948492,-3.220246428222494,-25.938833259577493,-3.386942832404628,-25.803488110585725,-3.551524548149914,-25.63992737989568,-3.7137460768439086,-25.448167272382193,-3.8733757541886105,-25.228289638365098,-4.0301954670524935,-24.98043977410188,-4.1840003703205335,-24.70482422228033,-4.33459860374424,-24.40170857251116,-4.481811008791684,-24.071415261820682,-4.62547084549753,-23.714321375143463,-4.765423509313062,-23.33085644581491,-4.901526247956219,-22.921500256064007,-5.0336478782616165,-22.48678063750588,-5.161668503030583,-22.02727127163452,-5.285479227881187,-21.54358949031534,-5.4049818780982655,-21.036394076277922,-5.520088715483458,-20.506383063608595,-5.630722155205229,-19.95429153824309,-5.736814482648903,-19.380889438459228,-5.838307570266693,-18.826281757442224,-5.9737345670853745,-18.233646170230024,-6.102652282620367,-17.604115637063444,-6.224791332975389,-16.939058220838433,-6.339922571086131,-16.240051619795274,-6.447855228437083,-15.508858786817791,-6.548435092126831,-14.747404615091506,-6.6415427170387265,-13.957753669869971,-6.7270916728738435,-13.142088946098392,-6.805026825803127,-12.302691631643759,-6.875322654495648,-11.441921855880471,-6.937981600279854,-10.562200403380778,-6.993032451194763,-9.665991372459064,-7.040528759687958,-8.75578575831915,-7.080547293717339,-7.8340859405537575,-7.113186521013497,-6.903391054745283,-7.138565126259671,-5.9661832279170115,-7.156820560946129,-5.024914657583944,-7.1681076256559475,-4.081995514152313,-7.172597084539056,-3.139782646417024,-7.170474311731471,-2.200569069906086,-7.161937969476619,-1.2665742178211894,-7.147198717705679,-0.33993493432364064,-7.12647795483381,0.5773028100853166,-7.100006589529224,1.4831915013405466,-7.068023843211979,2.375888982996355,-7.030776083039398,3.253664696067948,-6.9885156851350505,4.114905277781855,-6.941499927818177,4.958119539486217,-6.889989914590483,5.781942843971752,-6.834249526637196,6.585140902454272,-6.7745444045993075,7.36661301146963,-6.7111409593739015,8.12539474993192,-6.64430541169948,8.860660156605782,-6.574302860283188,9.57172340824376,-6.501396378226865,10.2580400186394,-6.425846137508795,10.919207578847134,-6.347908561278114,11.55496605881964,-6.267835503718737,12.165197690713702,-6.185873457239734,12.749926454115267,-6.1022627867490735,13.309317183434617,-6.017236990767614,13.843674317722614,-5.931021989140277,14.353440313158691,-5.843835437101301,14.839193738461569,-5.755886065450483,15.301647073473573,-5.6673730465973176,15.74164423116927,-5.578485386229937,16.160157823339496,-5.48940134036578,16.558286190201358,-5.400287857540871,16.937250214185347,-5.311300045894628,17.29838993815028,-5.222580664907131,17.64184127380709,-5.133924267864596,17.967083081759135,-5.045092719549912,18.27457359839991,-4.956166857564124,18.564790914458946,-4.867223099028572,18.838230262833463,-4.778333473141786,19.095401306419923,-4.689565653736395,19.336825425945754,-4.6009829918360285,19.563033007800904,-4.512644548212215,19.77456073186947,-4.4246051259412935,19.971948859361376,-4.336915302961311,20.155738520643922,-4.24962146462892,20.3264690030735,-4.162765836276296,20.48467503882712,-4.076386515768024,20.630884092734128,-3.990517506058015,20.76561365010774,-3.9051887477464,20.889368504576773,-3.8204261516364353,21.002638045917166,-3.7362516312914074,21.10589354788368,-3.652683135591534,21.199585456041476,-3.5697346812908677,21.28414067559777,-3.487416385574197,21.359959859233463,-3.405734498613952,21.427414694934733,-3.324691436127106,21.486845193824664,-3.2442858119320777,21.538556977994922,-3.1645124705056347" fill="none" stroke="black" stroke-width="1.9566982986459316" stroke-linejoin="round" stroke-linecap="round" filter="url(#fuzzy)"/><polyline data-v-644c7455="" id="rightLower" points="-26.582123292105457,-2.3359772498847624,-26.506686412157926,-2.1790450832985995,-26.40099998619843,-2.009296310004153,-26.26628626970706,-1.8278303224413919,-26.103738009777175,-1.6357130087473744,-25.914518786513817,-1.4339771836307662,-25.699763354432022,-1.2236230192463577,-25.460577983855117,-1.0056184760695839,-25.198040802313145,-0.780899733771041,-24.913202135941084,-0.5503716220910011,-24.6070848508773,-0.3149080517139371,-24.280684694661808,-0.07535244514303319,-23.934970637634663,0.16748183242529358,-23.57088521433424,0.4128110422268749,-23.189344864895617,0.6598806410552758,-22.791240276448917,0.9079648503872715,-22.3774367245176,1.156366225508342,-21.948774414416825,1.4044152246381376,-21.50606882265182,1.651469778055973,-21.050111038316167,1.8969148572263066,-20.581668104490156,2.140162043924219,-20.10148335963916,2.380649099360899,-19.61027677901192,2.6178395333091258,-19.108745316038913,2.8512221732287513,-18.59756324373067,3.080310733392177,-18.077382496076137,3.3046433840098466,-17.48070089356868,3.6032294040810777,-16.872333799959563,3.894453661918039,-16.25313286678903,4.1773007251056455,-15.623941623620238,4.450822824899996,-14.985595004355625,4.714140108911195,-14.338918856609721,4.9664407308821925,-13.684729435404021,5.2069807822088805,-13.0238328824495,5.435084069846869,-12.357024692282419,5.650141745250142,-11.685089166519038,5.85161178898702,-11.008798857494845,6.0390183556786425,-10.32891400255396,6.21195098390538,-9.64618195025427,6.3700636757264135,-8.961336579753992,6.513073850457873,-8.27509771464521,6.64076117735476,-7.588170532500075,6.752966291842075,-6.901244971395233,6.849589399940378,-6.214995134680158,6.9305887755311435,-5.530078695254936,6.995979155107225,-4.847136300623208,7.045830034653742,-4.166790979985826,7.080263873304656,-3.489647554640865,7.099454208420477,-2.8162920529556352,7.103623686732261,-2.1472911311762704,7.093042016197327,-1.4831915013405466,7.068023843211979,-0.8245193675595552,7.028926559826537,-0.17177987193381572,6.976148045607982,0.47454344863050757,6.910124348795579,1.1139891934397,6.831327311394755,1.746118615599241,6.74026214285456,2.3705161249036344,6.637464946974005,2.9867897747636345,6.5235002066826695,3.5945717319053196,6.398958231340767,4.193518727575311,6.26445257120413,4.783312488986613,6.12061740369931,5.363660149739356,5.968104896154172,5.934294637950883,5.807582549629293,6.494975040829548,5.639730528495482,7.045486944426596,5.4652389804026935,7.585642747300495,5.284805351285732,8.115281946828112,5.099131700051997,8.634271396897137,4.9089220175965895,9.142505535714083,4.714879554790167,9.639906582462238,4.517704164084752,10.126424701544057,4.318089659382906,10.602038133142196,4.116721198815529,11.066753288833736,3.9142726950736417,11.520604810991872,3.711404257939429,11.963655594709442,3.5087596736618663,12.395996770978803,3.306963925822295,12.818680374626195,3.105401411246402,13.232658579925337,2.903280683759176,13.637900008783808,2.700939041507204,14.034381598479213,2.498702146007144,14.422088771161961,2.2968834000051297,14.801015603358115,2.0957833253361695,15.17116499547218,1.8956889407835638,15.53254884128996,1.6968731399382984,15.885188197481318,1.4995940690584737,16.229113453103054,1.3040945049286874,16.564364499101664,1.1106012327194623,16.89099089781621,0.9193244238466374,17.20905205248109,0.7304570138307858,17.518617376728898,0.5441740801566155,17.819766464093192,0.3606322201323793,18.112589257511367,0.17996892874928294,18.39718621882743,0.002301976540888706,18.67366849829481,-0.1722712125574719,18.942158104079233,-0.3436741833492971,19.202788071761468,-0.5118520715175077,19.455702633840197,-0.6767722257650299,19.70105738923479,-0.8384248299554025,19.939019472788146,-0.9968235252533582,20.169767724769528,-1.1520060322654229" fill="none" stroke="black" stroke-width="1.9566982986459316" stroke-linejoin="round" stroke-linecap="round" filter="url(#fuzzy)"/><circle data-v-644c7455="" r="4.5300489535937825" cx="2.1779487663910864" cy="-4.0373653502587015" stroke="black" fill="none" stroke-width="1.2695491642678693" filter="url(#fuzzy)" clip-path="url(#rightEyeClipPath)"/><circle data-v-644c7455="" r="4.88367792844606" cx="-0.8430821018409611" cy="-6.057854914761252" stroke="black" fill="none" stroke-width="1.3646241732441968" filter="url(#fuzzy)" clip-path="url(#rightEyeClipPath)"/><circle data-v-644c7455="" r="3.860605696852064" cx="3.8764343470342553" cy="-3.786538648021078" stroke="black" fill="none" stroke-width="1.343094998210093" filter="url(#fuzzy)" clip-path="url(#rightEyeClipPath)"/><circle data-v-644c7455="" r="3.7157312098072977" cx="3.1774280021705996" cy="-2.3353900771321925" stroke="black" fill="none" stroke-width="1.0620944031411754" filter="url(#fuzzy)" clip-path="url(#rightEyeClipPath)"/><circle data-v-644c7455="" r="3.4823310065340918" cx="3.465436241760427" cy="-4.811259014197924" stroke="black" fill="none" stroke-width="1.0718335356293625" filter="url(#fuzzy)" clip-path="url(#rightEyeClipPath)"/><circle data-v-644c7455="" r="3.1338349095777542" cx="2.286365673138728" cy="-2.9463675211711235" stroke="black" fill="none" stroke-width="1.481396467391612" filter="url(#fuzzy)" clip-path="url(#rightEyeClipPath)"/><circle data-v-644c7455="" r="4.913901059912173" cx="2.9389126612869223" cy="-3.4179251524979275" stroke="black" fill="none" stroke-width="1.446262771391254" filter="url(#fuzzy)" clip-path="url(#rightEyeClipPath)"/><circle data-v-644c7455="" r="3.27129745823033" cx="2.1349333882457344" cy="-4.630508901259624" stroke="black" fill="none" stroke-width="1.0372229116267828" filter="url(#fuzzy)" clip-path="url(#rightEyeClipPath)"/><circle data-v-644c7455="" r="4.778802381805789" cx="-0.5781535166625511" cy="-3.093222794668133" stroke="black" fill="none" stroke-width="1.1218733780805366" filter="url(#fuzzy)" clip-path="url(#rightEyeClipPath)"/><circle data-v-644c7455="" r="3.519328514229909" cx="-0.30033002330503056" cy="-5.7243881480082575" stroke="black" fill="none" stroke-width="1.0046803016685513" filter="url(#fuzzy)" clip-path="url(#rightEyeClipPath)"/></g><g data-v-644c7455="" transform="translate(-22.212145346541856 -26.77293391229806)"><polyline data-v-644c7455="" id="leftUpper" points="23.895517689119384,-0.015852189525200622,24.019202297299195,-0.4132903388703575,24.109399608502184,-0.7968265292529679,24.166116805680794,-1.1668132981386865,24.189421554488536,-1.5235951937677958,24.179440182641116,-1.8675088898086676,24.136355859277554,-2.1988833000112105,24.060406774321287,-2.518039692860317,23.951884317841284,-2.8252918062293157,23.81113125941321,-3.1209459620334226,23.638539927480487,-3.405301180883185,23.434550388715454,-3.6786492967379427,23.19964862738046,-3.9412750715592706,22.934364724688997,-4.193456309964424,22.63927103816683,-4.4354639738798,22.314980381013086,-4.6675622971943795,21.962144201461395,-4.89000890041318,21.58145076214101,-5.103054905310709,21.1736233194379,-5.306945049584406,20.73941830285591,-5.501917801508098,20.27962349437785,-5.688205474585451,19.795056207826615,-5.866034342203415,19.28656146822632,-6.0356247522856785,18.75501019116341,-6.197191241946117,18.201297362147777,-6.350942652142241,17.626340215973883,-6.497082242328653,17.050162735368325,-6.662707874875569,16.437904851053876,-6.820451656980653,15.790886411860619,-6.970290886416836,15.11062666475815,-7.112213010072932,14.398821288714414,-7.2462158308060385,13.657320426034504,-7.372307671583646,12.888107692495943,-7.490507498158976,12.093280147596879,-7.600845001523093,11.275029206233594,-7.7033606413772855,10.435622473123878,-7.798105651869272,9.577386481292589,-7.88514201083675,8.70269031593598,-7.964542373801805,7.813930104981134,-8.036389973959707,6.913514357657031,-8.100778489405656,6.003850132393647,-8.157811878842923,5.08733001536556,-8.20760418701603,4.166319890996513,-8.250279321112368,3.2431474857413853,-8.285970799375882,2.320091666461987,-8.314821473176295,1.3993724747131853,-8.336983223777407,0.4831418782557586,-8.352616635048012,-0.42652477888754614,-8.361890643358945,-1.3276366465162948,-8.364982165909776,-2.2182945771605658,-8.362075708728707,-3.096697692496601,-8.35336295558918,-3.9611493259534347,-8.339042339086706,-4.810062360194111,-8.319318595119489,-5.64196397815498,-8.294402302016314,-6.455499846326667,-8.26450940555528,-7.249437748960219,-8.229860731116858,-8.022670691882041,-8.190681484214831,-8.774219494601098,-8.147200740648639,-9.503234889392024,-8.099650927520631,-10.208999146037572,-8.048267296361796,-10.890927240914086,-7.9932873896094465,-11.54856758910344,-7.9349505016804205,-12.181602358215045,-7.873497135883325,-12.789847382601454,-7.809168458413312,-13.373251696651167,-7.742205750672973,-13.931896705842078,-7.672849861162808,-14.465995014239251,-7.601340658184875,-14.975888927120444,-7.527916484603061,-15.462048647413035,-7.452813615903586,-15.925070184625863,-7.376265722799191,-16.365672994959485,-7.298503339620598,-16.78469737127849,-7.219753339738718,-17.183101601629357,-7.1402384192611805,-17.561958914987425,-7.060176590246666,-17.922454232916525,-6.979780684680607,-18.26588074582484,-6.899257870455757,-18.59238903847058,-6.818372917699931,-18.90150546780903,-6.736826831952783,-19.19368048223565,-6.654724239590904,-19.469381904336238,-6.572166483505057,-19.72909242862577,-6.489251456556424,-19.973307119287107,-6.4060734350328765,-20.202530907909825,-6.322722912105221,-20.417276091228985,-6.239286431283466,-20.61805982886388,-6.155846419873075,-20.805401641056868,-6.07248102243123,-20.979820906412076,-5.98926393422308,-21.141834359634256,-5.90626423467801,-21.29195358926752,-5.82354622084589,-21.430682535434105,-5.741169240853342,-21.558514987573197,-5.659187527359986,-21.67593208217967,-5.577650031014711,-21.783399800542878,-5.496600253911922,-21.881366466485453,-5.416076083047807,-21.97026024410203,-5.336109623776589,-22.05048663549808,-5.256727033266784,-22.12242597852867,-5.177948353957463,-22.18643094453723,-5.099787347014509,-22.242824036094323,-5.02225132578687,-22.29189508473648,-4.945340989262824" fill="none" stroke="black" stroke-width="1.9566982986459316" stroke-linejoin="round" filter="url(#fuzzy)"/><polyline data-v-644c7455="" id="leftLower" points="24.709130380661108,-3.1256929454366196,24.770889181040502,-2.9043606291815114,24.80027916809316,-2.6625706450216455,24.798418991561643,-2.4024339645946378,24.76640370460945,-2.1259792601798155,24.705304994437345,-1.835154316574922,24.616171412899657,-1.5318274429728338,24.50002860712055,-1.21778888483826,24.35787955011038,-0.8947522357844555,24.19070477138192,-0.5643558494499272,23.999462587566764,-0.2281642513751425,23.785089333031536,0.11233044912076284,23.548499590494234,0.4557071470632774,23.290586421640537,0.8006143299458,23.0122215977401,1.1457686658529393,22.714255830262843,1.4899535915838005,22.39751900149527,1.8320179007752815,22.06282039515676,2.170874332025363,21.71094892701588,2.505498157016393,21.342673375506685,2.834925768638393,20.958742612345,3.1582532691123344,20.559885833144747,3.474635058113442,20.146812788034257,3.7832824208944817,19.72021401227252,4.08346211640905,19.28076105686555,4.37449496543487,18.829106719182647,4.655754438697082,18.31943164741972,5.068611423356986,17.79396750892948,5.463665687114437,17.25343586561747,5.839591560927261,16.698570402428025,6.195232963977208,16.130115706686475,6.529595841301138,15.548826032433428,6.84184073016792,14.955464051312212,7.131275454651201,14.350799591570603,7.3973479478483615,13.735608366737829,7.639639201195834,13.110670695538065,7.857856340331098,12.476770214601377,8.051825826951529,11.834692585533272,8.221486786120378,11.185224197903914,8.366884458470128,10.529150869718094,8.488163776753465,9.867256546927031,8.585563066192073,9.20032200354309,8.65940786807355,8.529123543918507,8.710104886046677,7.854431708749198,8.73813605456521,7.177009986364729,8.744052728930582,6.497613530865548,8.728469996383598,5.816987888668536,8.692061107695459,5.135867735021995,8.635552028708391,4.454975622051112,8.559716111275977,3.7750207398950386,8.465368883053607,3.0966976924966008,8.35336295558918,2.4206852896057933,8.224583050164314,1.747645356558081,8.07994114083636,1.078221563388635,7.920371714131372,0.41303827484355304,7.746827144838413,-0.24730057715081744,7.560273187355261,-0.9022125969994175,7.361684582035913,-1.5511380033697302,7.152040775990066,-2.1935406799817416,6.932321757784802,-2.828909197695447,6.70350400549874,-3.4567578063348954,6.466556547578925,-4.076627394687611,6.222437135950637,-4.688086417118393,5.972088530830414,-5.29073178523633,5.716434896692499,-5.884189723054009,5.456378308839003,-6.468116584077787,5.19279537002393,-7.042199628768088,4.9265339365814285,-7.606157760808603,4.6584099535084,-8.159742220623322,4.389204397951826,-8.70273723458033,4.119660330550911,-9.23496061832127,3.8504800540844215,-9.75626433265539,3.582322378873396,-10.26653499045709,3.315799994389435,-10.76569431300589,3.0514769465189246,-11.253699534207724,2.7898662199333124,-11.73054375113653,2.5314274250157665,-12.197389481060776,2.2755953357915137,-12.655319752952408,2.021736996887512,-13.104243907095203,1.7701546530291132,-13.54408264498208,1.5211314011205506,-13.97476823838873,1.2749312638731505,-14.39624473844724,1.0317992634334985,-14.80846818471975,0.7919614950116642,-15.211406814272124,0.5556252005093736,-15.60504127074752,0.3229788421482178,-15.989364813440126,0.09419217609784347,-16.364383526368705,-0.13058367389585257,-16.730116527350322,-0.3512161428825227,-17.08659617707393,-0.5675911510791831,-17.43386828817404,-0.7796130302420066,-17.77199233430435,-0.987204450038139,-18.1010416592114,-1.1903063444174968,-18.421103685808202,-1.3888778379845732,-18.732280125247893,-1.582896172370241,-19.034687185997367,-1.7723566326035622,-19.328455782910925,-1.957272473483592,-19.613731746303923,-2.1376748459511794,-19.890676031026395,-2.313612723460774,-20.159464925536703,-2.48515282835223,-20.420290260975204,-2.652379558222614" fill="none" stroke="black" stroke-width="1.9566982986459316" stroke-linejoin="round" filter="url(#fuzzy)"/><circle data-v-644c7455="" r="3.6715836756430082" cx="3.531612772266694" cy="-2.6183007672332956" stroke="black" fill="none" stroke-width="1.0629251490990708" filter="url(#fuzzy)" clip-path="url(#leftEyeClipPath)"/><circle data-v-644c7455="" r="3.7752022835578543" cx="3.680491810529835" cy="0.5080162854101444" stroke="black" fill="none" stroke-width="1.3955316476633637" filter="url(#fuzzy)" clip-path="url(#leftEyeClipPath)"/><circle data-v-644c7455="" r="4.053318894141655" cx="2.2163750596619387" cy="-1.0363221167641044" stroke="black" fill="none" stroke-width="1.2246267536445874" filter="url(#fuzzy)" clip-path="url(#leftEyeClipPath)"/><circle data-v-644c7455="" r="4.390256249425067" cx="1.527337850224317" cy="-3.421127572983722" stroke="black" fill="none" stroke-width="1.3928254092799353" filter="url(#fuzzy)" clip-path="url(#leftEyeClipPath)"/><circle data-v-644c7455="" r="3.281243513418916" cx="3.0397483061912034" cy="-1.4848216621336339" stroke="black" fill="none" stroke-width="1.0886287717015573" filter="url(#fuzzy)" clip-path="url(#leftEyeClipPath)"/><circle data-v-644c7455="" r="4.729833473357619" cx="-0.10549542226397968" cy="-1.0989338919568525" stroke="black" fill="none" stroke-width="1.1231038362847303" filter="url(#fuzzy)" clip-path="url(#leftEyeClipPath)"/><circle data-v-644c7455="" r="4.084663671900021" cx="2.408636407123236" cy="-0.12739457840098778" stroke="black" fill="none" stroke-width="1.093722546409684" filter="url(#fuzzy)" clip-path="url(#leftEyeClipPath)"/><circle data-v-644c7455="" r="3.1023144503457494" cx="2.1931734342455" cy="0.2222730244518485" stroke="black" fill="none" stroke-width="1.215084717937145" filter="url(#fuzzy)" clip-path="url(#leftEyeClipPath)"/><circle data-v-644c7455="" r="3.976344301088181" cx="2.715011013005717" cy="0.7648734373374535" stroke="black" fill="none" stroke-width="1.3005936108821106" filter="url(#fuzzy)" clip-path="url(#leftEyeClipPath)"/><circle data-v-644c7455="" r="4.345261050192057" cx="1.9105383594695766" cy="-2.4287574490070005" stroke="black" fill="none" stroke-width="1.0409600829686303" filter="url(#fuzzy)" clip-path="url(#leftEyeClipPath)"/></g><g data-v-644c7455="" id="hairs"><polyline data-v-644c7455="" points="15.210739892503504,-81.11957924159732,15.841086576481585,-80.78701572478958,16.68453736618728,-80.27442839996121,17.61628209870532,-79.64547270150517,18.591491336755613,-78.94489172755954,19.524371445750152,-78.25810387507565,20.34582008056135,-77.6517484445358,21.02813124982995,-77.15015390040703,21.571034128084115,-76.74837488081556,21.98097805428148,-76.43338253463051,22.259083542181166,-76.19880586070718,22.395256128948287,-76.05329808477622,22.361801924137026,-76.02610584573553,22.106942571550825,-76.16885103893274,21.558935949506576,-76.5466287924155,20.654402367166274,-77.21123984882773,19.383703771398356,-78.16471463276444,17.774517313343026,-79.3705118831252" fill="none" stroke="rgb(128, 128, 128)" stroke-width="0.8217281035188346" stroke-linejoin="round" filter="url(#fuzzy)"/><polyline data-v-644c7455="" points="-15.346358707557478,-82.79833995852863,-14.70481219877426,-83.11596995795122,-13.964938268564003,-83.47865125534015,-13.273373399125212,-83.74137619245447,-12.612444602049667,-83.91813928479246,-12.027046447010335,-84.01125234743286,-11.581593449773152,-84.00562979036148,-11.311903414930532,-83.88662350430896,-11.221823299941363,-83.64699461347803,-11.303556612508466,-83.28326185789234,-11.554625451837325,-82.78929782341201,-11.9809252402817,-82.15392843856422,-12.59113895565267,-81.3644934404995,-13.39258348192862,-80.413002149348,-14.393149077221157,-79.29926648839051,-15.606053246296094,-78.0277312133533,-17.051222514294512,-76.59967993132662,-18.75092817279465,-75.00638471495984,-20.72315816928069,-73.22910275608008,-22.97798029662666,-71.2483786127445,-25.51885943631175,-69.05831627544387,-28.348728329134676,-66.67153972783942,-31.48239445822735,-64.09554228328416,-34.943946283818185,-61.30485427708672" fill="none" stroke="rgb(128, 128, 128)" stroke-width="1.3068175318088022" stroke-linejoin="round" filter="url(#fuzzy)"/><polyline data-v-644c7455="" points="38.72775537610377,-55.1802264909759,39.58488249881018,-53.81142611776006,39.87515243492544,-53.20243526438607,39.959683859870076,-52.86247689817205,39.90587712555086,-52.67837138324678,39.685200754494595,-52.693693209972196,39.253097732759116,-52.9871362064146,38.568566740543524,-53.63093405575017,37.59300354972537,-54.6842162464703,36.29375701362612,-56.18190214952223,34.64834516200122,-58.12770355826732,32.633439316801855,-60.51971180913031,30.204432999358907,-63.398322368014234,27.302592038745185,-66.85256942395377,23.913732711977904,-70.93654537214437,20.08672386818705,-75.59532171371745" fill="none" stroke="rgb(128, 128, 128)" stroke-width="0.8986011011828977" stroke-linejoin="round" filter="url(#fuzzy)"/><polyline data-v-644c7455="" points="-24.68292789037309,-76.3166893545005,-24.239718366949386,-76.7205230021244,-23.36771873375756,-77.41577569693521,-22.41162380312967,-78.09545537318859,-21.465147969429623,-78.70782346930613,-20.522308971439443,-79.27543376304745,-19.55901497457756,-79.82667439636059,-18.557480539002196,-80.3802566197678,-17.512122731038623,-80.94360088295137,-16.43540947733792,-81.51200279611648,-15.361225883217195,-82.069231200602,-14.337634959404799,-82.5928645401038,-13.409297763837891,-83.06350419910221,-12.60021871151779,-83.47252165310655,-11.908916952412484,-83.82310258787112,-11.319144044382822,-84.12413394943925,-10.81759174680882,-84.38182447338849,-10.405793969558957,-84.59515910496275,-10.101037235780296,-84.75705565050833,-9.934230085290075,-84.85720341378182,-9.956685166048292,-84.88137494702636,-10.252241569330412,-84.80793041107468,-10.926516441935146,-84.60907789270345,-12.042077666657091,-84.26593377816333" fill="none" stroke="rgb(128, 128, 128)" stroke-width="2.7253580690425134" stroke-linejoin="round" filter="url(#fuzzy)"/><polyline data-v-644c7455="" points="0.33489231455685964,-85.96717693750311,0.7328601148039646,-85.89874267724164,1.6361678904908787,-85.6747634200102,2.7000803078526223,-85.31129669972849,3.880885112769283,-84.82227466695072,5.21090071660337,-84.22193125599703,6.674882283152574,-83.52986574415925,8.212398742577612,-82.76743530985837,9.763578142664858,-81.95265338435811,11.299554087323926,-81.09772182992029,12.821835276985954,-80.20980582776376,14.3425957988891,-79.2941692238176,15.865370314611951,-78.35795496876781,17.378215607489622,-77.41274599507432,18.858814310860616,-76.47491123049801,20.283115997019742,-75.56377236742958,21.630331420531558,-74.69806664676764,22.883576638457573,-73.89192352928907,24.029624149745832,-73.15324317924266,25.059995910371974,-72.48693568352145,25.972226533483422,-71.89932677501487,26.765516592068195,-71.39580150142856,27.418640006145502,-70.97880604784763" fill="none" stroke="rgb(128, 128, 128)" stroke-width="1.1240790952450541" stroke-linejoin="round" filter="url(#fuzzy)"/><polyline data-v-644c7455="" points="40.24313188838261,-52.953538025449795,40.10160026989728,-52.787423630195086,40.01470849480826,-52.43053435452519,39.784303728194715,-52.04686080078902,39.306302156735974,-51.77256240762227,38.51565689635751,-51.70392906148818,37.37024245196569,-51.902230615223445,35.83832195415299,-52.4018295223868,33.896826416691674,-53.202785741685446,31.53175837072532,-54.27560718584721,28.733982684235883,-55.58940424164564,25.494581271409984,-57.14033659365522,21.805819559540762,-58.95491038125708,17.66639140943083,-61.071386793595565,13.08330310289056,-63.52515418600781,8.063260958416336,-66.35148329506247,2.5908939807553875,-69.58581899786535,-3.4040297144892193,-73.23872522209548,-10.083869332312371,-77.2655122213307" fill="none" stroke="rgb(128, 128, 128)" stroke-width="0.5155606464986385" stroke-linejoin="round" filter="url(#fuzzy)"/><polyline data-v-644c7455="" points="8.021565088124087,-84.46020487555647,9.466330012403992,-83.9653067821621,10.250484621890232,-83.67627051466755,10.827064709375318,-83.41082004352462,11.32937008382477,-83.1328992792922,11.74142205218184,-82.86093988849039,12.006161731827019,-82.61947909541925,12.079747987920012,-82.42157512226086,11.948714070614576,-82.26606617037685,11.622323211425662,-82.14262712311694,11.114998302882233,-82.03934976013261,10.4309543989708,-81.94897982568737,9.555780860524832,-81.8730064126751,8.455533204274635,-81.82407603316314,7.084180430592628,-81.82526158888575,5.398035094115641,-81.9031718491552,3.3670167245355342,-82.07525871199488,0.9668173801033602,-82.33856612067463,-1.8497692184445667,-82.66913074373656,-5.170311724612211,-83.03353337730051,-9.077393071728048,-83.40987786995349" fill="none" stroke="rgb(128, 128, 128)" stroke-width="0.7974793687739058" stroke-linejoin="round" filter="url(#fuzzy)"/><polyline data-v-644c7455="" points="10.155249331981564,-83.7148595934981,10.391778014391486,-83.58329151239944,10.469765301142168,-83.28640278428394,10.358956561256928,-82.84985414978864,9.926351659347715,-82.32115670163516,9.051989331311026,-81.72401328496876,7.662008327479115,-81.06687163501206,5.741070051040791,-80.3492858164519,3.3118476883996335,-79.56529358294283,0.39080444744658394,-78.70425130396424,-3.0460700105566385,-77.74595532088841,-7.065376280737405,-76.65259520617803,-11.762790998503153,-75.36514480354688,-17.2627835197955,-73.81866598572323,-23.661711562922896,-72.0431620058303" fill="none" stroke="rgb(128, 128, 128)" stroke-width="1.339099672219394" stroke-linejoin="round" filter="url(#fuzzy)"/><polyline data-v-644c7455="" points="-4.008275198087492,-86.17524811266877,-3.134255808690423,-86.09698251726903,-2.3335609819601233,-86.08817697763533,-1.738297675412656,-86.07352698972963,-1.2812065828378014,-86.03720991689354,-0.9396993921008525,-85.98098590691585,-0.7394242916105357,-85.90644719255336,-0.7227261836239011,-85.81066838442457,-0.931829041726838,-85.68607368297228,-1.403263656528519,-85.52116839551692,-2.169777548709421,-85.30339904139248,-3.268779434041875,-85.025106545114,-4.748968361452266,-84.6886005662345,-6.6666306530668535,-84.30097007417602,-9.08015160378459,-83.85343013274799,-12.038060158366207,-83.31659234045705" fill="none" stroke="rgb(128, 128, 128)" stroke-width="1.6566490655728756" stroke-linejoin="round" filter="url(#fuzzy)"/><polyline data-v-644c7455="" points="12.13829966597611,-82.79997855300542,12.613731880977866,-82.55592451289097,13.090870027863842,-82.18907316307612,13.266726280183125,-81.81783526814127,13.148660376506378,-81.44449893316612,12.803553841307886,-81.03269939362809,12.260041059926037,-80.55149383802141,11.506506571519637,-79.98517394937004,10.51069460671382,-79.33584029994523,9.231308261709831,-78.6243449309695,7.622917969066627,-77.88274927843503,5.640794294067508,-77.1371482384617,3.245984600329175,-76.39069685586844,0.40805608272352956,-75.6190750591048,-2.893167599303032,-74.78287070660306,-6.661734251395682,-73.8520614126158,-10.876088666839484,-72.83174103702038,-15.495861056459047,-71.76819612502018,-20.526878721714265,-70.6942672856248,-26.17425921187673,-69.45558070693014" fill="none" stroke="rgb(128, 128, 128)" stroke-width="0.6239193034998354" stroke-linejoin="round" filter="url(#fuzzy)"/><polyline data-v-644c7455="" points="26.879798158727557,-71.87444549340847,27.72019142173698,-70.9001952562251,28.446353923541988,-70.10687173069522,29.090477106475042,-69.38700530378699,29.653048624197638,-68.7263494851746,30.131337133573695,-68.13889062154509,30.523822978859908,-67.64031783762833,30.819471380626076,-67.25251210095456,30.983537431069465,-67.01911400568247,30.95839561842508,-67.00616149779694,30.6813402318215,-67.28459187554456,30.103926673986017,-67.91164778248181,29.200429916325874,-68.92079189485644,27.96690983061406,-70.30988556980535,26.387461620982293,-72.0456851293475" fill="none" stroke="rgb(128, 128, 128)" stroke-width="1.8594421580838767" stroke-linejoin="round" filter="url(#fuzzy)"/><polyline data-v-644c7455="" points="-3.2953573479786566,-85.99760162530033,-2.1000399891167874,-86.06371382610531,-1.2896372247175663,-86.0374685233077,-0.4533179615107945,-85.96262354010854,0.450094690002591,-85.86998817179837,1.3704838019465142,-85.77646868651442,2.254526710311127,-85.6876776687225,3.0580125575895525,-85.60384189423131,3.7435821216978504,-85.52612712600417,4.2726537136129865,-85.46084622798483,4.592429483510731,-85.42029422930545,4.637057983292219,-85.41957525677445,4.361910201178289,-85.46987824156855,3.7814274908411343,-85.57282153726591,2.8925138324123525,-85.73012403775856" fill="none" stroke="rgb(128, 128, 128)" stroke-width="2.2965365020242214" stroke-linejoin="round" filter="url(#fuzzy)"/><polyline data-v-644c7455="" points="-6.518107735408481,-85.77090395429968,-5.196619027250415,-85.84681575304235,-3.857611398883366,-85.85946385963558,-2.4833045709802035,-85.78740323337547,-1.111994891991712,-85.65094440491428,0.24078818486064568,-85.46624289542102,1.5895490742041551,-85.24655803654524,2.9473862190000646,-85.00554868483194,4.300526414035589,-84.75785770224778,5.600800217907353,-84.51972954028992,6.777878252051284,-84.30850340217356,7.772484928249005,-84.13866573953298,8.574999591316786,-84.01550820491471,9.23253495112234,-83.92755314247488,9.796543324909214,-83.83692301729582" fill="none" stroke="rgb(128, 128, 128)" stroke-width="1.6315677490919518" stroke-linejoin="round" filter="url(#fuzzy)"/><polyline data-v-644c7455="" points="-8.71458504170448,-85.39530712652336,-8.151730444056021,-85.35741219335274,-7.46243327665031,-85.41430907152935,-6.977635421050667,-85.397576508912,-6.662472091672536,-85.26670994279318,-6.456929739401627,-85.01332548664762,-6.3692053474063535,-84.62765689005032,-6.450558719101175,-84.09940893570835,-6.752149084544236,-83.42287950759498,-7.302590429621667,-82.59609881080385,-8.108928482568214,-81.61625010768594,-9.16962089257503,-80.47608923117772,-10.486861559920355,-79.16379433386695,-12.07102175828094,-77.66550403667523,-13.9372500534669,-75.96730066605376,-16.100064582568102,-74.05290959080521,-18.574016806762028,-71.89626260594098,-21.38481559587681,-69.45377435132878,-24.58359221127702,-66.66694848172143,-28.240951270675936,-63.49001228266633,-32.39435262787947,-59.956410835361694,-36.96780470650589,-56.2530537589629" fill="none" stroke="rgb(128, 128, 128)" stroke-width="0.8550031413859711" stroke-linejoin="round" filter="url(#fuzzy)"/><polyline data-v-644c7455="" points="19.672233197996146,-78.08440479637885,20.295519516103795,-77.68098809112519,21.000660685912006,-77.11385600034772,21.816246336390762,-76.37286716970284,22.698900473645228,-75.50038761745984,23.64845115759872,-74.5085086938965,24.672270544412342,-73.40794129690055,25.75992831091339,-72.2234742589588,26.88072769292973,-70.99334156609308,27.992574120475695,-69.7643573595818,29.051729244900677,-68.58705255300139,30.01984683189842,-67.50901831612644,30.868756029784045,-66.56626446899618,31.58292930753568,-65.77721836669573,32.15845693538135,-65.14432725547844,32.59907700134053,-64.66196444223196,32.912350151682645,-64.32332120847673,33.10745521998114,-64.12226682940415,33.19098260424654,-64.05653802154266,33.15939706528875,-64.13685470453545,33.00174874970729,-64.38178991878304,32.70201009307026,-64.80039960246147" fill="none" stroke="rgb(128, 128, 128)" stroke-width="2.0624856302513557" stroke-linejoin="round" filter="url(#fuzzy)"/><polyline data-v-644c7455="" points="25.564677354737967,-73.31615967611035,25.942297242414163,-72.79826616680228,26.451406427689008,-72.0654435554335,26.79941303141038,-71.39194910168469,26.884013235202126,-70.86276871244044,26.677197935426367,-70.47760101611495,26.175201466827517,-70.21364432488427,25.38250784991688,-70.0492967284673,24.30579086949611,-69.97067228629221,22.947408360283216,-69.97540569465237,21.300350358067522,-70.0743137030376,19.34852213173485,-70.28617433074005,17.070397270963205,-70.62588271710739,14.440869237256376,-71.09315433702223,11.430683830548372,-71.6704732783037,8.009321035652862,-72.33455845333513,4.156046151331342,-73.07771338843776,-0.1272097196446591,-73.92497926277181,-4.819057675204714,-74.92508532471567,-9.908509114960381,-76.11117588397188,-15.404327988312765,-77.50924074681446" fill="none" stroke="rgb(128, 128, 128)" stroke-width="0.5358953347009444" stroke-linejoin="round" filter="url(#fuzzy)"/><polyline data-v-644c7455="" points="17.135474762141047,-80.05836337723959,17.419907951984076,-79.88312540432959,18.311196038370753,-79.22411801133244,19.20996248133067,-78.5513011600879,19.959113901243413,-77.99615568042034,20.548581065720985,-77.55988522705344,20.989763697622227,-77.2200191304099,21.288232481836516,-76.96045614306789,21.448016766671877,-76.77297129806523,21.47188237561562,-76.65856769705744,21.35335858923138,-76.6315498778727,21.06889294381461,-76.7199179619184,20.575338932642605,-76.96081652068597,19.81208921167177,-77.39628011341358,18.70850460039507,-78.07215058709001,17.202458223860695,-79.03430815308006,15.270477687205164,-80.31462176239359,12.966808394784543,-81.90111678591319" fill="none" stroke="rgb(128, 128, 128)" stroke-width="1.3761768629090998" stroke-linejoin="round" filter="url(#fuzzy)"/><polyline data-v-644c7455="" points="26.879798158727557,-71.87444549340847,27.69694246334759,-70.92827609952847,28.330836019310755,-70.23665450622093,28.830852639187906,-69.66554548165668,29.212315196119288,-69.17888754324808,29.48128344621469,-68.7729415841135,29.63915332315707,-68.4513570076954,29.679157095403053,-68.22417617063097,29.58419381390445,-68.11133114423141,29.332825154503638,-68.13748983844141,28.908297718734897,-68.32199911719196,28.30136126329274,-68.6738366992859,27.504090208049817,-69.1957081153146,26.500642490036945,-69.89343767870331,25.26407948281375,-70.78309902490243,23.76368618610988,-71.88965731946308,21.976983393944757,-73.23709240096049,19.890330510013982,-74.84080479214914,17.471698909076043,-76.72068210310913,14.62650665466862,-78.93617532462397,11.227128160994456,-81.5863567482539" fill="none" stroke="rgb(128, 128, 128)" stroke-width="1.5743559013246717" stroke-linejoin="round" filter="url(#fuzzy)"/><polyline data-v-644c7455="" points="24.220831327613787,-74.23370518240613,25.213471880585562,-73.46368773261597,26.0604440835001,-72.63409007515192,26.936208062935545,-71.69707394052088,27.80133037554623,-70.7466661034006,28.603087679403654,-69.85266667748293,29.31590080884065,-69.04138558868672,29.93366513066224,-68.31836140215088,30.45725141664311,-67.68674852610889,30.886831599788028,-67.15427361164599,31.21731885146123,-66.73525069048827,31.435503578132547,-66.45169563559105,31.520192196002,-66.3322422252011,31.44605134832433,-66.40741868717888,31.188137298657455,-66.70427187699715,30.72183558681222,-67.24645303433795,30.015446887275694,-68.06419497211056,29.016628683475062,-69.21545689347295,27.63187785706589,-70.81695210908178" fill="none" stroke="rgb(128, 128, 128)" stroke-width="1.0132412947824743" stroke-linejoin="round" filter="url(#fuzzy)"/><polyline data-v-644c7455="" points="-8.71458504170448,-85.39530712652336,-7.939811865749101,-85.23866899912693,-6.586665967256395,-84.96783062812455,-4.999975437114577,-84.43621926461125,-3.159509373237388,-83.62561269579912,-1.004991498037537,-82.56715305343957,1.4552503162572226,-81.29293852273176,4.159628654384696,-79.82365378765064,7.03900768205561,-78.1729729278027,10.047980537947447,-76.35386122339806,13.168314916526166,-74.38558813248851,16.389795158582153,-72.30394953343117,19.68639990239145,-70.1695866925534,23.00668076552457,-68.06248440278472,26.28757031812765,-66.05150110294592,29.50346600298159,-64.1227537430577,32.793074143981606,-62.019870752891705" fill="none" stroke="rgb(128, 128, 128)" stroke-width="2.5803918125141547" stroke-linejoin="round" filter="url(#fuzzy)"/><polyline data-v-644c7455="" points="22.74298563193384,-75.75724436740789,23.946186277364788,-74.58200263231713,24.71262630262141,-73.78674752568266,25.145939288582596,-73.16246774936043,25.31012192662643,-72.63921786705036,25.197645676699835,-72.23571283014385,24.779248697077843,-71.98423228221225,24.03221431879958,-71.89864042771174,22.944780523980665,-71.97515486212292,21.512859562066303,-72.20269867370652,19.73505569110335,-72.57094094350842,17.60358589292,-73.07530867441636,15.093151493373021,-73.72018291714227,12.159207472595973,-74.51811309333308,8.755653561816407,-75.48331715637015,4.8633845368617425,-76.62358088084774,0.4989161145134595,-77.93526126273323,-4.32441497441568,-79.3963751052112,-9.643615772882988,-80.97214332509094" fill="none" stroke="rgb(128, 128, 128)" stroke-width="0.7456608328873261" stroke-linejoin="round" filter="url(#fuzzy)"/><polyline data-v-644c7455="" points="12.13829966597611,-82.79997855300542,12.661974307003637,-82.56498566818118,13.272344524458296,-82.23377679465487,13.673357556998038,-81.92743732950953,13.878318512936028,-81.64950255943396,13.95515159520017,-81.36871145104207,13.935813557173498,-81.06119143545763,13.814883732457176,-80.71771573826165,13.565407006382117,-80.34389880977298,13.149286815108082,-79.95932419369075,12.524213129622034,-79.59118212391171,11.650091163329249,-79.26237130791094,10.49381458973521,-78.98082285571532,9.031749902768585,-78.73716693237067,7.251700244590338,-78.51216496781356,5.154827247062524,-78.28909952731482,2.75370391115465,-78.06393089495575,0.06213859180537362,-77.84806307518909,-2.9198248373729445,-77.66303162232458,-6.212732002108146,-77.53093153243005,-9.848100270822314,-77.46709344171744,-13.860767401395844,-77.47994971857726,-18.328574785170236,-77.56337322599366" fill="none" stroke="rgb(128, 128, 128)" stroke-width="2.442972851513092" stroke-linejoin="round" filter="url(#fuzzy)"/><polyline data-v-644c7455="" points="26.879798158727557,-71.87444549340847,27.7004499745419,-70.92431547653673,28.340796035857313,-70.22498584741302,28.852398202077556,-69.6398118182397,29.25285939085372,-69.13100580539643,29.55176951293973,-68.6912758977291,29.75544548244844,-68.31939705188611,29.86193072173929,-68.02129552576847,29.857905525321648,-67.81404946261563,29.724101168708962,-67.720189405918,29.443290388994832,-67.75764163992241,29.00318762677477,-67.93489486061283,28.39349716972482,-68.25412508919618,27.601741373463422,-68.71812828312657,26.611858395067976,-69.33529457312805,25.405510397634558,-70.11968087760835,23.963277245132037,-71.08800495431862,22.264246553705625,-72.25894130738509,20.28747353944669,-73.6579555449639,18.0216437531968,-75.32178428049423,15.47908602599281,-77.29065749668528,12.687681900018056,-79.58923001460197,9.656731625084138,-82.21544627197518" fill="none" stroke="rgb(128, 128, 128)" stroke-width="2.584379804594721" stroke-linejoin="round" filter="url(#fuzzy)"/><polyline data-v-644c7455="" points="12.13829966597611,-82.79997855300542,12.755960567315247,-82.49588056712197,13.64836089045363,-81.96329649475061,14.52212122519933,-81.33660224431588,15.396265797959753,-80.63379007274534,16.345867577665253,-79.83698837063623,17.40858946454189,-78.93466267746481,18.58086744343771,-77.93000052973608,19.832806177266935,-76.84308172959524,21.119706788771687,-75.71113584661215,22.392531219942708,-74.58134463281634,23.60947526374398,-73.49682569361964,24.7447837895639,-72.48394735401712,25.790475454056228,-71.54873682314312,26.75118956909748,-70.68333460145018,27.63624549843466,-69.87692157125737,28.4529027362427,-69.12427961127483,29.2020203618618,-68.42906957879177,29.87526876651626,-67.80382964233844,30.453285641462244,-67.27043612299121,30.904230848076953,-66.86375721153827,31.17962685522108,-66.64087521311359,31.208171959086236,-66.6912188013576,30.91885759578589,-67.10338301419996" fill="none" stroke="rgb(128, 128, 128)" stroke-width="0.9334072022382701" stroke-linejoin="round" filter="url(#fuzzy)"/><polyline data-v-644c7455="" points="29.379337547169104,-69.20752785676855,29.646449035285197,-68.78325555964923,30.03903920456121,-68.21259784495392,30.362600996741758,-67.6893652200342,30.6175930247485,-67.1998360788128,30.777743072906585,-66.76839709184982,30.803821274391524,-66.43463680608055,30.67018294292024,-66.2185594007252,30.367702418762114,-66.11771472609362,29.895595282720084,-66.12019874363924,29.25344098574556,-66.21714533104479,28.43662875764772,-66.40836244302251,27.434847443890078,-66.70186353155898,26.232385204142446,-67.11182135223953,24.80884297475919,-67.65918359456819,23.139532536345577,-68.37451766288913,21.196143802367718,-69.29750304118656,18.94866812631525,-70.46783711002112,16.368205857066386,-71.90970817590623,13.429113126242868,-73.62058543798442,10.111035192179175,-75.57632701030336,6.406660221791656,-77.75490319286335,2.3483878295918377,-80.16495195543976,-1.9073089501368443,-82.85494865406105" fill="none" stroke="rgb(128, 128, 128)" stroke-width="1.3953781830449197" stroke-linejoin="round" filter="url(#fuzzy)"/></g><g data-v-644c7455="" id="pointNose"><g data-v-644c7455="" id="rightNose"><circle data-v-644c7455="" r="1.4947430753985738" cx="10.000949726621219" cy="24.167070204583155" stroke="black" fill="none" stroke-width="1.0244256134957077" filter="url(#fuzzy)"/><circle data-v-644c7455="" r="2.636038215618604" cx="7.139727752713602" cy="24.028127332124935" stroke="black" fill="none" stroke-width="1.0280103370189675" filter="url(#fuzzy)"/><circle data-v-644c7455="" r="1.1059952830514108" cx="9.793612081608124" cy="22.778472015174945" stroke="black" fill="none" stroke-width="1.4932953979830692" filter="url(#fuzzy)"/><circle data-v-644c7455="" r="1.631697072664951" cx="8.939847634050139" cy="22.599467673851336" stroke="black" fill="none" stroke-width="1.442937642965123" filter="url(#fuzzy)"/><circle data-v-644c7455="" r="2.8901398227418986" cx="10.8094189035812" cy="25.55409022875465" stroke="black" fill="none" stroke-width="1.4679108159987995" filter="url(#fuzzy)"/><circle data-v-644c7455="" r="2.008930618191311" cx="7.1739077059190635" cy="25.928049116393176" stroke="black" fill="none" stroke-width="1.09251915038047" filter="url(#fuzzy)"/><circle data-v-644c7455="" r="1.4699573513090831" cx="7.782707086641885" cy="24.15396073281602" stroke="black" fill="none" stroke-width="1.035003797886366" filter="url(#fuzzy)"/><circle data-v-644c7455="" r="2.2313456452917664" cx="9.92711911935422" cy="23.24876597205336" stroke="black" fill="none" stroke-width="1.4054682981526594" filter="url(#fuzzy)"/><circle data-v-644c7455="" r="2.6343065199947278" cx="8.113046572799735" cy="24.59176953326069" stroke="black" fill="none" stroke-width="1.4957329128500028" filter="url(#fuzzy)"/><circle data-v-644c7455="" r="1.3138750220186584" cx="10.534457930991046" cy="25.165971245149123" stroke="black" fill="none" stroke-width="1.1512270078177598" filter="url(#fuzzy)"/></g><g data-v-644c7455="" id="leftNose"><circle data-v-644c7455="" r="2.922751672023088" cx="-8.666092749310952" cy="23.293919398685883" stroke="black" fill="none" stroke-width="1.207615625443775" filter="url(#fuzzy)"/><circle data-v-644c7455="" r="1.4042045116762139" cx="-9.819114128994599" cy="22.418538042801522" stroke="black" fill="none" stroke-width="1.34809156783379" filter="url(#fuzzy)"/><circle data-v-644c7455="" r="1.7509928590918467" cx="-8.369209947792957" cy="24.06603776347889" stroke="black" fill="none" stroke-width="1.387323057634633" filter="url(#fuzzy)"/><circle data-v-644c7455="" r="1.010525277506345" cx="-10.990213488952278" cy="23.087201310711222" stroke="black" fill="none" stroke-width="1.0778969866833716" filter="url(#fuzzy)"/><circle data-v-644c7455="" r="2.9746569173446367" cx="-7.681101732800211" cy="21.200760884730013" stroke="black" fill="none" stroke-width="1.4932129449787088" filter="url(#fuzzy)"/><circle data-v-644c7455="" r="1.9917623327659744" cx="-10.41473684426029" cy="21.19963474868992" stroke="black" fill="none" stroke-width="1.1318288042078128" filter="url(#fuzzy)"/><circle data-v-644c7455="" r="2.798530965124851" cx="-7.59907883936021" cy="21.763225738370302" stroke="black" fill="none" stroke-width="1.093129437020158" filter="url(#fuzzy)"/><circle data-v-644c7455="" r="1.2688017670206442" cx="-10.57491287825206" cy="24.074848137480014" stroke="black" fill="none" stroke-width="1.3492897380647717" filter="url(#fuzzy)"/><circle data-v-644c7455="" r="1.862467094320793" cx="-7.334213111194762" cy="21.756913538151004" stroke="black" fill="none" stroke-width="1.0211327466165234" filter="url(#fuzzy)"/><circle data-v-644c7455="" r="1.4387374958525" cx="-10.346855999369279" cy="23.697806254590404" stroke="black" fill="none" stroke-width="1.341643950702724" filter="url(#fuzzy)"/></g></g><g data-v-644c7455="" id="mouth"><polyline data-v-644c7455="" points="16.200810087914547,56.35444659685865,16.128119879231882,57.37715855646723,16.208014083883263,56.639322083548464,16.215141565891876,56.72350752530827,15.972744021653277,58.73531557768674,15.959602683092672,58.41782523851901,15.905160780577923,58.52957698393362,15.798809572368793,59.04971558520767,15.14533978814233,60.69985485039411,15.034646924391776,60.706395995484336,14.524360623165421,61.56012060811024,14.756958614358524,61.31880782108514,14.866649928292642,61.03791247551867,14.282173736418738,61.90940034463599,13.811065365829727,62.76310261483172,13.86477896513259,62.83629963500608,13.648224067977555,63.00907200415489,12.11349339820016,64.71059992343321,11.724580294485378,65.10735325864698,12.242047028916073,64.46337305885058,10.65817552079383,65.96264010763126,11.66538321875186,65.15758069783837,10.334216544161666,66.19764818678927,9.751953598703427,66.60233934355489,9.051205806861368,67.0137074169306,9.273468825934327,66.91811327013393,7.240843593169352,68.06219399415353,7.735987098716013,67.85508280909296,7.532643039779995,67.99385990889944,7.199167765605992,68.14606812213353,5.0551776146965555,69.15625174577984,4.127776483915298,69.51430393207356,4.972493304120292,69.16004698121442,4.085662096187827,69.54646518159674,2.025452570631785,70.2545905457043,1.9228985000313301,70.28975211157164,2.8208088450024675,70.02240316865715,1.9596164801999425,70.26273144767524,0.28195072988878245,70.76267069079839,-0.9832138526947443,71.07375775482974,-2.334615853340419,71.36329572734905,-0.6343582285650164,70.99064491245176,-1.6555093021465002,71.23360136174239,-2.9261428000953993,71.4694612122727,-3.2493639664400042,71.49925879998464,-6.0615645293576685,71.85159820047689,-6.294905646034775,71.86456986014652,-5.146425505237526,71.77019717034054,-8.057313003927465,71.97405884581978,-6.8898126719068244,71.91957609401688,-10.11073266485406,72.00453767454492,-11.057026422109557,71.98558375229182,-10.199438172492435,71.9976837719198,-12.487052542725358,71.89444222524963,-10.995597740520594,71.98561119050703,-12.86359814775588,71.87194565579027,-14.870697713003189,71.67789600527115,-14.249016946954363,71.74167097116727,-15.759233541205809,71.5262123126049,-16.160899787389095,71.4634118914156,-17.25034148554552,71.245491946519,-16.978675010758053,71.30279761251478,-19.22774342443581,70.83948054579668,-18.942747702986225,70.89834004834378,-20.947322387669832,70.36890824851105,-20.754502502934898,70.36473875930338,-22.012133545287888,69.97065117821741,-20.7981883547045,70.36244352157559,-22.215542764277302,69.89447452044418,-24.03125300620919,69.22726995988812,-23.377421826817002,69.4895050360548,-23.64436636669606,69.3963888081836,-25.48013055648567,68.52524968610706,-25.61270498836139,68.49949375411691,-25.31834149058087,68.62709733781205,-27.557192980975692,67.3355019319794,-27.893275756400364,67.09439176337754,-28.429984790830048,66.79372126818527,-28.18767401894462,66.93808017717502,-28.812239738535723,66.48221847826878,-29.95978554035499,65.65764407075383,-30.386155681626775,65.09759604444372,-30.91823841177049,64.75444353694748,-30.53277014381012,64.96948679425954,-30.93124410438107,64.60869752314304,-31.1277068336004,64.44656029653638,-32.30048287009996,63.16458623908033,-32.82329022220839,62.42421599396811,-32.547663972757555,62.87084699544936,-32.695310535220685,62.570143722898464,-33.409455792613414,61.1150272862065,-33.58837232512596,60.86326560205429,-33.76040957186186,60.78032639026249,-33.85303323764428,60.28369878701252,-34.142296924750084,59.117601411076436,-34.363763703688704,58.77638454549674,-34.592610071574335,57.969432728462294,-34.18283964609327,59.04227352514921,-34.57395671981125,57.149207959537314,-34.66138005545994,56.912923465328895,-34.672859802236005,57.10823276637472,-34.7111153719144,57.04199032545381,-34.645993474958445,56.20382418121757,-34.50249710433617,56.13184881830437,-34.54936730566286,55.67885166911276,-34.554587549353826,54.84154454690446,-34.476652036015686,54.57274670931506,-34.085894564084406,53.68425395286273,-33.61714877492931,52.235046924631874,-33.43902106929767,52.08497561244056,-33.27675223846943,51.7618481687506,-33.09802263168977,51.27837116646645,-33.08949662169376,51.46657947604784,-32.58318965320853,50.378962975292474,-31.74400250576721,49.51831033045782,-32.621692463303205,50.479446925927434,-31.384104252812534,48.93146660968788,-31.468564117865654,49.23370741437107,-30.767771773887343,48.39609134993463,-30.890280082044853,48.620008064182436,-29.044550681828664,46.96154434757267,-29.70957209356075,47.50524420696587,-28.929171457940715,46.75046434978625,-29.26188656926946,47.15405908048699,-28.826303269477858,46.68530685609245,-28.307476720684004,46.44133452324145,-27.623374929904532,45.864068704085675,-27.233606739338388,45.685947796319226,-24.993375669108616,44.46851953794133,-24.21693917780203,44.059023963792654,-24.873870892610277,44.33715561119118,-23.732657112620625,43.84956054517856,-23.53180131210191,43.71143882798762,-21.879894521880576,43.06829548390761,-22.1793225274181,43.24143984058321,-19.98550390098741,42.463330773305586,-19.72065659973381,42.38962461897485,-20.28410246767959,42.57275012602457,-19.48179630948144,42.37492882793721,-16.841503185496606,41.708955259358014,-16.689637579185824,41.67474593033287,-17.357406439482048,41.82725124379207,-15.475489075471291,41.475187399469704,-14.654134674470086,41.32854375311757,-13.950713527852628,41.23680129104245,-12.183247292399885,41.06247022512926,-13.161857898143262,41.151839359332854,-11.21653206806074,40.99164736303818,-9.99473893320058,40.94120617489282,-11.171577705723163,40.9894283724211,-8.57048210705437,40.921330070608306,-8.368261430008062,40.921278699634335,-6.800815473318346,40.96265605887378,-8.169727994380416,40.92789276011247,-5.265355351164462,41.0770325441071,-4.324820444250711,41.13907605305065,-4.553004401152717,41.12144241738089,-3.7240807653736816,41.213232226373094,-2.303508903423296,41.42567214697736,-1.1173592380850934,41.64307689720641,-1.671817929464802,41.50476268565966,-0.22061483909870105,41.81298698258335,0.07126811914556797,41.84887281823575,0.2704435365199913,41.89787126004856,1.5121100328441415,42.21606401994835,2.448650100590731,42.47313852989114,3.5773622506602383,42.874697793305884,2.7135489091013554,42.60299222986711,4.185813488543131,43.04491674797861,5.948115300264844,43.77786792777404,4.608902740177163,43.18537063201003,6.950073520934641,44.20658002089003,8.019997556878941,44.712715531431655,8.667142022645244,45.09444914943694,8.239740017420722,44.889999753929224,8.307914328433107,45.01121686587812,9.993133223483248,45.96244698223114,9.026769609389007,45.378307306776044,10.059893528241481,46.07441292571225,11.69768365270632,47.21432269277545,11.355648230624727,46.90650729372884,12.529075828934115,48.083777467242015,12.63885147188465,48.291729451816764,12.349132698590598,47.87533130364841,12.294759685426257,47.8696486729574,13.719220700968986,49.40014542853035,14.097839003960548,49.98905220415406,14.157299496506734,50.11167397048451,14.728623903475714,50.665120587225665,14.975229837658894,51.143887898192425,14.795807088014588,50.76119901943789,15.197043682010712,51.62546052748011,15.01684478662127,51.3428466551817,15.744614253571232,52.72699065769007,15.585164244118584,52.47682943193564,15.846237090414395,53.15055987569798,15.911842825910433,54.04259607075131,16.04697917776055,54.42762201496789,16.258304499759223,55.70616241346595,16.108005535950802,54.92846659612771" fill="rgb(215,127,140)" stroke="black" stroke-width="3.005257732177263" stroke-linejoin="round" filter="url(#fuzzy)"/></g></svg>