<svg data-v-644c7455="" viewBox="-100 -100 200 200" xmlns="http://www.w3.org/2000/svg" width="500" height="500" id="face-svg"><defs data-v-644c7455=""><clipPath data-v-644c7455="" id="leftEyeClipPath"><polyline data-v-644c7455="" points="37.398707888024425,-3.826309972880126,37.17302213393258,-4.192699080873227,36.87991730801069,-4.564212645728041,36.522297943323096,-4.938747904644421,36.10302956473994,-5.314320481869826,35.62493817784073,-5.689061704202981,35.090809757818,-6.061215916497572,34.503389738380896,-6.4291377971659305,33.865382500658846,-6.791289673682707,33.17945086210518,-7.146238838088559,32.448215565400716,-7.492654862493831,31.674254767357425,-7.829306914582231,30.860103527822027,-8.155061073114537,30.008253298579632,-8.468877643432245,29.121151412257362,-8.769808472961282,28.20120057122797,-9.056994266715668,27.151445935044357,-9.537813532313008,26.057276472912456,-9.990052570521463,24.922019331014447,-10.412075741581722,23.749090231823324,-10.802540773101653,22.541972382460116,-11.160380928947628,21.304196444371655,-11.484787715442627,20.039321543495568,-11.77519411671824,18.750917300079127,-12.031258351067823,17.442546857318618,-12.252848140147949,16.117750887985796,-12.440025482875361,14.780032558208129,-12.593031925866557,13.43284342756948,-12.712274322267271,12.079570264697836,-12.798311070818981,10.723522757506707,-12.851838827009638,9.367922097256876,-12.873679678155769,8.015890415605137,-12.864768774263231,6.670441053806608,-12.826142406513666,5.334469643237368,-12.758926525223968,4.010745976403907,-12.664325689125834,2.7019066476061564,-12.54361243781268,1.4104484424207158,-12.398117079201029,0.13872245517081971,-12.22921788385361,-1.1110710864501492,-12.038331678011314,-2.336887310435113,-11.826904827181163,-3.536840524033032,-11.596404602127615,-4.70920739266516,-11.348310919114182,-5.852429495021418,-11.0841084462427,-6.965115275170014,-10.80527906773738,-8.046041412513816,-10.513294698020836,-9.094153630426785,-10.209610437429232,-10.108566964403785,-9.895658061413796,-11.08856551055726,-9.572839835075836,-12.033601675293994,-9.242522644882456,-12.94329494700536,-8.906032439410163,-13.817430210604527,-8.564648970963537,-14.655955625743783,-8.219600829916137,-15.45898008954548,-7.872060763620874,-16.226770304679967,-7.523141271736966,-16.959747473623764,-7.173890469820714,-17.658483639931436,-6.825288213027248,-18.323697697354483,-6.478242471770438,-18.956251087640602,-6.133585951188163,-19.55714320784668,-5.792072946260115,-20.127506547998976,-5.454376424425293,-20.668601579933615,-5.121085327546433,-21.18181141815107,-4.792702085068486,-21.66863627351775,-4.469640330218366,-22.130687720648027,-4.152222811093176,-22.56968279980037,-3.8406794884840094,-22.98743797412064,-3.535145812282634,-23.38422744013186,-3.2352073752838706,-23.759534738888995,-2.940551784301058,-24.11407027000289,-2.6513749876875794,-24.44855425634342,-2.367846219268962,-24.763713953857277,-2.0901090902379984,-25.060280861385827,-1.8182826810498405,-25.33898793048303,-1.55246263331715,-25.600566775233276,-1.292722241705178,-25.84574488206922,-1.039113545826912,-26.075242819589732,-0.7916684221381747,-26.2897714483777,-0.5503996758327414,-26.49002913081788,-0.31530213273746677,-26.676698940914847,-0.08635373120738654,-26.850445874110775,0.13648338597915588,-21.92020856832484,7.562704802548235,-21.51413063099877,7.836711521040534,-21.09751682930132,8.107998764915925,-20.670248421453785,8.376088579141282,-20.232214065068803,8.640481239275308,-19.783309326553997,8.900657889991859,-19.3234361905158,9.156083183603194,-18.852502569163022,9.406207918583295,-18.370421811710678,9.65047167809114,-17.877112213783622,9.888305468493995,-17.372496526820285,10.119134357890694,-16.8565014674764,10.342380114634949,-16.329057227028663,10.55746384585861,-15.790096980778479,10.763808635994971,-15.239556397455669,10.960842185302063,-14.676121652729499,11.150273892374656,-14.098336500996037,11.333243443820974,-13.5059325486515,11.508377055185475,-12.898653259628503,11.674367792888862,-12.276255454031979,11.829978994868437,-11.638510809699419,11.974047579353595,-10.985207370348231,12.105487222075437,-10.316151063973429,12.22329138220952,-9.631167235158838,12.326536157350787,-8.93010219496481,12.414382947819716,-8.21282479205567,12.486080910598677,-7.479228008729962,12.540969183197541,-6.72923058551665,12.57847885774761,-5.962778678000312,12.598134685622789,-5.1798475495386,12.599556492887148,-4.380443303534889,12.582460286867821,-3.5646046589293903,12.546659034152286,-2.7324047725717833,12.492063090309058,-1.8839531121384834,12.418680261630824,-1.0193973832576813,12.326615479199054,-0.1389255145052637,12.216070065569063,0.7572322960652453,12.08734057437464,1.6688014691956585,11.940817183151182,2.5954608638358394,11.77698161967639,3.536840524033032,11.596404602127615,4.49251934963476,11.399742773354749,5.462022687142074,11.18773510956782,6.4448198370501535,10.961198783738228,7.440321474012986,10.721024464012695,8.447876976169166,10.468171027438938,9.466771659965579,10.203659669302084,10.496223916815898,9.92856738837087,11.535382247930796,9.644019828352647,12.583322193656688,9.351183455856203,13.639043153659943,9.051257055161457,14.701465094293443,8.745462520095025,15.769425139482323,8.435034923310681,16.841674041465822,8.121211843273791,17.916872527732117,7.805221929248656,18.993587520482976,7.488272684587881,20.07028822496521,7.171537448622733,21.145342083005687,6.856141557453551,22.217010588086865,6.543147663939213,23.283444958299693,6.233540197184695,24.342681663510803,5.928208941825736,25.39263780308082,5.627931717409677,26.43110633047069,5.333356138171428,27.455751121072925,5.04498043350366,28.464101879604634,4.763133309420203,29.453548883399193,4.487952831311695,30.241821403548617,4.164348505435319,31.009085941599306,3.8359027818133815,31.75328125854183,3.502227700449005,32.47225233204025,3.162872819664558,33.163748393297155,2.817322809466686,33.82542096391876,2.4649950449113573,34.45482189277993,2.1052371994689105,35.049401392889294,1.7373248383890862,35.60650607825426,1.360459012066074,36.12337700074614,0.9737638494035581,36.59714768696517,0.5762841511797472,37.02484217510559,0.1669829834124288,37.403373051820736,-0.2552607292759981,37.729539489088054,-0.6916546102934769,38.00002528107422,-1.1434952377132444"/></clipPath><clipPath data-v-644c7455="" id="rightEyeClipPath"><polyline data-v-644c7455="" points="-37.94688175970587,-2.7738942368782213,-37.397438756158095,-3.1544249723539597,-36.79959927069562,-3.53952641136984,-36.15543656118967,-3.9269708474937186,-35.46700936893211,-4.314660204365682,-34.73636104281113,-4.700623035938756,-33.96551866348677,-5.083011526719611,-33.15649216756657,-5.460098492009287,-32.311273471781206,-5.830274378143882,-31.43183559716006,-6.192044262735285,-30.520131793206843,-6.54402485491188,-29.578094662075216,-6.884941495559241,-28.60763528274436,-7.213625157560873,-27.61064233519466,-7.5290094460389,-26.58898122458323,-7.830127598594787,-25.544493205419585,-8.116109485550039,-24.37457638385233,-8.609198652923217,-23.16957091346613,-9.07059525758976,-21.932324029111818,-9.498656066511382,-20.665785002524117,-9.892061667302244,-19.372984150592963,-10.249795731988913,-18.057012885117526,-10.571124942625355,-16.72100478356935,-10.855579568208066,-15.368117660390798,-11.10293468233643,-14.00151661835509,-11.31319201106342,-12.624358059514133,-11.48656240038168,-11.23977463526043,-11.623448892790142,-9.850861115029332,-11.724430402386199,-8.460661153167864,-11.79024597792859,-7.072154933496357,-11.821779643316079,-5.688247671089172,-11.820045804926929,-4.311758950800762,-11.78617521526442,-2.9454128820632883,-11.72140148235336,-1.5918290494821203,-11.627048114332732,-0.25351423875534884,-11.504516088689622,1.0671450825563014,-11.355271935579415,2.3678895498830084,-11.180836324677417,3.646592972596549,-10.982773145006997,4.901267711531895,-10.762679067189302,6.130069383553478,-10.522173577559654,7.3313009136398595,-10.262889473595775,8.50341595496055,-9.986463810102778,9.645021697418757,-9.694529285600208,10.754881085133762,-9.388706058356084,11.831914463336735,-9.070593981513099,12.875200675153659,-8.741765246752038,13.88397762874917,-8.403757425937508,14.857642355305066,-8.058066900191106,15.795750578307226,-7.706142665837071,16.6980158146146,-7.349380506665533,17.564308027784193,-6.989117521958445,18.394651854125627,-6.626626999723287,19.189224421959096,-6.2631136245796455,19.948352784550522,-5.899709009743736,20.67251098719757,-5.537467542556001,21.36231678894027,-5.177362532996797,22.01852805937005,-4.8202826546353705,22.642038871010925,-4.467028667457079,23.233875307746573,-4.118310412014129,23.795191009767024,-3.7747440643447057,24.327262475508697,-3.4368496411057663,24.831484141061644,-3.1050487443644927,25.30936325751769,-2.779662535493518,25.76251458673306,-2.4609099276150284,26.19265493597954,-2.1489059860388062,26.601597551957703,-1.8436605261393435,26.989606508503982,-1.5448421255639468,27.35615864888053,-1.2522792317848799,27.701963950381753,-0.9661197406145936,28.0277417593797,-0.6864832923883526,28.334218049304226,-0.4134626855681276,28.622122678622993,-0.14712529034649702,28.892186648821585,0.11248553774945425,29.145139362383624,0.3653490442542422,29.381705880770753,0.6114656621600689,29.602604182402835,0.8508555983129309,29.808542420637927,1.0835574198087294,30.00021618175247,1.309626640389352,30.178305742921232,1.5291343068387908,30.34347333019751,1.7421655853792313,24.606705372284722,7.037795649736909,24.118869636060914,7.2547334802855605,23.61652573834978,7.468838716894739,23.09940537977635,7.679776062363313,22.56725070164355,7.887196873757063,22.019815224295655,8.090740948777736,21.456864785481862,8.290038312132099,20.878178478719704,8.484711001900989,20.283549591658563,8.674374855908363,19.67278654444314,8.858641298090356,19.04571382807697,9.037119124864322,18.40217294278591,9.2094162914979,17.74202333638158,9.375141698478048,17.065143342624886,9.533906977880108,16.371431119589523,9.685328279736853,15.659811884969974,9.830638964074303,14.928858330687346,9.97066587742001,14.178020023177803,10.104455679994263,13.406834085276786,10.23110459782846,12.61492658980742,10.349760620009185,11.802013816410861,10.45962561275725,10.967903364611933,10.559957337003485,10.11249511611364,10.650071356123025,9.235782039314094,10.729342820489887,8.337850829039501,10.797208115513637,7.418882374486602,10.853166359819866,6.479152048368304,10.896780740236327,5.519029810255859,10.927679670246452,4.538980117111327,10.94555775857204,3.5395616340037446,10.950176574546933,2.521426738002619,10.941365196943401,1.4853208082422622,10.919020532913047,0.43208129515055127,10.883107393703986,-0.6373634381643285,10.83365831381613,-1.721995509375688,10.770773100256289,-2.82070915225499,10.694618098554889,-3.932312600849958,10.605425162206114,-5.055530229530443,10.503490312193223,-6.189004955908617,10.3891720732608,-7.3313009136398595,10.262889473595777,-8.480906402110818,10.12511969457892,-9.63623712002109,9.976395357268661,-10.79563968986496,9.817301432278946,-11.957395480319645,9.648471759712962,-13.119724733546514,9.470585165814477,-14.280791004411688,9.284361162998575,-15.438705918632506,9.090555219923573,-16.5915342568563,8.8899535882659,-17.737299371677892,8.683367672859701,-18.87398894460231,8.471627931862965,-19.99956108995914,8.255577293611928,-21.111950812774943,8.036064076825545,-22.20907682761024,7.813934400821822,-23.288848745367474,7.59002407240776,-24.349174635076388,7.365149936104691,-25.387968967663305,7.140100674370814,-26.403160948710713,6.915627044482658,-27.39270324721361,6.6924315387373134,-28.354581127339138,6.471157454637144,-29.28682199019579,6.252377361718803,-30.187505332618812,6.036580951688322,-31.054773129978116,5.824162258524019,-31.886840650015245,5.615406235209069,-32.68200770471574,5.410474673755432,-33.438670347223486,5.209391455180989,-34.12984953553799,4.972273867146993,-34.792844311984865,4.730777713481623,-35.42625016844595,4.484559296006238,-36.02864198755172,4.233228248782163,-36.59857442458629,3.9763457979984453,-37.13458228939231,3.713423021859607,-37.63518092827597,3.443919110473412,-38.098866605911944,3.1672396257386137,-38.524116887248375,2.8827347612327205,-38.90939101941183,2.5896976020997498,-39.25313031361224,2.287362384937982,-39.5537585270479,1.974902757687727,-39.80968224481043,1.651430039519075,-40.01929126178968,1.3159914807196547,-40.1809589645788,0.9675685225823982"/></clipPath><filter data-v-644c7455="" id="fuzzy"><feTurbulence data-v-644c7455="" id="turbulence" baseFrequency="0.05" numOctaves="3" type="noise" result="noise"/><feDisplacementMap data-v-644c7455="" in="SourceGraphic" in2="noise" scale="2"/></filter><linearGradient data-v-644c7455="" id="rainbowGradient" x1="0%" y1="0%" x2="100%" y2="0%"><stop data-v-644c7455="" offset="0%" style="stop-color: rgb(165, 42, 42); stop-opacity: 1;"/><stop data-v-644c7455="" offset="50%" style="stop-color: rgb(138, 43, 226); stop-opacity: 1;"/><stop data-v-644c7455="" offset="100%" style="stop-color: rgb(221, 160, 221); stop-opacity: 1;"/></linearGradient></defs><title data-v-644c7455="">That's an ugly face</title><desc data-v-644c7455="">CREATED BY XUAN TANG, MORE INFO AT TXSTC55.GITHUB.IO</desc><rect data-v-644c7455="" x="-100" y="-100" width="100%" height="100%" fill="rgb(245, 245, 220)"/><polyline data-v-644c7455="" id="faceContour" points="85.77264230932118,1.0260123423914962,86.26756251241763,0.14102720414024184,85.8551598763721,2.2987732603699147,85.60515593834903,3.3268581691952255,85.50275115840509,5.080960108638622,85.3302634965826,6.096788877411691,85.3394508198178,8.021687653937104,85.2444781304728,9.506840570796001,84.83518095790978,10.433325948463334,84.52099029485514,11.694645240418849,84.67274204491305,12.88746620282513,84.27435251716811,13.047255313759957,84.16433776469442,13.129527236361545,83.81672209582167,16.276673108010293,83.12548412660317,18.391273790299522,82.5820643696937,19.284186368358128,82.58011917440845,18.955690264157873,81.64292922265597,21.95083566313653,81.97690563332763,21.57699126917508,81.53301102950995,23.80803841592708,81.17350383067155,23.994983720605866,80.59684098164122,25.341730953595036,79.78900986876367,27.099129681022532,78.8606946537772,29.23874014537326,79.1007557757528,28.68332608604579,78.67960869461116,30.22164346957264,77.2225365809533,32.21682790760711,76.70779649789164,33.19512922753776,76.18662589513822,34.843429547816285,75.4542214944014,35.40132190174151,76.06696389126978,35.38611723193298,73.81306676308192,38.20675576803439,74.0408895601594,37.677161091064875,72.39982962456855,40.42519136168687,73.3913788420174,39.25688253436894,72.00978407999797,40.97303011888964,70.47799527314646,43.234601968236916,70.58124083127483,43.48949728948182,69.21332296551515,45.01530585806445,69.84833180413267,44.35995554978986,67.01462535252169,47.39718823619344,66.56312103483009,48.49570552289845,67.18264205950162,47.356270575648864,66.20670113604297,48.64742880093122,65.5972547825755,49.43293625217218,63.02995707051582,51.57411369792209,63.01033982901522,51.788468766591166,62.46614020688642,52.30686829825929,60.65989968231423,54.2353396666459,59.505705667887355,55.18070481705567,58.97454137351397,55.89252360798686,59.139204632988225,55.732518028869976,57.83504171100974,56.569425376431056,56.79538045617085,57.838418993738586,54.7572674445597,59.13358877751001,55.61436496252688,58.85979305132912,53.409329821434966,60.228879424338245,52.79085698621628,60.734321454372335,51.09126819627889,61.867012747964154,49.070383943736246,63.06930475999853,48.76249461547049,63.395567843110044,46.81267970735347,64.50425933006446,48.02131381297497,63.99371767353304,45.93154261753067,65.37001628028722,44.86966385603081,65.65429334774534,43.307461770053436,66.66520430902202,42.78205291867238,66.81379302459497,40.26471545047909,68.08872416207457,40.751069924041104,68.03506146684455,39.4784091971721,68.5694637538337,36.93322378334163,69.82825757229323,36.34324904441394,70.00614754278074,36.71035163761705,69.85409665388951,34.8215906669672,70.64813180215624,34.84162616437966,70.67918714760027,31.489541529534304,71.88663447395493,31.76446027185604,71.77649435447408,27.999242700368345,73.0776853975598,27.96522746419315,72.97419320608165,27.830709670139715,73.01493382175968,25.939323972174872,73.46763533308132,24.328028187343943,73.95781204407339,21.57630443951304,74.75787526971288,21.279237287895302,74.83226322257686,21.78321217959311,74.72473774318215,20.53918428673195,74.83946454120485,20.241290825509406,74.91918915333851,16.381865121686268,75.68875916413083,17.28233192954302,75.54119548212013,14.19290254056619,76.0856924344744,13.124781722194216,76.1100023124964,12.482686081110678,76.25797025156085,10.09680197945855,76.44515704502103,9.737298749526937,76.47169146611544,9.356302286772863,76.50280860912648,5.362786340036035,76.76210153405164,6.201965702902148,76.58349216493149,4.373561858653334,76.94780467751211,2.5218686800331795,76.77066370468297,1.8056157794408656,76.88297125267802,0.4668178396771876,76.76199215411488,-1.2130872963187977,76.66991752393547,-3.9550363922814302,76.67091322529687,-4.996351059604763,76.50529458556912,-5.89783793342054,76.41886760813497,-7.248074153070597,76.2839548449834,-8.421463223642352,76.12834010817402,-7.572438756024068,76.29815826647658,-10.603128773729168,75.8327811414738,-12.77680324204664,75.60360668839748,-14.187914503408127,75.30792677564696,-15.292208232228138,75.20299745702191,-13.997801826909814,75.32261006903788,-16.411525888224833,74.85195264811556,-18.467010780400607,74.37712951301785,-20.300271631565693,73.93830009682115,-20.55156137055203,74.00084348633429,-22.918450442085117,73.37609891995214,-22.555398012480605,73.42244178937798,-23.146462730194195,73.29865188104527,-23.682627515251475,72.91575768978319,-28.133165212357856,71.75993175045967,-28.259061315833254,71.57514297262544,-28.963570714874596,71.29189692635799,-30.02294886377552,70.97061597564041,-30.909123699696945,70.69025564379855,-32.44110504768791,70.07910352683793,-34.59238489553417,69.08617122581005,-37.38275377607269,67.89729314073385,-37.964969584999494,67.75130896260661,-36.82708773322115,67.96276708858515,-37.37284846684595,67.79537086860907,-39.19079226229354,66.99360810247121,-40.46145962591905,66.29144428502605,-44.1808878545463,64.34344569470298,-42.72118777313975,65.21366300585656,-43.622017569652655,64.59095737698193,-45.76805484144556,63.39479581391073,-47.060889214523854,62.64040391903096,-47.80070091020191,62.15931803174665,-49.868780809932076,60.880732395115686,-51.13016386014782,59.75389497232227,-49.80522169540551,60.46242524138751,-51.91227473872432,59.520533188593575,-52.065582626334745,59.25031613986408,-54.12498569810204,57.74605834198694,-55.16361788619251,57.06381433306767,-54.841128057380985,56.90666713144125,-56.3325402981868,55.732766082995354,-59.3971850395225,53.23544443000944,-60.54731009345254,52.510558642537106,-60.27932414284942,52.41460447023236,-61.71512076312986,50.96394995649993,-60.70844839209772,51.844351341510745,-63.85491216110178,49.13739763373246,-64.06181317210029,48.57786290747059,-65.69928948962898,47.319798136285314,-66.88964339300982,45.675346964599015,-65.19855443939795,47.695177336566346,-67.9451544296869,44.62069210974546,-67.0025107804666,45.27828748879587,-69.54526983435832,42.60865323181509,-70.90797272163888,41.2704538229941,-71.05506547663427,40.77081774491896,-70.54097425869844,41.48337092686667,-71.68241738812662,39.41818734623145,-73.524337353533,36.84561763539402,-73.55629020927057,37.2420461425924,-73.77181964080562,36.429338411491656,-74.75644184423648,35.47484447563113,-75.8719766532928,33.360880442552585,-76.29539251039644,33.015856322406286,-76.44440253968064,32.11707149626665,-76.79063132670838,32.29056773197472,-78.22131681969826,29.515181886987286,-78.78411483112046,28.54732179968606,-79.38351084475673,26.9038536588986,-79.564766776425,26.6873180061632,-80.33416344014867,24.365510684150124,-81.25868694381825,23.19437377781255,-81.04665517814125,22.582621396077645,-81.52714850285093,21.306317445715514,-81.40489090891019,21.375444255143115,-81.87422289671179,20.55137429702563,-82.32680870351838,18.9911115964474,-82.6089631195489,18.817548000084834,-83.20667422465708,15.952897111138812,-83.23491533585884,16.002449681612944,-83.59662904133174,15.118846256688167,-84.39194306323087,11.951384392388338,-84.69376903598688,11.837168265711625,-85.00729544693218,10.821191323140331,-84.76536710876947,9.103287028200102,-85.50752929994253,6.786312909021124,-85.45342075622072,6.5830142761550885,-85.53235379583478,5.78310523508818,-85.8853839205296,4.770953882134123,-85.98751475202276,2.4315387009834684,-86.13788662608057,2.7112379702890905,-86.19969857558766,2.2112090356970118,-86.07077432589223,-1.6943145620280475,-86.04600037387812,-2.9802496157611085,-85.8623906195815,-2.1899330804947503,-86.17728207940756,-5.106623074401497,-86.04105146647777,-4.931753517287376,-86.32969586772475,-4.664284653063847,-86.21244361370283,-8.029869230637111,-86.11154760862316,-9.355509783954854,-85.88959963624995,-11.314089922350291,-85.75619732210414,-10.764265484758287,-85.37554912163027,-10.991581914733388,-85.62263197195863,-12.199744608583632,-85.02748624701961,-14.580678674784114,-84.46349472628184,-16.210692775080698,-84.35386891054166,-16.7623867492363,-84.56974414673456,-16.252546530858584,-84.17847795944043,-19.723435562969758,-83.89108860547138,-20.5663032184376,-83.40844877239375,-21.273584654322658,-82.84707774789986,-23.28396376899155,-82.35357972198639,-24.384990521416054,-82.78194116719638,-24.238550097463172,-81.59882436470701,-27.08325011911479,-81.40265800589818,-27.453912921565607,-80.54848720105024,-28.403524003027403,-81.2293413348042,-27.650286543722384,-80.23796135348887,-30.030066471991386,-79.70837164423375,-30.605444321966562,-78.9971542117143,-31.97742456487575,-78.54410184151398,-33.23635888794233,-77.63876252514459,-34.86877591076147,-78.02247885799116,-34.63139152814311,-77.44483662614961,-34.86385864707344,-75.5590186762869,-37.90137820063114,-76.01563274866163,-37.831225200857844,-75.5920788398478,-38.460391332595904,-73.62002049679246,-40.9225846587517,-74.75039141835241,-39.59628674827728,-73.39512170306203,-41.61268486467573,-72.97872416959076,-42.33340371306936,-72.26466870895099,-43.255873869245676,-70.21798761084897,-45.33573489732029,-70.31332599172782,-45.361955193566885,-68.78335019309996,-46.94638099740732,-68.94204738987254,-47.38180300147005,-67.46560518407256,-48.622312349231606,-65.79580011308785,-50.53220783612994,-65.45994973525588,-50.692647093314505,-64.27820075089825,-51.90217526355384,-62.59196387810452,-53.070338421053705,-61.45103698848493,-54.41518562483638,-60.771440507781094,-54.767982910641464,-61.767404440627914,-54.00225123254141,-59.89079425991031,-55.93749078388903,-59.455883833161295,-56.20911776319174,-58.010907603407546,-57.068559481393336,-56.173684124914345,-58.19969502179342,-54.97806768799934,-59.69628236711469,-55.780547387389646,-58.99481401810202,-54.83973764485057,-59.537362715737686,-53.31199824834442,-60.49753225472146,-51.95488232902335,-61.32772034842135,-49.53155293557546,-62.876153928158644,-47.87765549079381,-64.00131665541468,-48.549276260814054,-63.513999523882816,-46.28142720412083,-64.86358880574367,-46.08512512745369,-65.04644213333593,-44.222474799949026,-65.89848588593162,-43.68790638460965,-66.24344423166686,-41.876969214154684,-66.95901372316756,-40.781740120265866,-67.72031962709754,-38.78536376895855,-68.34010954947284,-39.568054742404115,-67.96140502537844,-36.67885018220824,-69.32399068608164,-36.36559091953568,-69.49969682051632,-32.75882594554872,-70.97766271350152,-31.19976699512627,-71.208104062819,-30.093640511286377,-71.66616205139445,-30.217318583834494,-71.67703879297882,-28.213194164095494,-72.2610332091206,-26.674163256135138,-72.6349941139536,-28.18128423169333,-72.33071442757618,-23.233259737125614,-73.65359860983392,-24.535459768631874,-73.28466851154697,-21.63364764720069,-73.96079811017792,-19.986663298584784,-74.52391767878159,-21.417337965310814,-74.33216793181587,-20.410184727447827,-74.53681758981753,-17.474223827238237,-75.02368477794457,-15.681440721376898,-75.44963709750616,-12.07144476424839,-75.9449121617063,-14.275980264652208,-75.68136234484976,-10.491896348351839,-76.08654636336128,-11.84176001027731,-75.8363773025098,-9.69820162538023,-76.13979234841251,-5.658795132942451,-76.57035419322902,-6.372265420911521,-76.58195661112974,-4.3817092123916925,-76.79099120692118,-2.792767303706463,-76.73018992966088,-1.3049144404198714,-76.74904599365495,2.0509948146539707,-76.89780238821339,1.317603945791721,-76.87209906620548,3.848803765637194,-76.7201546696429,4.414662907929901,-76.85420941358652,7.001666469284818,-76.76312221911685,7.601630788196749,-76.77586452670087,7.5087270385735465,-76.76306115994575,10.015159924950371,-76.60738111772416,10.226480053761208,-76.64087506029651,14.868503033556308,-76.14319693722777,13.738090365852052,-76.24285640286467,14.35826321807264,-76.27017416237355,18.782609792701425,-75.56256257368678,18.152202509742906,-75.5977856695524,19.91212621229649,-75.24008064386959,19.53217737507828,-75.28789829812298,23.691869381913346,-74.5688985325211,22.00681523351803,-74.96957355962714,24.0380413635349,-74.59888013127367,26.381708926056138,-73.9246136286916,26.60906087929107,-73.99332477394019,27.159951095974474,-73.81142330492304,29.49290234342614,-73.16899969493541,32.65934337184272,-72.26113157560205,34.84495091622934,-71.40738497172761,32.48249253048087,-72.2619800137226,36.391241993884705,-71.01315925350634,37.15098207428922,-70.88696567295017,36.82776514669405,-70.723056881792,38.41864097747323,-69.97272399448167,41.07924334828128,-69.12637346055338,42.90906353057099,-68.40369640028088,42.962872648759244,-68.25117829047527,44.837752559070395,-67.12741194171294,44.129936624385024,-67.75988800168692,46.15984165029738,-66.52804206652648,46.95331441963866,-66.35179439157265,48.794132528122546,-65.35927281467903,49.79787440300973,-64.80921358789267,50.730174098973606,-64.12129615772336,52.195799853836164,-63.488650196159156,53.96025994737951,-62.25632559393431,55.41126112281928,-60.9174382127742,54.547866513987344,-61.91381153066503,56.842366211764215,-60.100798037757684,58.44315266301817,-58.97252264513142,59.305787439082735,-58.09381221299459,59.010907287984054,-58.365891697420395,62.11895548702485,-55.91167345227774,61.54140283125159,-56.55309376094594,63.89722038220924,-54.461649137182675,62.707061007836884,-55.496998299675894,64.90062715019498,-53.33040361886815,65.56009694135567,-52.48940642411844,65.26336269061404,-53.058021890151295,67.4503832529218,-50.578268229139496,68.74766540937118,-49.23598092228279,69.11955542997974,-48.76700593651161,70.76499342032598,-47.18791678242138,70.84182349383747,-46.73930492771922,70.3077565208643,-47.14113205110242,71.5121919573829,-45.535754278092284,74.2016292075697,-42.81703506414357,73.19608164931749,-44.01296958094616,74.77420705407319,-41.40718052266793,75.1025754089559,-40.87643112683219,76.20106920659805,-39.331404667471645,76.0785356105517,-39.38593557970965,76.33961694414538,-38.345398963524275,77.31447052555201,-36.75091801965837,78.3493899286308,-35.52695207534144,79.34524817403187,-33.41063452035361,79.57517864332631,-33.12800489797557,79.81685191173548,-32.58775531582377,80.58765948942494,-30.6706873279873,79.94938459090683,-32.02995908093499,80.80962085996252,-29.886831215866376,81.68560448636823,-27.14857202304533,81.44435060582339,-27.677586085463123,82.52555436313038,-25.614850126524683,83.10715065681232,-23.982074550949786,83.30433998874221,-23.592599870454745,83.66303577576224,-21.92152608767503,84.19824428435021,-20.677065215151824,84.26338955268135,-19.066253039078422,84.57796673908207,-18.961568902884192,84.88579678434208,-16.520034361335856,85.15457209570727,-15.299091843751398,84.96467261723889,-14.449524066416998,85.19839521692236,-12.90823212855825,85.46069329941949,-11.149821022313748,85.309182944927,-12.062992909600887,86.00192812463241,-8.910457517428046,85.61752975592154,-9.52078794637207,86.06347295241581,-9.221667290875214,85.83622561937182,-6.263461851364774,86.34191791276228,-5.34796576487744,85.86755342781714,-5.722931439355026,85.8897150015898,-2.9055218699418592,86.1198974840017,-2.4930985423669316,85.77264230932118,1.0260123423914962,86.26756251241763,0.14102720414024184" fill="#ffc9a9" stroke="black" stroke-width="1.6537956782680057" stroke-linejoin="round" filter="url(#fuzzy)"/><g data-v-644c7455="" transform="translate(41.369170656219296 -21.473344022277747)"><polyline data-v-644c7455="" id="rightCountour" points="-37.94688175970587,-2.7738942368782213,-37.397438756158095,-3.1544249723539597,-36.79959927069562,-3.53952641136984,-36.15543656118967,-3.9269708474937186,-35.46700936893211,-4.314660204365682,-34.73636104281113,-4.700623035938756,-33.96551866348677,-5.083011526719611,-33.15649216756657,-5.460098492009287,-32.311273471781206,-5.830274378143882,-31.43183559716006,-6.192044262735285,-30.520131793206843,-6.54402485491188,-29.578094662075216,-6.884941495559241,-28.60763528274436,-7.213625157560873,-27.61064233519466,-7.5290094460389,-26.58898122458323,-7.830127598594787,-25.544493205419585,-8.116109485550039,-24.37457638385233,-8.609198652923217,-23.16957091346613,-9.07059525758976,-21.932324029111818,-9.498656066511382,-20.665785002524117,-9.892061667302244,-19.372984150592963,-10.249795731988913,-18.057012885117526,-10.571124942625355,-16.72100478356935,-10.855579568208066,-15.368117660390798,-11.10293468233643,-14.00151661835509,-11.31319201106342,-12.624358059514133,-11.48656240038168,-11.23977463526043,-11.623448892790142,-9.850861115029332,-11.724430402386199,-8.460661153167864,-11.79024597792859,-7.072154933496357,-11.821779643316079,-5.688247671089172,-11.820045804926929,-4.311758950800762,-11.78617521526442,-2.9454128820632883,-11.72140148235336,-1.5918290494821203,-11.627048114332732,-0.25351423875534884,-11.504516088689622,1.0671450825563014,-11.355271935579415,2.3678895498830084,-11.180836324677417,3.646592972596549,-10.982773145006997,4.901267711531895,-10.762679067189302,6.130069383553478,-10.522173577559654,7.3313009136398595,-10.262889473595775,8.50341595496055,-9.986463810102778,9.645021697418757,-9.694529285600208,10.754881085133762,-9.388706058356084,11.831914463336735,-9.070593981513099,12.875200675153659,-8.741765246752038,13.88397762874917,-8.403757425937508,14.857642355305066,-8.058066900191106,15.795750578307226,-7.706142665837071,16.6980158146146,-7.349380506665533,17.564308027784193,-6.989117521958445,18.394651854125627,-6.626626999723287,19.189224421959096,-6.2631136245796455,19.948352784550522,-5.899709009743736,20.67251098719757,-5.537467542556001,21.36231678894027,-5.177362532996797,22.01852805937005,-4.8202826546353705,22.642038871010925,-4.467028667457079,23.233875307746573,-4.118310412014129,23.795191009767024,-3.7747440643447057,24.327262475508697,-3.4368496411057663,24.831484141061644,-3.1050487443644927,25.30936325751769,-2.779662535493518,25.76251458673306,-2.4609099276150284,26.19265493597954,-2.1489059860388062,26.601597551957703,-1.8436605261393435,26.989606508503982,-1.5448421255639468,27.35615864888053,-1.2522792317848799,27.701963950381753,-0.9661197406145936,28.0277417593797,-0.6864832923883526,28.334218049304226,-0.4134626855681276,28.622122678622993,-0.14712529034649702,28.892186648821585,0.11248553774945425,29.145139362383624,0.3653490442542422,29.381705880770753,0.6114656621600689,29.602604182402835,0.8508555983129309,29.808542420637927,1.0835574198087294,30.00021618175247,1.309626640389352,30.178305742921232,1.5291343068387908,30.34347333019751,1.7421655853792313,24.606705372284722,7.037795649736909,24.118869636060914,7.2547334802855605,23.61652573834978,7.468838716894739,23.09940537977635,7.679776062363313,22.56725070164355,7.887196873757063,22.019815224295655,8.090740948777736,21.456864785481862,8.290038312132099,20.878178478719704,8.484711001900989,20.283549591658563,8.674374855908363,19.67278654444314,8.858641298090356,19.04571382807697,9.037119124864322,18.40217294278591,9.2094162914979,17.74202333638158,9.375141698478048,17.065143342624886,9.533906977880108,16.371431119589523,9.685328279736853,15.659811884969974,9.830638964074303,14.928858330687346,9.97066587742001,14.178020023177803,10.104455679994263,13.406834085276786,10.23110459782846,12.61492658980742,10.349760620009185,11.802013816410861,10.45962561275725,10.967903364611933,10.559957337003485,10.11249511611364,10.650071356123025,9.235782039314094,10.729342820489887,8.337850829039501,10.797208115513637,7.418882374486602,10.853166359819866,6.479152048368304,10.896780740236327,5.519029810255859,10.927679670246452,4.538980117111327,10.94555775857204,3.5395616340037446,10.950176574546933,2.521426738002619,10.941365196943401,1.4853208082422622,10.919020532913047,0.43208129515055127,10.883107393703986,-0.6373634381643285,10.83365831381613,-1.721995509375688,10.770773100256289,-2.82070915225499,10.694618098554889,-3.932312600849958,10.605425162206114,-5.055530229530443,10.503490312193223,-6.189004955908617,10.3891720732608,-7.3313009136398595,10.262889473595777,-8.480906402110818,10.12511969457892,-9.63623712002109,9.976395357268661,-10.79563968986496,9.817301432278946,-11.957395480319645,9.648471759712962,-13.119724733546514,9.470585165814477,-14.280791004411688,9.284361162998575,-15.438705918632506,9.090555219923573,-16.5915342568563,8.8899535882659,-17.737299371677892,8.683367672859701,-18.87398894460231,8.471627931862965,-19.99956108995914,8.255577293611928,-21.111950812774943,8.036064076825545,-22.20907682761024,7.813934400821822,-23.288848745367474,7.59002407240776,-24.349174635076388,7.365149936104691,-25.387968967663305,7.140100674370814,-26.403160948710713,6.915627044482658,-27.39270324721361,6.6924315387373134,-28.354581127339138,6.471157454637144,-29.28682199019579,6.252377361718803,-30.187505332618812,6.036580951688322,-31.054773129978116,5.824162258524019,-31.886840650015245,5.615406235209069,-32.68200770471574,5.410474673755432,-33.438670347223486,5.209391455180989,-34.12984953553799,4.972273867146993,-34.792844311984865,4.730777713481623,-35.42625016844595,4.484559296006238,-36.02864198755172,4.233228248782163,-36.59857442458629,3.9763457979984453,-37.13458228939231,3.713423021859607,-37.63518092827597,3.443919110473412,-38.098866605911944,3.1672396257386137,-38.524116887248375,2.8827347612327205,-38.90939101941183,2.5896976020997498,-39.25313031361224,2.287362384937982,-39.5537585270479,1.974902757687727,-39.80968224481043,1.651430039519075,-40.01929126178968,1.3159914807196547,-40.1809589645788,0.9675685225823982" fill="white" stroke="white" stroke-width="0" stroke-linejoin="round" filter="url(#fuzzy)"/></g><g data-v-644c7455="" transform="translate(-50.14901909000221 -19.730747036271037)"><polyline data-v-644c7455="" id="leftCountour" points="37.398707888024425,-3.826309972880126,37.17302213393258,-4.192699080873227,36.87991730801069,-4.564212645728041,36.522297943323096,-4.938747904644421,36.10302956473994,-5.314320481869826,35.62493817784073,-5.689061704202981,35.090809757818,-6.061215916497572,34.503389738380896,-6.4291377971659305,33.865382500658846,-6.791289673682707,33.17945086210518,-7.146238838088559,32.448215565400716,-7.492654862493831,31.674254767357425,-7.829306914582231,30.860103527822027,-8.155061073114537,30.008253298579632,-8.468877643432245,29.121151412257362,-8.769808472961282,28.20120057122797,-9.056994266715668,27.151445935044357,-9.537813532313008,26.057276472912456,-9.990052570521463,24.922019331014447,-10.412075741581722,23.749090231823324,-10.802540773101653,22.541972382460116,-11.160380928947628,21.304196444371655,-11.484787715442627,20.039321543495568,-11.77519411671824,18.750917300079127,-12.031258351067823,17.442546857318618,-12.252848140147949,16.117750887985796,-12.440025482875361,14.780032558208129,-12.593031925866557,13.43284342756948,-12.712274322267271,12.079570264697836,-12.798311070818981,10.723522757506707,-12.851838827009638,9.367922097256876,-12.873679678155769,8.015890415605137,-12.864768774263231,6.670441053806608,-12.826142406513666,5.334469643237368,-12.758926525223968,4.010745976403907,-12.664325689125834,2.7019066476061564,-12.54361243781268,1.4104484424207158,-12.398117079201029,0.13872245517081971,-12.22921788385361,-1.1110710864501492,-12.038331678011314,-2.336887310435113,-11.826904827181163,-3.536840524033032,-11.596404602127615,-4.70920739266516,-11.348310919114182,-5.852429495021418,-11.0841084462427,-6.965115275170014,-10.80527906773738,-8.046041412513816,-10.513294698020836,-9.094153630426785,-10.209610437429232,-10.108566964403785,-9.895658061413796,-11.08856551055726,-9.572839835075836,-12.033601675293994,-9.242522644882456,-12.94329494700536,-8.906032439410163,-13.817430210604527,-8.564648970963537,-14.655955625743783,-8.219600829916137,-15.45898008954548,-7.872060763620874,-16.226770304679967,-7.523141271736966,-16.959747473623764,-7.173890469820714,-17.658483639931436,-6.825288213027248,-18.323697697354483,-6.478242471770438,-18.956251087640602,-6.133585951188163,-19.55714320784668,-5.792072946260115,-20.127506547998976,-5.454376424425293,-20.668601579933615,-5.121085327546433,-21.18181141815107,-4.792702085068486,-21.66863627351775,-4.469640330218366,-22.130687720648027,-4.152222811093176,-22.56968279980037,-3.8406794884840094,-22.98743797412064,-3.535145812282634,-23.38422744013186,-3.2352073752838706,-23.759534738888995,-2.940551784301058,-24.11407027000289,-2.6513749876875794,-24.44855425634342,-2.367846219268962,-24.763713953857277,-2.0901090902379984,-25.060280861385827,-1.8182826810498405,-25.33898793048303,-1.55246263331715,-25.600566775233276,-1.292722241705178,-25.84574488206922,-1.039113545826912,-26.075242819589732,-0.7916684221381747,-26.2897714483777,-0.5503996758327414,-26.49002913081788,-0.31530213273746677,-26.676698940914847,-0.08635373120738654,-26.850445874110775,0.13648338597915588,-21.92020856832484,7.562704802548235,-21.51413063099877,7.836711521040534,-21.09751682930132,8.107998764915925,-20.670248421453785,8.376088579141282,-20.232214065068803,8.640481239275308,-19.783309326553997,8.900657889991859,-19.3234361905158,9.156083183603194,-18.852502569163022,9.406207918583295,-18.370421811710678,9.65047167809114,-17.877112213783622,9.888305468493995,-17.372496526820285,10.119134357890694,-16.8565014674764,10.342380114634949,-16.329057227028663,10.55746384585861,-15.790096980778479,10.763808635994971,-15.239556397455669,10.960842185302063,-14.676121652729499,11.150273892374656,-14.098336500996037,11.333243443820974,-13.5059325486515,11.508377055185475,-12.898653259628503,11.674367792888862,-12.276255454031979,11.829978994868437,-11.638510809699419,11.974047579353595,-10.985207370348231,12.105487222075437,-10.316151063973429,12.22329138220952,-9.631167235158838,12.326536157350787,-8.93010219496481,12.414382947819716,-8.21282479205567,12.486080910598677,-7.479228008729962,12.540969183197541,-6.72923058551665,12.57847885774761,-5.962778678000312,12.598134685622789,-5.1798475495386,12.599556492887148,-4.380443303534889,12.582460286867821,-3.5646046589293903,12.546659034152286,-2.7324047725717833,12.492063090309058,-1.8839531121384834,12.418680261630824,-1.0193973832576813,12.326615479199054,-0.1389255145052637,12.216070065569063,0.7572322960652453,12.08734057437464,1.6688014691956585,11.940817183151182,2.5954608638358394,11.77698161967639,3.536840524033032,11.596404602127615,4.49251934963476,11.399742773354749,5.462022687142074,11.18773510956782,6.4448198370501535,10.961198783738228,7.440321474012986,10.721024464012695,8.447876976169166,10.468171027438938,9.466771659965579,10.203659669302084,10.496223916815898,9.92856738837087,11.535382247930796,9.644019828352647,12.583322193656688,9.351183455856203,13.639043153659943,9.051257055161457,14.701465094293443,8.745462520095025,15.769425139482323,8.435034923310681,16.841674041465822,8.121211843273791,17.916872527732117,7.805221929248656,18.993587520482976,7.488272684587881,20.07028822496521,7.171537448622733,21.145342083005687,6.856141557453551,22.217010588086865,6.543147663939213,23.283444958299693,6.233540197184695,24.342681663510803,5.928208941825736,25.39263780308082,5.627931717409677,26.43110633047069,5.333356138171428,27.455751121072925,5.04498043350366,28.464101879604634,4.763133309420203,29.453548883399193,4.487952831311695,30.241821403548617,4.164348505435319,31.009085941599306,3.8359027818133815,31.75328125854183,3.502227700449005,32.47225233204025,3.162872819664558,33.163748393297155,2.817322809466686,33.82542096391876,2.4649950449113573,34.45482189277993,2.1052371994689105,35.049401392889294,1.7373248383890862,35.60650607825426,1.360459012066074,36.12337700074614,0.9737638494035581,36.59714768696517,0.5762841511797472,37.02484217510559,0.1669829834124288,37.403373051820736,-0.2552607292759981,37.729539489088054,-0.6916546102934769,38.00002528107422,-1.1434952377132444" fill="white" stroke="white" stroke-width="0" stroke-linejoin="round" filter="url(#fuzzy)"/></g><g data-v-644c7455="" transform="translate(41.369170656219296 -21.473344022277747)"><polyline data-v-644c7455="" id="rightUpper" points="-40.31476260441753,0.19123798836164507,-40.36588103594683,0.009601585836615634,-40.34726467635203,-0.20667218556602318,-40.2610837789562,-0.45389433193096984,-40.109502838746934,-0.7285354870080303,-39.89467971655205,-1.0272229124528494,-39.618764763215125,-1.346737498067605,-39.283899943771175,-1.6840107620417228,-38.892217961622194,-2.0361218511925925,-38.4458413827128,-2.4002945412062786,-37.94688175970587,-2.7738942368782213,-37.397438756158095,-3.1544249723539597,-36.79959927069562,-3.53952641136984,-36.15543656118967,-3.9269708474937186,-35.46700936893211,-4.314660204365682,-34.73636104281113,-4.700623035938756,-33.96551866348677,-5.083011526719611,-33.15649216756657,-5.460098492009287,-32.311273471781206,-5.830274378143882,-31.43183559716006,-6.192044262735285,-30.520131793206843,-6.54402485491188,-29.578094662075216,-6.884941495559241,-28.60763528274436,-7.213625157560873,-27.61064233519466,-7.5290094460389,-26.58898122458323,-7.830127598594787,-25.544493205419585,-8.116109485550039,-24.37457638385233,-8.609198652923217,-23.16957091346613,-9.07059525758976,-21.932324029111818,-9.498656066511382,-20.665785002524117,-9.892061667302244,-19.372984150592963,-10.249795731988913,-18.057012885117526,-10.571124942625355,-16.72100478356935,-10.855579568208066,-15.368117660390798,-11.10293468233643,-14.00151661835509,-11.31319201106342,-12.624358059514133,-11.48656240038168,-11.23977463526043,-11.623448892790142,-9.850861115029332,-11.724430402386199,-8.460661153167864,-11.79024597792859,-7.072154933496357,-11.821779643316079,-5.688247671089172,-11.820045804926929,-4.311758950800762,-11.78617521526442,-2.9454128820632883,-11.72140148235336,-1.5918290494821203,-11.627048114332732,-0.25351423875534884,-11.504516088689622,1.0671450825563014,-11.355271935579415,2.3678895498830084,-11.180836324677417,3.646592972596549,-10.982773145006997,4.901267711531895,-10.762679067189302,6.130069383553478,-10.522173577559654,7.3313009136398595,-10.262889473595775,8.50341595496055,-9.986463810102778,9.645021697418757,-9.694529285600208,10.754881085133762,-9.388706058356084,11.831914463336735,-9.070593981513099,12.875200675153659,-8.741765246752038,13.88397762874917,-8.403757425937508,14.857642355305066,-8.058066900191106,15.795750578307226,-7.706142665837071,16.6980158146146,-7.349380506665533,17.564308027784193,-6.989117521958445,18.394651854125627,-6.626626999723287,19.189224421959096,-6.2631136245796455,19.948352784550522,-5.899709009743736,20.67251098719757,-5.537467542556001,21.36231678894027,-5.177362532996797,22.01852805937005,-4.8202826546353705,22.642038871010925,-4.467028667457079,23.233875307746573,-4.118310412014129,23.795191009767024,-3.7747440643447057,24.327262475508697,-3.4368496411057663,24.831484141061644,-3.1050487443644927,25.30936325751769,-2.779662535493518,25.76251458673306,-2.4609099276150284,26.19265493597954,-2.1489059860388062,26.601597551957703,-1.8436605261393435,26.989606508503982,-1.5448421255639468,27.35615864888053,-1.2522792317848799,27.701963950381753,-0.9661197406145936,28.0277417593797,-0.6864832923883526,28.334218049304226,-0.4134626855681276,28.622122678622993,-0.14712529034649702,28.892186648821585,0.11248553774945425,29.145139362383624,0.3653490442542422,29.381705880770753,0.6114656621600689,29.602604182402835,0.8508555983129309,29.808542420637927,1.0835574198087294,30.00021618175247,1.309626640389352,30.178305742921232,1.5291343068387908,30.34347333019751,1.7421655853792313,30.49636037649318,1.9488183480671588,30.637584779558722,2.1492017591894554,30.767738159963365,2.3434348616595058,30.887383119075153,2.5316451634132893,30.997050497041002,2.7139672238054886,31.097236630766766,2.890541240005592,31.18840061189743,3.0615116333939802,31.270961544796997,3.227025635958042,31.34529580452876,3.387231876688266,31.411734294835284,3.5422789679743447" fill="none" stroke="black" stroke-width="1.6537956782680057" stroke-linejoin="round" stroke-linecap="round" filter="url(#fuzzy)"/><polyline data-v-644c7455="" id="rightLower" points="-38.792041404051645,-3.5054230738487178,-39.20258734378071,-2.9554132343562562,-39.54810739802101,-2.4325757006743105,-39.83037125837402,-1.935138117975459,-40.051136027194104,-1.4614113415493968,-40.21214583568352,-1.0097876966907116,-40.31513146198751,-0.5787392385866239,-40.361809949289274,-0.1668160122047544,-40.35388422390504,0.22735568781911297,-40.29304271337908,0.6050750572932859,-40.1809589645788,0.9675685225823982,-40.01929126178968,1.3159914807196547,-39.80968224481043,1.651430039519075,-39.5537585270479,1.974902757687727,-39.25313031361224,2.287362384937982,-38.90939101941183,2.5896976020997498,-38.524116887248375,2.8827347612327205,-38.098866605911944,3.1672396257386137,-37.63518092827597,3.443919110473412,-37.13458228939231,3.713423021859607,-36.59857442458629,3.9763457979984453,-36.02864198755172,4.233228248782163,-35.42625016844595,4.484559296006238,-34.792844311984865,4.730777713481623,-34.12984953553799,4.972273867146993,-33.438670347223486,5.209391455180989,-32.68200770471574,5.410474673755432,-31.886840650015245,5.615406235209069,-31.054773129978116,5.824162258524019,-30.187505332618812,6.036580951688322,-29.28682199019579,6.252377361718803,-28.354581127339138,6.471157454637144,-27.39270324721361,6.6924315387373134,-26.403160948710713,6.915627044482658,-25.387968967663305,7.140100674370814,-24.349174635076388,7.365149936104691,-23.288848745367474,7.59002407240776,-22.20907682761024,7.813934400821822,-21.111950812774943,8.036064076825545,-19.99956108995914,8.255577293611928,-18.87398894460231,8.471627931862965,-17.737299371677892,8.683367672859701,-16.5915342568563,8.8899535882659,-15.438705918632506,9.090555219923573,-14.280791004411688,9.284361162998575,-13.119724733546514,9.470585165814477,-11.957395480319645,9.648471759712962,-10.79563968986496,9.817301432278946,-9.63623712002109,9.976395357268661,-8.480906402110818,10.12511969457892,-7.3313009136398595,10.262889473595777,-6.189004955908617,10.3891720732608,-5.055530229530443,10.503490312193223,-3.932312600849958,10.605425162206114,-2.82070915225499,10.694618098554889,-1.721995509375688,10.770773100256289,-0.6373634381643285,10.83365831381613,0.43208129515055127,10.883107393703986,1.4853208082422622,10.919020532913047,2.521426738002619,10.941365196943401,3.5395616340037446,10.950176574546933,4.538980117111327,10.94555775857204,5.519029810255859,10.927679670246452,6.479152048368304,10.896780740236327,7.418882374486602,10.853166359819866,8.337850829039501,10.797208115513637,9.235782039314094,10.729342820489887,10.11249511611364,10.650071356123025,10.967903364611933,10.559957337003485,11.802013816410861,10.45962561275725,12.61492658980742,10.349760620009185,13.406834085276786,10.23110459782846,14.178020023177803,10.104455679994263,14.928858330687346,9.97066587742001,15.659811884969974,9.830638964074303,16.371431119589523,9.685328279736853,17.065143342624886,9.533906977880108,17.74202333638158,9.375141698478048,18.40217294278591,9.2094162914979,19.04571382807697,9.037119124864322,19.67278654444314,8.858641298090356,20.283549591658563,8.674374855908363,20.878178478719704,8.484711001900989,21.456864785481862,8.290038312132099,22.019815224295655,8.090740948777736,22.56725070164355,7.887196873757063,23.09940537977635,7.679776062363313,23.61652573834978,7.468838716894739,24.118869636060914,7.2547334802855605,24.606705372284722,7.037795649736909,25.080310748710616,6.818345390347785,25.539972130978924,6.596685948746,25.98598351031739,6.37310186671912,26.418645565177734,6.147857194845429,26.83826472287214,5.921193706124862,27.245152221209757,5.6933291096099605,27.639623170133234,5.464455264036822,28.021995613355237,5.234736391456044,28.39258958999494,5.00430729086368,28.75172619621454,4.773271551832175" fill="none" stroke="black" stroke-width="1.6537956782680057" stroke-linejoin="round" stroke-linecap="round" filter="url(#fuzzy)"/><circle data-v-644c7455="" r="4.196383690077097" cx="17.718192575444125" cy="-1.591515043354731" stroke="black" fill="none" stroke-width="1.165961364699511" filter="url(#fuzzy)" clip-path="url(#rightEyeClipPath)"/><circle data-v-644c7455="" r="4.5736088074303005" cx="15.29097131743259" cy="1.37124106730551" stroke="black" fill="none" stroke-width="1.3988687594829412" filter="url(#fuzzy)" clip-path="url(#rightEyeClipPath)"/><circle data-v-644c7455="" r="3.400228319133325" cx="14.455280839568879" cy="-1.1343874339253313" stroke="black" fill="none" stroke-width="1.142940177407966" filter="url(#fuzzy)" clip-path="url(#rightEyeClipPath)"/><circle data-v-644c7455="" r="3.4857051867277713" cx="15.383442788320394" cy="1.621669010710444" stroke="black" fill="none" stroke-width="1.1160422963221137" filter="url(#fuzzy)" clip-path="url(#rightEyeClipPath)"/><circle data-v-644c7455="" r="3.1813738079854077" cx="18.46133345829111" cy="-0.5598740865661167" stroke="black" fill="none" stroke-width="1.0573130695390298" filter="url(#fuzzy)" clip-path="url(#rightEyeClipPath)"/><circle data-v-644c7455="" r="3.0393267346848623" cx="17.706296381783403" cy="1.0511766540462464" stroke="black" fill="none" stroke-width="1.4530773718111665" filter="url(#fuzzy)" clip-path="url(#rightEyeClipPath)"/><circle data-v-644c7455="" r="4.562599806088578" cx="13.78914071298719" cy="0.06997118544926906" stroke="black" fill="none" stroke-width="1.0036223196137364" filter="url(#fuzzy)" clip-path="url(#rightEyeClipPath)"/><circle data-v-644c7455="" r="3.314701875991548" cx="15.805917649112956" cy="-1.0164674938238727" stroke="black" fill="none" stroke-width="1.1713503846015474" filter="url(#fuzzy)" clip-path="url(#rightEyeClipPath)"/><circle data-v-644c7455="" r="4.517333237140585" cx="18.40793760010856" cy="0.42218154966435684" stroke="black" fill="none" stroke-width="1.0342328833938936" filter="url(#fuzzy)" clip-path="url(#rightEyeClipPath)"/><circle data-v-644c7455="" r="3.5630981403831763" cx="17.729993220721173" cy="0.8329860320128777" stroke="black" fill="none" stroke-width="1.1750547977648167" filter="url(#fuzzy)" clip-path="url(#rightEyeClipPath)"/></g><g data-v-644c7455="" transform="translate(-50.14901909000221 -19.730747036271037)"><polyline data-v-644c7455="" id="leftUpper" points="35.281651560198895,-0.9968929370311539,35.89812221176996,-1.1684209570618025,36.41609545138721,-1.3732029387630735,36.838837783756645,-1.6078046015614254,37.16958181635384,-1.8689368968940832,37.41152574832749,-2.1534533237127294,37.5678328594031,-2.458347243987175,37.64163099878652,-2.780749198209051,37.63601207406765,-3.1179242208954836,37.55403154012401,-3.467269156092783,37.398707888024425,-3.826309972880126,37.17302213393258,-4.192699080873227,36.87991730801069,-4.564212645728041,36.522297943323096,-4.938747904644421,36.10302956473994,-5.314320481869826,35.62493817784073,-5.689061704202981,35.090809757818,-6.061215916497572,34.503389738380896,-6.4291377971659305,33.865382500658846,-6.791289673682707,33.17945086210518,-7.146238838088559,32.448215565400716,-7.492654862493831,31.674254767357425,-7.829306914582231,30.860103527822027,-8.155061073114537,30.008253298579632,-8.468877643432245,29.121151412257362,-8.769808472961282,28.20120057122797,-9.056994266715668,27.151445935044357,-9.537813532313008,26.057276472912456,-9.990052570521463,24.922019331014447,-10.412075741581722,23.749090231823324,-10.802540773101653,22.541972382460116,-11.160380928947628,21.304196444371655,-11.484787715442627,20.039321543495568,-11.77519411671824,18.750917300079127,-12.031258351067823,17.442546857318618,-12.252848140147949,16.117750887985796,-12.440025482875361,14.780032558208129,-12.593031925866557,13.43284342756948,-12.712274322267271,12.079570264697836,-12.798311070818981,10.723522757506707,-12.851838827009638,9.367922097256876,-12.873679678155769,8.015890415605137,-12.864768774263231,6.670441053806608,-12.826142406513666,5.334469643237368,-12.758926525223968,4.010745976403907,-12.664325689125834,2.7019066476061564,-12.54361243781268,1.4104484424207158,-12.398117079201029,0.13872245517081971,-12.22921788385361,-1.1110710864501492,-12.038331678011314,-2.336887310435113,-11.826904827181163,-3.536840524033032,-11.596404602127615,-4.70920739266516,-11.348310919114182,-5.852429495021418,-11.0841084462427,-6.965115275170014,-10.80527906773738,-8.046041412513816,-10.513294698020836,-9.094153630426785,-10.209610437429232,-10.108566964403785,-9.895658061413796,-11.08856551055726,-9.572839835075836,-12.033601675293994,-9.242522644882456,-12.94329494700536,-8.906032439410163,-13.817430210604527,-8.564648970963537,-14.655955625743783,-8.219600829916137,-15.45898008954548,-7.872060763620874,-16.226770304679967,-7.523141271736966,-16.959747473623764,-7.173890469820714,-17.658483639931436,-6.825288213027248,-18.323697697354483,-6.478242471770438,-18.956251087640602,-6.133585951188163,-19.55714320784668,-5.792072946260115,-20.127506547998976,-5.454376424425293,-20.668601579933615,-5.121085327546433,-21.18181141815107,-4.792702085068486,-21.66863627351775,-4.469640330218366,-22.130687720648027,-4.152222811093176,-22.56968279980037,-3.8406794884840094,-22.98743797412064,-3.535145812282634,-23.38422744013186,-3.2352073752838706,-23.759534738888995,-2.940551784301058,-24.11407027000289,-2.6513749876875794,-24.44855425634342,-2.367846219268962,-24.763713953857277,-2.0901090902379984,-25.060280861385827,-1.8182826810498405,-25.33898793048303,-1.55246263331715,-25.600566775233276,-1.292722241705178,-25.84574488206922,-1.039113545826912,-26.075242819589732,-0.7916684221381747,-26.2897714483777,-0.5503996758327414,-26.49002913081788,-0.31530213273746677,-26.676698940914847,-0.08635373120738654,-26.850445874110775,0.13648338597915588,-27.011914057103333,0.3532617797253974,-27.161723957663582,0.5640476227210351,-27.300469594453794,0.7689196075471183,-27.428715746845356,0.9679678547809232,-27.54699516473662,1.1612928211008389,-27.65580577837075,1.3490042073912607,-27.755607908153635,1.531219866847459,-27.846821474471724,1.7080647130804723,-27.929823207509905,1.8796696282219885,-28.004943857069343,2.0461703710292296" fill="none" stroke="black" stroke-width="1.6537956782680057" stroke-linejoin="round" filter="url(#fuzzy)"/><polyline data-v-644c7455="" id="leftLower" points="36.826457096286354,-6.865140409027838,37.32195583779663,-6.166229753195198,37.721834206413526,-5.501153590779699,38.03067015849962,-4.867593432132379,38.252906641257375,-4.263343808619156,38.392853555864065,-3.6863098659858737,38.45468972060671,-3.1345049577233484,38.44246483401699,-2.606048238432394,38.3601014380062,-2.099162257188893,38.21139688100017,-1.6121705509088082,38.00002528107422,-1.1434952377132444,37.729539489088054,-0.6916546102934769,37.403373051820736,-0.2552607292759981,37.02484217510559,0.1669829834124288,36.59714768696517,0.5762841511797472,36.12337700074614,0.9737638494035581,35.60650607825426,1.360459012066074,35.049401392889294,1.7373248383890862,34.45482189277993,2.1052371994689105,33.82542096391876,2.4649950449113573,33.163748393297155,2.817322809466686,32.47225233204025,3.162872819664558,31.75328125854183,3.502227700449005,31.009085941599306,3.8359027818133815,30.241821403548617,4.164348505435319,29.453548883399193,4.487952831311695,28.464101879604634,4.763133309420203,27.455751121072925,5.04498043350366,26.43110633047069,5.333356138171428,25.39263780308082,5.627931717409677,24.342681663510803,5.928208941825736,23.283444958299693,6.233540197184695,22.217010588086865,6.543147663939213,21.145342083005687,6.856141557453551,20.07028822496521,7.171537448622733,18.993587520482976,7.488272684587881,17.916872527732117,7.805221929248656,16.841674041465822,8.121211843273791,15.769425139482323,8.435034923310681,14.701465094293443,8.745462520095025,13.639043153659943,9.051257055161457,12.583322193656688,9.351183455856203,11.535382247930796,9.644019828352647,10.496223916815898,9.92856738837087,9.466771659965579,10.203659669302084,8.447876976169166,10.468171027438938,7.440321474012986,10.721024464012695,6.4448198370501535,10.961198783738228,5.462022687142074,11.18773510956782,4.49251934963476,11.399742773354749,3.536840524033032,11.596404602127615,2.5954608638358394,11.77698161967639,1.6688014691956585,11.940817183151182,0.7572322960652453,12.08734057437464,-0.1389255145052637,12.216070065569063,-1.0193973832576813,12.326615479199054,-1.8839531121384834,12.418680261630824,-2.7324047725717833,12.492063090309058,-3.5646046589293903,12.546659034152286,-4.380443303534889,12.582460286867821,-5.1798475495386,12.599556492887148,-5.962778678000312,12.598134685622789,-6.72923058551665,12.57847885774761,-7.479228008729962,12.540969183197541,-8.21282479205567,12.486080910598677,-8.93010219496481,12.414382947819716,-9.631167235158838,12.326536157350787,-10.316151063973429,12.22329138220952,-10.985207370348231,12.105487222075437,-11.638510809699419,11.974047579353595,-12.276255454031979,11.829978994868437,-12.898653259628503,11.674367792888862,-13.5059325486515,11.508377055185475,-14.098336500996037,11.333243443820974,-14.676121652729499,11.150273892374656,-15.239556397455669,10.960842185302063,-15.790096980778479,10.763808635994971,-16.329057227028663,10.55746384585861,-16.8565014674764,10.342380114634949,-17.372496526820285,10.119134357890694,-17.877112213783622,9.888305468493995,-18.370421811710678,9.65047167809114,-18.852502569163022,9.406207918583295,-19.3234361905158,9.156083183603194,-19.783309326553997,8.900657889991859,-20.232214065068803,8.640481239275308,-20.670248421453785,8.376088579141282,-21.09751682930132,8.107998764915925,-21.51413063099877,7.836711521040534,-21.92020856832484,7.562704802548235,-22.315877273045828,7.286432156540721,-22.70127175751199,7.00832008366495,-23.076535905253692,6.728765399589861,-23.441822961577877,6.448132596483088,-23.79729602416421,6.166751204487662,-24.143128533661447,5.884913153198731,-24.479504764283718,5.602870133140273,-24.80662031440677,5.320830957241802,-25.12468259716435,5.038958922315086,-25.433911331044406,4.7573691705308505" fill="none" stroke="black" stroke-width="1.6537956782680057" stroke-linejoin="round" filter="url(#fuzzy)"/><circle data-v-644c7455="" r="3.2886998313574085" cx="-8.123454609943577" cy="2.102338579484287" stroke="black" fill="none" stroke-width="1.2032726294870433" filter="url(#fuzzy)" clip-path="url(#leftEyeClipPath)"/><circle data-v-644c7455="" r="4.783402526033008" cx="-6.78573435289685" cy="-0.5327800216597787" stroke="black" fill="none" stroke-width="1.272151020115666" filter="url(#fuzzy)" clip-path="url(#leftEyeClipPath)"/><circle data-v-644c7455="" r="4.832108303269994" cx="-9.090229987702367" cy="0.4668083770831277" stroke="black" fill="none" stroke-width="1.3594765347818285" filter="url(#fuzzy)" clip-path="url(#leftEyeClipPath)"/><circle data-v-644c7455="" r="4.6590516398691975" cx="-9.15725887307629" cy="0.03343393928752736" stroke="black" fill="none" stroke-width="1.2083320758721317" filter="url(#fuzzy)" clip-path="url(#leftEyeClipPath)"/><circle data-v-644c7455="" r="4.087965617340144" cx="-9.76259191715396" cy="-1.593332954472014" stroke="black" fill="none" stroke-width="1.2625407876017456" filter="url(#fuzzy)" clip-path="url(#leftEyeClipPath)"/><circle data-v-644c7455="" r="4.0566079852949475" cx="-5.635661707846781" cy="-1.9771171947342023" stroke="black" fill="none" stroke-width="1.4758678090818913" filter="url(#fuzzy)" clip-path="url(#leftEyeClipPath)"/><circle data-v-644c7455="" r="3.811287061238778" cx="-7.485012591045866" cy="1.5260616517487868" stroke="black" fill="none" stroke-width="1.4861941254625792" filter="url(#fuzzy)" clip-path="url(#leftEyeClipPath)"/><circle data-v-644c7455="" r="4.031901071861896" cx="-8.031244446489396" cy="1.3834563480065878" stroke="black" fill="none" stroke-width="1.0499032061289912" filter="url(#fuzzy)" clip-path="url(#leftEyeClipPath)"/><circle data-v-644c7455="" r="4.3643152784127555" cx="-5.931846495238651" cy="2.1259259807148556" stroke="black" fill="none" stroke-width="1.2397402112767362" filter="url(#fuzzy)" clip-path="url(#leftEyeClipPath)"/><circle data-v-644c7455="" r="4.9240647203875625" cx="-6.961801166476926" cy="-1.1309511663813607" stroke="black" fill="none" stroke-width="1.3540876630127063" filter="url(#fuzzy)" clip-path="url(#leftEyeClipPath)"/></g><g data-v-644c7455="" id="hairs"><polyline data-v-644c7455="" points="-21.417337965310814,-74.33216793181587,-8.76629893649337,-72.7062228095487,-11.671971780790866,-72.16591325159459,-11.208253625177322,-73.30572443075012,-9.1464128105911,-74.53909850924744,-7.902798059927466,-74.86997200119221,-7.469999453339297,-73.79384230434457,-5.965743799050632,-71.10527438602317,-0.9931939402653738,-67.06206116662597,8.389419351991268,-62.59841367105762,20.045966601313555,-59.19941251847761,29.059850207344084,-58.251771627011095,30.361963087233345,-60.065858456939075,21.97285065079642,-63.23347547269534,6.643719928720202,-65.1562629437613,-7.227876718968449,-63.783630396948894,-0.12297012303260857,-58.71774700360015,69.11955542997974,-48.76700593651161" fill="none" stroke="rgb(167, 133, 106)" stroke-width="0.9411875357821515" stroke-linejoin="round" filter="url(#fuzzy)"/><polyline data-v-644c7455="" points="-46.08512512745369,-65.04644213333593,3.4982196207268315,-69.6671590459216,19.89714844195943,-70.09493110524939,15.013408786399996,-69.42965330441557,1.2786771196851399,-67.68381249763179,-9.756828427219803,-64.42870428258726,-11.596315657354664,-60.39124665081842,-4.579005854735334,-57.47038236092686,5.769782349595147,-57.4175061391606,13.247086713076476,-60.29321869588954,15.898418395731595,-64.05322129126479,17.817968946606392,-65.72128875575903,25.29565681099029,-63.40419798828676,37.75260019755724,-58.313696198949096,37.83843009461345,-57.243271902386695,-10.491896348351839,-76.08654636336128" fill="none" stroke="rgb(167, 133, 106)" stroke-width="2.9547229372312525" stroke-linejoin="round" filter="url(#fuzzy)"/><polyline data-v-644c7455="" points="-20.410184727447827,-74.53681758981753,4.965476185503546,-64.17649945628608,36.48510157385299,-53.57039270020805,53.26129012840846,-49.34594756901929,57.2725247176612,-49.81728970632075,54.43838794081638,-52.89006958750365,49.774416886692194,-56.73841420812887,46.15148685509273,-59.96703837810723,44.41307967180423,-61.866970511933836,43.882376716329375,-62.5113585911456,42.884409230222076,-62.60665473005948,39.54214323024715,-63.087816218457206,33.02967444245707,-64.54973053052306,24.74500692749194,-66.79087413034397,18.363400946701358,-68.78293880131712,18.158445463973976,-69.13893717802749,26.200353119130114,-66.85331031128759,40.11504596224343,-62.11665251785755,52.89379071898279,-57.351295737320044,54.6605858128088,-58.246353939697116,36.391241993884705,-71.01315925350634" fill="none" stroke="rgb(167, 133, 106)" stroke-width="2.181485616569069" stroke-linejoin="round" filter="url(#fuzzy)"/><polyline data-v-644c7455="" points="55.41126112281928,-60.9174382127742,13.057015897541477,-63.25819657082201,-11.849797481494926,-60.16396836033231,-9.360757429233162,-58.44027158772581,4.1080420572030985,-57.42441455279122,14.820486174175937,-56.845477023931245,19.557853370636508,-56.95519342591502,21.620573830960634,-57.64580030334374,24.628252177106848,-58.387683420748424,29.304196851762377,-58.67356307704587,33.72844078334302,-58.39864222352556,35.30982496564114,-57.939483262614154,32.724774737897015,-57.95824445043395,26.82079947599153,-59.055533831455875,20.141971442081832,-61.41898542937544,15.390746400417532,-64.6144832588593,13.89769295982187,-67.6215871602723,15.394510555260691,-69.12464527349825,19.172736285266232,-68.03092020460441,24.347488588666394,-64.29858312548212,25.908829389281465,-60.11940994230025,7.355641708753669,-59.72665460643798,-56.173684124914345,-58.19969502179342" fill="none" stroke="rgb(167, 133, 106)" stroke-width="1.4405393051461135" stroke-linejoin="round" filter="url(#fuzzy)"/><polyline data-v-644c7455="" points="7.601630788196749,-76.77586452670087,3.217800993790032,-75.32913874129287,3.2662082092756592,-72.16190953185192,10.007127951047318,-67.17888530840828,17.565827164073017,-61.61836386132013,20.076465726276613,-57.32876698124937,16.413455521914802,-55.00169641238941,10.808959877946782,-54.052899053869986,9.0956727447121,-53.49473937784358,14.388960862351214,-52.641143257662826,25.40962836527081,-51.3109676718371,37.76035102883631,-49.761816918036104,46.487869893983536,-48.57536692181859,48.231109084813184,-48.49346797926433,42.313319278549315,-50.12441716630639,30.939458228469743,-53.552845126935914,18.65112511879484,-58.03119974270654,10.904378226874726,-61.97493407607378,11.88122710001861,-63.48306164359748,22.276945190159537,-61.64766796707787,37.653484314814676,-58.61738074470232,48.018950109880365,-60.19308411548371,49.79787440300973,-64.80921358789267" fill="none" stroke="rgb(167, 133, 106)" stroke-width="2.505173267336934" stroke-linejoin="round" filter="url(#fuzzy)"/><polyline data-v-644c7455="" points="-64.27820075089825,-51.90217526355384,-2.5565100142959682,-59.6283110981787,16.432579998894727,-59.63017900199787,20.535734404607307,-59.718509236034045,18.310816351419916,-61.46492484207327,17.269671700414438,-62.85661219845627,19.884071002121978,-62.76769445173146,22.884567220074256,-61.74676873304418,21.461750899360325,-60.886235336055904,13.955141200651376,-60.77609834814014,3.5544236572641688,-61.28736272404882,-3.8795927654976667,-62.00835013743718,-4.358223903006083,-62.80479051941011,0.6800188164727493,-63.97543342318763,5.723736530364039,-65.79945747542256,8.663628538142982,-68.03466053925624,16.176634173750287,-70.62192084995985,19.91212621229649,-75.24008064386959" fill="none" stroke="rgb(167, 133, 106)" stroke-width="1.8540304169716073" stroke-linejoin="round" filter="url(#fuzzy)"/><polyline data-v-644c7455="" points="58.44315266301817,-58.97252264513142,42.52568923085377,-62.222459711980626,21.183920139394402,-68.56530789359776,11.740749270527509,-72.15320797363898,12.976742165885302,-72.25524040014429,18.98592455695722,-69.85605020919337,23.178461568560827,-66.72574906009541,21.002012709916375,-64.490646429422,12.185401800653677,-63.82679933880374,0.7846685879956556,-64.33914268586696,-7.512152082272614,-65.03624352939828,-9.159710233671998,-64.93166175830794,-4.830826315545837,-63.569815908728266,2.109159251543279,-61.54851008015513,9.843189811798405,-60.72636716805749,20.325433746444833,-63.10746730072535,33.323241674773755,-67.87865939485735,41.07924334828128,-69.12637346055338" fill="none" stroke="rgb(167, 133, 106)" stroke-width="0.9654517142162817" stroke-linejoin="round" filter="url(#fuzzy)"/><polyline data-v-644c7455="" points="-39.568054742404115,-67.96140502537844,-6.949482046814948,-70.28833767161301,9.756504210682762,-63.66597686538615,12.27515407979848,-56.75608980747469,10.312553431836145,-52.00077377998974,10.462407312577389,-49.36563397552875,11.978861426996069,-49.058808942915235,11.960523213739608,-51.13325188854747,9.708343151351787,-54.840044896999544,6.544427300020858,-58.888975715888314,3.6128128639352983,-62.150296869776206,0.9820731052772207,-64.0772808285513,-1.2065351010508705,-64.66812148636217,-1.3457194887017634,-64.26474706388998,3.0813866278755233,-63.426236930083974,12.790381823917752,-62.66393245852063,24.224876642060735,-61.67878144188394,29.27270949788216,-58.644658100755585,12.275552915573009,-51.915870663147885,-68.78335019309996,-46.94638099740732" fill="none" stroke="rgb(167, 133, 106)" stroke-width="2.7287934027705125" stroke-linejoin="round" filter="url(#fuzzy)"/><polyline data-v-644c7455="" points="4.414662907929901,-76.85420941358652,2.3378824310459603,-64.56926370313852,0.3201123354943977,-54.70265578081216,-6.695986305277642,-52.189071840244615,-7.98765259777265,-53.19107111396303,-5.758877598417569,-54.99826993951823,-6.241033733358584,-57.17336599577072,-11.279622641445416,-60.04023134635426,-18.210576351198892,-63.41425472944022,-23.402285128017745,-66.5188568621261,-24.544213835045618,-68.55463925709573,-20.795859380924767,-69.01396325346933,-12.675833128642378,-67.54897495665844,-3.5534113242044634,-64.11003993838692,-2.629852592373667,-59.9421908364232,-24.23502839440878,-57.72274957432856,-62.59196387810452,-53.070338421053705" fill="none" stroke="rgb(167, 133, 106)" stroke-width="2.7729811483589204" stroke-linejoin="round" filter="url(#fuzzy)"/><polyline data-v-644c7455="" points="74.2016292075697,-42.81703506414357,21.068334781165632,-62.23149307348045,14.7804105095517,-68.58427394644912,19.033041581229448,-69.45659809781212,25.101292474222948,-67.6388400065478,30.249100471971122,-64.78053165663744,31.472328623258303,-62.56377245543412,27.2704585200333,-62.048219488846385,19.319629961318125,-63.19193298491339,11.344605874412434,-65.1421359782202,6.436966917233772,-66.89162051361625,5.041238082146026,-67.8117632643465,4.935339668837509,-67.86005039101052,3.1465722591713674,-67.48097602442367,-1.452922436963075,-67.3067526249381,-6.8580118573080195,-67.79106020939226,-9.563071003567025,-68.88066372455606,-8.263730444722194,-69.73945503511707,-4.344923000187421,-68.51136098430511,9.007253237202814,-62.24351897249366,70.3077565208643,-47.14113205110242" fill="none" stroke="rgb(167, 133, 106)" stroke-width="1.9908109841876978" stroke-linejoin="round" filter="url(#fuzzy)"/><polyline data-v-644c7455="" points="-14.275980264652208,-75.68136234484976,-8.187245388603039,-70.67914257514266,-1.208622237960533,-67.71707612655605,-0.5826979948658864,-65.97733635611351,0.7229740319706397,-63.81358121421495,4.706401265540075,-61.72190288390909,9.543657735340332,-60.7438864247726,12.887571690717307,-60.9642996576965,13.688770918374278,-61.551641607821985,12.563294432185776,-61.605347775726756,11.043821755059845,-60.79017550657676,10.217909807001567,-59.34576339392947,9.808816691162002,-57.65985163678029,8.732937870787497,-55.8624495856155,6.958493551177087,-53.81596537024258,6.842685248165306,-51.535281166776336,11.695266260419993,-49.6776259912464,21.37462641632091,-49.55334507562832,28.88269499039756,-52.23536962750469,25.362632130889033,-56.74804359360276,19.11149738506867,-58.34297495039681,67.4503832529218,-50.578268229139496" fill="none" stroke="rgb(167, 133, 106)" stroke-width="2.3158932887073735" stroke-linejoin="round" filter="url(#fuzzy)"/><polyline data-v-644c7455="" points="62.707061007836884,-55.496998299675894,16.564883022788607,-67.10341886441404,6.81197884339138,-69.35254646611422,6.79669560440616,-69.71314859860789,6.216855399419277,-69.72486910184368,4.550505205268143,-68.89967833031947,2.3642322613600184,-66.95115507030765,-0.7343655633064302,-64.29894193212256,-4.827288966508056,-61.79456904414581,-8.905142008512103,-60.282655341692944,-11.92062375640854,-60.28619351347594,-14.379287883628736,-61.88102689352936,-18.055499531003512,-64.65040339193092,-23.286111084050702,-67.64769923149159,-26.6822096839258,-69.71295535570819,-21.083141666453606,-71.03052286337102,10.226480053761208,-76.64087506029651" fill="none" stroke="rgb(167, 133, 106)" stroke-width="2.246549182001173" stroke-linejoin="round" filter="url(#fuzzy)"/><polyline data-v-644c7455="" points="37.15098207428922,-70.88696567295017,11.911138956915808,-73.20448852163564,14.568433387247131,-70.2451262233122,20.222639551458688,-66.00020708603245,20.48273339106527,-64.05386549652916,17.78018914871769,-64.87075008767856,15.312671673775405,-67.14047164903451,13.461618589278388,-69.45753741800023,11.343540115093349,-70.94612873042243,8.998296301913669,-71.20780015928837,7.834008730106868,-70.2164458545319,9.451769477413968,-68.35807808363631,14.043731198673846,-66.43898958951114,19.519269999888223,-65.42920889824671,22.040158384485764,-65.92805185070672,17.93507702741924,-67.64651815933713,6.099268553701811,-69.35282512679069,-10.415275155403,-69.5521530533324,-23.936766917497774,-67.78694577235576,-20.776789944063147,-66.41671890937674,26.381708926056138,-73.9246136286916" fill="none" stroke="rgb(167, 133, 106)" stroke-width="0.6998857028858791" stroke-linejoin="round" filter="url(#fuzzy)"/><polyline data-v-644c7455="" points="-61.45103698848493,-54.41518562483638,4.838606397694175,-51.24916324924562,2.5943736294461726,-58.57561780962525,-8.226569356208314,-61.92017964107225,-10.273622681263376,-61.48332810088979,-4.079753389653085,-60.40631220029762,3.711361421701351,-60.541547402565214,7.206315302526461,-61.843878835282304,4.251329753600329,-63.40960557015159,-3.639344585436252,-64.56865310515181,-12.970788899550248,-65.25641559755704,-20.224375049823408,-65.74073975005085,-23.239564357205396,-66.18892724390354,-21.717984727974038,-66.48128462166878,-16.96144002555053,-66.35089502105782,-11.145736123662711,-65.65146199437099,-6.433445649769547,-64.50864387886057,-4.199239161026726,-63.280934870059454,-4.628403957948823,-62.45566067796291,-6.758638976361617,-62.607215666941855,-8.65824126154476,-64.30388786110765,-7.721254097422516,-67.67353519720972,-2.9872245589759086,-71.71077309240638,-2.1054962040353065,-74.23887062290352,-24.535459768631874,-73.28466851154697" fill="none" stroke="rgb(167, 133, 106)" stroke-width="2.5514254141013777" stroke-linejoin="round" filter="url(#fuzzy)"/><polyline data-v-644c7455="" points="-30.093640511286377,-71.66616205139445,10.039115121746638,-66.05187531506525,21.89575243557305,-56.963941573518156,25.152204848464557,-51.08752572691371,24.04323213187099,-49.68308298475308,14.540882977609124,-51.72893497125276,-3.0432415907248593,-54.7476065639193,-23.025999761580067,-56.6403263109718,-38.749884636178614,-57.0845814077541,-46.07869189189328,-57.33505046701488,-44.32640293419167,-58.791975336676515,-35.57374322982245,-61.65053836405763,-23.46361442181177,-64.80855467727936,-11.779676760456454,-67.09816721186976,-0.45138989393063156,-68.50289334624738,36.82776514669405,-70.723056881792" fill="none" stroke="rgb(167, 133, 106)" stroke-width="2.5899465871017133" stroke-linejoin="round" filter="url(#fuzzy)"/><polyline data-v-644c7455="" points="-43.68790638460965,-66.24344423166686,-0.6537613100346165,-65.51679220368014,6.515092971506338,-66.92076820816102,10.631802529904386,-66.46060716308331,12.836046532984753,-64.0000921815809,12.944681231590906,-61.35907286505727,13.117196315097384,-59.774353955878716,15.366875711353286,-59.01877608226507,19.77805910023121,-58.07966907714192,24.702015637934714,-56.20434950289021,28.059004448957914,-53.43529077215241,28.442293747273002,-50.503242883570856,25.325169400674326,-48.398612961993834,18.737352873158052,-47.947694853364,9.32391023491546,-49.52889877825007,-0.9720345865633584,-52.95496475218395,-8.684647617128647,-57.55796230585654,-10.432891564528576,-62.47030650349712,-5.858392381926951,-66.91369760830628,1.3442123396335686,-70.24917297821729,7.149276350846871,-71.99266510567456,10.507710209228978,-72.73220627742583,-5.658795132942451,-76.57035419322902" fill="none" stroke="rgb(167, 133, 106)" stroke-width="1.340655362731374" stroke-linejoin="round" filter="url(#fuzzy)"/><polyline data-v-644c7455="" points="-4.3817092123916925,-76.79099120692118,-17.152431824937008,-74.42210701792811,-19.80697294505821,-73.233481603763,-19.842120622995456,-72.0459338866686,-21.372695234973893,-70.52542461333593,-22.475998405773435,-68.96139801322586,-19.464901187124326,-67.38209736587065,-10.959366678199522,-65.44602561762014,0.9214501738351464,-62.99816317084257,11.912325287554726,-60.49538593983628,18.11778478153491,-58.800951396989234,18.14017228344205,-58.543680858686095,13.648030853319831,-59.63284081618834,8.100471719437996,-61.3299516941257,4.449061034614865,-62.766700200940285,3.3882437337004108,-63.44910332994015,3.558261638699361,-63.36922341337856,3.8256343564440907,-62.72667584016601,5.850155648318828,-61.58984337830339,13.924293262721125,-59.83604387488732,30.447683611542224,-57.377035855328785,50.4892998952818,-54.105631690099095,65.1520033654349,-48.16523339866765,80.80962085996252,-29.886831215866376" fill="none" stroke="rgb(167, 133, 106)" stroke-width="0.8599642645510637" stroke-linejoin="round" filter="url(#fuzzy)"/><polyline data-v-644c7455="" points="-41.876969214154684,-66.95901372316756,6.876851428906335,-65.00591927564999,9.330220862683527,-68.9409417610674,9.456998801251212,-70.94505304593739,14.86370884923629,-69.6351292943059,21.966843180622778,-65.64159599905014,27.321783005466767,-60.16114798434994,31.03797557943239,-54.40532702082708,35.02155899196365,-49.52553402404288,39.611649219066706,-46.543441461450605,42.39685718566446,-45.98950402215663,40.49081012748482,-47.554011193653736,34.072480517313416,-50.34850105633216,27.346602137019094,-53.824632843845116,24.558438508096533,-58.355760356310654,22.948174453731397,-64.15372536175677,9.48517946357403,-68.934171516086,-36.67885018220824,-69.32399068608164" fill="none" stroke="rgb(167, 133, 106)" stroke-width="0.5643242760246282" stroke-linejoin="round" filter="url(#fuzzy)"/><polyline data-v-644c7455="" points="-28.213194164095494,-72.2610332091206,8.258320145853828,-71.41836762496494,7.868519874429682,-71.77185232491026,1.3324885187093845,-69.69291148034063,0.052019649375349544,-65.35860578262277,5.395625280088645,-60.41347323852448,14.634743154748685,-56.89212420387759,23.75011214331216,-56.10390554079863,29.331176296794823,-57.733312509496116,30.091893888174596,-59.98800123335792,27.230668025546077,-60.87544706307569,23.495618601473037,-59.65912169762252,21.385785920542027,-57.32636826748816,20.34982044446398,-55.7882482888494,14.22782041045767,-56.85945679260687,-1.0693429524486175,-62.526513238090004,14.35826321807264,-76.27017416237355" fill="none" stroke="rgb(167, 133, 106)" stroke-width="1.781490811905246" stroke-linejoin="round" filter="url(#fuzzy)"/><polyline data-v-644c7455="" points="71.5121919573829,-45.535754278092284,35.88099840002052,-55.189374020275274,-0.7099272433689027,-59.29786027820124,-14.66138703538697,-60.67700368358002,-12.461665978134532,-61.5373556064912,-7.459071091906087,-62.484587505535046,-7.791897405368168,-63.20421411550123,-13.991302574424939,-63.431047787073766,-22.07772753871106,-63.442834795762636,-27.671851033349988,-63.874923722325754,-28.59977998122915,-65.19479678613999,-25.428448134958852,-67.3335589062302,-20.51370636799901,-69.72010503424227,-16.54391106034218,-71.60587736833818,-15.404641211207204,-72.40590764400659,-17.682997955928265,-71.87843182556348,-22.617407499529637,-70.15606284946917,-28.16437006320648,-67.72048029344958,-31.19650213647776,-65.32684090019504,-28.28871088178775,-63.7856279116572,-17.4815970481261,-63.585787922021666,-0.354425003757159,-64.44850544238874,19.7870467663942,-64.29632644991572,62.707061007836884,-55.496998299675894" fill="none" stroke="rgb(167, 133, 106)" stroke-width="1.4936123714625928" stroke-linejoin="round" filter="url(#fuzzy)"/></g><g data-v-644c7455="" id="pointNose"><g data-v-644c7455="" id="rightNose"><circle data-v-644c7455="" r="2.374087174151726" cx="11.9196909158252" cy="26.478981473305925" stroke="black" fill="none" stroke-width="1.2684264120051854" filter="url(#fuzzy)"/><circle data-v-644c7455="" r="1.9716743975915545" cx="13.329590564504564" cy="26.693498667823743" stroke="black" fill="none" stroke-width="1.138508310291985" filter="url(#fuzzy)"/><circle data-v-644c7455="" r="2.880967979106393" cx="13.857053573449601" cy="27.665642483570867" stroke="black" fill="none" stroke-width="1.099408002434969" filter="url(#fuzzy)"/><circle data-v-644c7455="" r="2.6292842806223757" cx="11.462395169034302" cy="28.02011665352336" stroke="black" fill="none" stroke-width="1.406566589271939" filter="url(#fuzzy)"/><circle data-v-644c7455="" r="1.914852890081129" cx="14.109909826912979" cy="29.336896270098542" stroke="black" fill="none" stroke-width="1.314336517872047" filter="url(#fuzzy)"/><circle data-v-644c7455="" r="2.6847097084889615" cx="12.072937161212687" cy="29.633368307178543" stroke="black" fill="none" stroke-width="1.1842946939202286" filter="url(#fuzzy)"/><circle data-v-644c7455="" r="2.841739024001087" cx="14.15732553060974" cy="27.888219574723937" stroke="black" fill="none" stroke-width="1.0977925422119736" filter="url(#fuzzy)"/><circle data-v-644c7455="" r="1.3909479374777898" cx="13.225746526314351" cy="25.907193125702516" stroke="black" fill="none" stroke-width="1.0350122780526585" filter="url(#fuzzy)"/><circle data-v-644c7455="" r="1.0820133937930732" cx="14.243671391284973" cy="28.630744300604114" stroke="black" fill="none" stroke-width="1.30087613536966" filter="url(#fuzzy)"/><circle data-v-644c7455="" r="1.2559104153398173" cx="12.944690398155144" cy="27.490643503877635" stroke="black" fill="none" stroke-width="1.4265880113976348" filter="url(#fuzzy)"/></g><g data-v-644c7455="" id="leftNose"><circle data-v-644c7455="" r="2.522455332125971" cx="-14.332462224233367" cy="28.53696591445144" stroke="black" fill="none" stroke-width="1.1314110254821519" filter="url(#fuzzy)"/><circle data-v-644c7455="" r="1.2018328571086743" cx="-13.698682531140417" cy="30.45514370591109" stroke="black" fill="none" stroke-width="1.1815784146801145" filter="url(#fuzzy)"/><circle data-v-644c7455="" r="2.465065098317821" cx="-13.516370565437793" cy="29.77736797271808" stroke="black" fill="none" stroke-width="1.381779563658185" filter="url(#fuzzy)"/><circle data-v-644c7455="" r="1.4587065427775916" cx="-15.809889941722968" cy="29.794051583942554" stroke="black" fill="none" stroke-width="1.0312766008012537" filter="url(#fuzzy)"/><circle data-v-644c7455="" r="2.5640963455823966" cx="-13.24886792212266" cy="30.95763127128344" stroke="black" fill="none" stroke-width="1.3400457345954266" filter="url(#fuzzy)"/><circle data-v-644c7455="" r="2.460991550879986" cx="-12.507647190567077" cy="29.47611883845709" stroke="black" fill="none" stroke-width="1.4882219049253709" filter="url(#fuzzy)"/><circle data-v-644c7455="" r="1.9391796021556709" cx="-13.643901434733653" cy="28.548685731236663" stroke="black" fill="none" stroke-width="1.4202851227188036" filter="url(#fuzzy)"/><circle data-v-644c7455="" r="2.0594924313983527" cx="-15.262623261574989" cy="31.28044103695442" stroke="black" fill="none" stroke-width="1.283863132508725" filter="url(#fuzzy)"/><circle data-v-644c7455="" r="2.916227298105158" cx="-14.595185307072647" cy="31.195375242562193" stroke="black" fill="none" stroke-width="1.3353498147772265" filter="url(#fuzzy)"/><circle data-v-644c7455="" r="1.0690684500419407" cx="-15.978390049786505" cy="30.688180011276316" stroke="black" fill="none" stroke-width="1.0687683039585596" filter="url(#fuzzy)"/></g></g><g data-v-644c7455="" id="mouth"><polyline data-v-644c7455="" points="35.388227349022216,42.51626419479584,35.0657828126071,41.85236478565183,35.2404234128299,42.48523809628074,35.54122281664465,43.29356791389646,35.54269217512617,44.26223225821942,35.61059474499704,43.42608853230418,35.399314309247465,45.11467889519805,35.44562936269382,44.92315837392614,35.348805217550776,45.69545778544318,35.19892695187676,46.48270345727491,35.40867068152036,46.316122142712516,35.35353285345495,46.30007481117298,35.1835713718203,46.92724984422459,35.08747831597269,47.140552551312126,35.089120403886184,47.28122328771099,34.310766829163356,49.18875449814928,34.38477551837846,48.96932885473681,34.188747588270786,49.32238444905909,33.92913245557858,49.630487933372024,34.03437175639543,49.60545313537283,33.71480961113925,50.10932618044787,33.429806880203145,50.50401261006705,33.12929982156609,51.10986109814682,32.75344144499174,51.47903781971446,32.415503370833534,51.934476576979534,31.8162484333626,52.73114614709784,31.774709373894897,52.83403117158446,31.280449662978633,53.39894868232194,29.744348788736993,54.86233578465571,29.190257226050573,55.36756408512492,28.42187403777897,56.02886188442548,28.11207655886647,56.30128570960361,27.4494328553995,56.76386454713847,27.447269971012926,56.80746986232287,27.711291849145198,56.54728120779809,26.473544928378338,57.45650978086239,26.7908680815193,57.239296884110864,24.262808619249764,58.869474992224546,24.95606025380974,58.45259710356633,23.9179321337742,59.09983306642624,24.23567752804023,58.92505239753787,22.90971951023761,59.66074813093755,22.618906843896568,59.82621625844982,22.776186342927126,59.73464549982928,21.421127943839828,60.409922490263114,19.10846799149943,61.436123181318266,19.630619368402574,61.21684819485142,18.891344142985943,61.52766283245073,17.263346852842083,62.13749390934809,18.24382188650843,61.7765158061066,15.871771386038485,62.60405699770769,15.283670193852476,62.78797554203967,15.796926571311097,62.62720877129945,14.935649122628107,62.88885327233399,14.206974710503179,63.094338321419286,12.99167117634602,63.39493626842326,11.7438994174296,63.69542124548761,12.360515977476714,63.54259032984103,12.018179244342473,63.62959937616135,10.138665938453826,63.97615116394154,10.604097453566474,63.90189984261761,7.957993637512389,64.28138046869215,9.062314369855553,64.1193661509329,8.17639451544714,64.2307404628572,5.747299436789531,64.4063963337515,6.392727342681994,64.38960936847123,4.242555082595423,64.47770382216453,4.208249850273981,64.48219955885735,2.942943487974137,64.43168763690706,3.239571973559423,64.47602286459312,2.8302543959311173,64.38023667625451,0.9193678793872806,64.23117568174564,0.7279131546550186,64.23326797525259,0.8597834727996556,64.28067743459499,-1.1199423689145078,63.95477127793769,-0.894545798867485,63.93968651899136,-1.0713032522167794,63.92367498280465,-1.3009353435921653,63.87329985907513,-2.3495890917333906,63.62869943282897,-2.654558315407808,63.476743368039735,-4.3822709704259175,62.93049273819135,-3.4462925078238964,63.28920135521765,-5.2919085709047025,62.56678724234178,-5.505626583974852,62.46000680076652,-4.954657385875361,62.701477461353605,-5.662221544673077,62.272770330409614,-6.2612966374972565,61.96157878168418,-6.593324120535112,61.88070815007289,-7.518007317523455,61.22973005733344,-8.04537553095047,60.62811222716586,-7.509307997436984,61.200650457061016,-8.734771854287786,60.17725748326262,-8.360950324033602,60.31614628462759,-8.706952603708913,59.93439174912258,-8.922132761907896,59.90189547642858,-9.00080602127274,59.739347812593216,-9.517032900981985,59.23964135046069,-9.911868036842467,58.229458877680024,-10.284356561196315,57.36433821593842,-10.36483704013325,57.62866895076555,-10.256913450633565,57.51977492118902,-10.240928301546852,57.526746067383584,-10.724349429288111,56.53342620147041,-10.741944073115782,55.26873270125392,-10.681085257703497,56.09489543583264,-10.787960820275643,55.688214793577295,-10.784828873493584,54.49757835921917,-10.889271911763103,54.49220383688015,-10.879411564906366,53.58853948584339,-10.722942405748519,53.9099256480065,-10.759312160674178,53.70595553164347,-10.817720079722378,53.09129086099621,-10.18609977947234,51.371371935496576,-10.355873352387501,51.84568897186862,-10.422276061942203,51.743326409852266,-9.850667079931878,50.276623024280866,-9.719523335605828,50.22163227663789,-9.584964071429049,49.679506207536164,-9.017375386927718,48.7468074702026,-8.88860367858053,48.53504286599359,-9.217057021074275,49.09802383087872,-9.029882682871467,48.704794910555535,-8.079201216017456,47.34858571218814,-7.4686009782605325,46.76031887780725,-6.688704808527618,45.817580519701735,-6.167797546350368,45.30717506725599,-7.083629814846102,46.17570891517587,-5.762970227582766,44.872254377603404,-5.4609411590517745,44.6076257108968,-4.396598672410203,43.63721581538844,-3.682121051158532,43.066156386502655,-4.923721632309235,44.000156047498166,-2.985515214407876,42.49517511741331,-2.5371927241034697,42.115457623340696,-2.6184420206652916,42.171580816217684,-2.7362680203907495,42.30870201024193,-1.5708640425862583,41.478869274932904,-0.6787939012540392,40.87024095465828,-1.0038924385100874,41.10603722540681,0.3609573968497468,40.255717681715026,1.8114445344394596,39.440526378447366,2.544430176984644,39.07380644551097,1.6881886215166713,39.537745606881,2.898321290162798,38.91508718204574,4.310036041146509,38.24107963793111,4.9395870336106125,37.969915565326076,5.691319531194167,37.65895141982001,6.351745497816494,37.392803829313394,7.2908154765959035,37.04208533794747,6.025721002067309,37.514816728523705,9.01778983925002,36.45927496378632,9.734053169026229,36.24739711315483,9.92313942154112,36.186634953566234,10.539681717199823,36.01450843537462,10.51404741053872,36.02219751680923,12.267363271985221,35.59036935202911,11.074149207423575,35.882148820278076,13.13044658818091,35.39690898038588,13.748859307995126,35.26532851230577,15.195828647589076,35.030369233416785,16.25170950612771,34.902393790552296,16.956801144829996,34.77849762743821,17.94412992519093,34.7221519449281,18.429275395478015,34.699116737647685,16.905944250802868,34.8226696684295,19.904630737549578,34.59257992699425,19.45347369696111,34.650215532516356,21.266292455288617,34.59327575382396,21.541424078052167,34.64607633764062,21.280162972873505,34.598773285520096,21.312661559941432,34.632553867270374,22.711027932444413,34.69509300328504,23.059020881337368,34.6733765541448,24.462922063787886,34.84728132354935,25.60192159785537,35.050860060363604,26.59565887193837,35.24571681870334,25.653935549294385,35.034781942434165,25.789173056779642,35.06699084610721,27.581832671455615,35.54295689332095,27.02385957753914,35.4160124624541,28.535419391151116,35.83493166537714,28.043827649627882,35.62517372992117,30.232640739733995,36.5209972527864,29.243931362891328,36.1507085995538,30.677524779317917,36.76573142964174,30.242295833863636,36.641206955797465,30.94129147514937,36.91869074461333,32.028774682450226,37.74643835661031,32.04515479728383,37.568574615690295,32.7406503809606,38.33881605192142,32.5630114269022,37.99456184276771,33.48408860477008,38.898323626016044,33.780448982127155,39.3961472358085,33.149958856757735,38.70911455348987,34.15703558334725,39.998616262500484,34.56410502610851,40.509186034204646,34.24217237671413,39.97444079388461,34.528952963956456,40.40547089279998,34.99643542112278,41.23780585297414,34.84870664218927,40.887118494563765" fill="rgb(215,127,140)" stroke="black" stroke-width="2.7988306705266064" stroke-linejoin="round" filter="url(#fuzzy)"/></g></svg>